<svg xmlns="http://www.w3.org/2000/svg" viewBox="0 0 260.91 260.91"><defs><style>.cls-1{fill:#01bff3;}.cls-2{fill:#f5f5f5;fill-rule:evenodd;}</style></defs><title>Ресурс 13</title><g id="Слой_2" data-name="Слой 2"><g id="Слой_1-2" data-name="Слой 1"><circle class="cls-1" cx="130.46" cy="130.46" r="130.46"/><path class="cls-2" d="M140.19,86.44c2.41,23.61-.79,52.83,1.62,76.44h2.83c1.46-12.36.81-28.37.81-43.27,0-4.43-.71-11.3.81-13.75,2.36-3.81,13.58-2,19-2,7.73,0,14.31-.3,20.22.4,3.89,7.84,8.49,15,11.73,23.46,4.62,1,10.13,1.2,15,2,8.12,5.54,2.1,21.46,2.43,32.35.63,1.39,3.67.38,4.45,1.62,0,5.92,1.06,12.44-2.43,15.77s-9.62.81-16.18,1.62c-3,6.4-8.68,12.95-17,13.35-8.7.42-16.16-5.68-18.6-12.94-21.44-.94-44.62-.14-66.73-.4-3.25,7.23-8.86,13.3-17.79,13.35-11.71.06-21-10.67-17.39-24.27-5.76-1.65-16.32,1.49-20.22-2-1.34-25.15-1.34-56.12,0-81.69C73.34,85.09,109.57,85.1,140.19,86.44Zm-91.4,7.68c.27,22.79-.53,46.64.41,68.75H67c4.5-2.78,8-5.28,13.75-5.26,6.26,0,9,4.38,12.94,5.26,6,1.33,13.73,0,20.22,0,6.87,0,13.56.66,19.82-.81.94-22.11.13-46,.4-68.75-27.37-.94-56.48-.14-84.53-.4A1.11,1.11,0,0,0,48.79,94.12Zm103.53,17c.53,16.86-1.06,35.85.81,51.36,5.42-.14,10.36,1.6,15.77.4,2.75-.61,4.79-3.56,7.68-4.45,7.71-2.36,13.3.5,18.6,4.45,3.86-.46,9.59,1,12.13-.81.79-7.85,1.84-17.55,1.62-25.08-5-2.56-11.46-.32-15.37-2.83-1.39-.89-2.18-3.24-3.23-5.26-3.07-5.88-6.93-12.12-8.9-17.8Zm-72,76c14.52-.08,14-23.12-.81-21.84C64.52,166.59,67.47,187.21,80.33,187.14Zm101.11,0c10.6.78,14.39-11.14,10.51-17.39-4.46-7.2-17.29-5.62-20.22,2-1.43,3.72.63,3.72,0,8.09C174.83,184.42,177.32,186.84,181.44,187.14ZM97.32,169.75c.3,1.45,1.24,2.26.81,4.45,19.31-.91,42.28,1.22,61.88,0,2.8-.17,6.09.35,4.85-4C143.15,169.21,119.7,170,97.32,169.75Zm103.13,4.45h10.92c.11-1.64,1.29-2.22.81-4.45H199.64C199.91,171.23,200.07,172.82,200.45,174.2Z"/><path class="cls-2" d="M183.87,130.52c.23.88,1,3.31,0,4-1.57,3-6.87,2-11.32,2s-9.38.45-12.13-.81a6,6,0,0,1,0-6.07C167.21,129.48,178.38,128.12,183.87,130.52Z"/></g></g></svg>