<svg xmlns="http://www.w3.org/2000/svg" viewBox="0 0 160.84 150.9"><defs><style>.cls-1{stroke:#01bff3;stroke-miterlimit:10;stroke-width:2px;fill-rule:evenodd;}</style></defs><title>Ресурс 1</title><g id="Слой_2" data-name="Слой 2"><g id="Слой_1-2" data-name="Слой 1"><path class="cls-1" d="M79.31,1h2.22c9.34,1,11.82,13.78,4.77,18.43,2.79,4-1.61,6.8-1.91,10.64,2.35-.92,5.37-2.11,7.94-1.11,3.7,1.44,3.88,7.87,5.72,10.64a18.77,18.77,0,0,0-9.69,1.11c-1.22.47-3.58,1.35-4,2.38-.56,1.51-.1,3.83-.16,5.72s-.26,3.74-.16,5.72a67.3,67.3,0,0,0,11-.16c3.13-.39,7.75-1.26,8.1-4a3.43,3.43,0,0,0-1.27-3.18c-3.53-2.39-11.22,2.48-14.61-.64,1-.74,3.52,0,4.76-.48-.7-1.16-3.31-.4-4.45-1.11,5.95-4.2,19.7-2.27,21.44,4.13,1.44,5.28-3,9.28-6.83,10.64-5.27,1.9-11.92,1.87-18.27,1.75-.16,4.89-.65,9.89-.32,14.14,4.88-.66,12.36-4.27,10-10.48-.5-1.31-2-2.17-2.86-2.86a38.13,38.13,0,0,0,11.12-1.75,11.07,11.07,0,0,1,1.75,7c-.78,9.3-10.34,15.47-20.49,15.57-.08,3-.11,6-.32,8.89,4.67.48,7-6.1,3.81-8.26a28.57,28.57,0,0,0,7.47-2.38C97,91.25,90.71,97.73,82.8,99.32c-.13,2-.25,3.58-.32,5.4,2.34-.19,3.09-4.16,1.27-4.92a18.45,18.45,0,0,0,5.88-2.54c2.84,6.13-2.16,11.09-7.31,12.23a41.53,41.53,0,0,0-.16,4.92,2.14,2.14,0,0,0,1.59-1.91c.07-1.25-1.07-1.78-1.11-2.54a18.46,18.46,0,0,0,3.81-1.59c4.12,4.15-.1,10.75-4.61,11.6v5.24c1.68-.07,1.39-4.23.48-4.92,1.31-.33,2.13-1.15,3.34-1.59,1.49,3.42.2,6-1.43,7.94-1.34,1.57-3.57,2.08-2.38,5.08,1-.6.33-2.21.32-2.86.83-.06,1-1.43,1.75-1.11,2.63,3.42-1.24,5.77-2.38,8.42s-.37,5.53-1.27,8.42c-.07-5.53-1.23-10.12-1.11-15.41-1.62,1.33.51,4.85.16,7.47-2.46-2.11-5.32-9.35-.32-10.8v-5.24c-1.83.11-1.33,3.93-.32,5.08a4.52,4.52,0,0,0-1.75,1c-4.68-3.07-2.2-9.93,1.75-11.6.07-1.41-.1-3.37,0-4.29-1.91.1-2.14,3.4-.32,4.29-1.23.3-1.64,1.43-2.86,1.75a5.46,5.46,0,0,1-2.7-6c.53-2.91,3.69-4.4,5.56-5.72.08-1.51-.08-3.71-.16-5.24-1.42.2-2.1.67-2.22,1.75-.19,1.67,1.52,2.56,1.91,3.34-1.73.44-2.75,1.59-4.13,2.38a7.85,7.85,0,0,1-3.49-6.51C70.37,96,74.55,93.36,78,92c-.29-2.84,0-6.2-.48-8.89-6.81-.8-5.48,8.15-1,8.89-2.38.49-3.76,2.8-5.4,3.49-3.56-2-7.76-6.78-5.56-12.07,1.77-4.26,6.5-7.06,11.75-7.78-.06-5.16-.21-9.19-.48-14.3-4.07.11-7.37.48-9.05,2.7-3.8,5,2.82,10.61,7.47,11.28-4,.55-6.51,3.44-8.9,5.08-4.5-2.91-9.53-7.35-9.37-13.82.23-9.4,9.61-12.28,19.7-12.07,0-4.12-.24-8-.32-11.6-3-2.62-8-4-13.82-3.34,2.21-3.06,2.15-9.24,6-10.64,2.51-.9,5.45.15,7.78,1.11-.37-3.87-4.66-6.68-1.91-10.8a10.16,10.16,0,0,1-4.13-9.69C71,4.86,75,1.8,79.31,1Z"/><path class="cls-1" d="M1,14.82v-.16c9,4.82,19.18,5.1,29.07,2.38S46.29,8.51,56.44,7.83c5-.34,8.93.91,11,3.49,3.2,4.06-.73,15.39,4.45,16.68-5,.56-5.11-5.53-6.35-8.42a10,10,0,0,0-4.13-5.08c-4.53-2.44-10.25,1.09-13.66,3.18-3,1.85-6.2,3.85-9.05,5.4-6.29,3.42-14,7.17-21.92,7.15C7.35,30.2,3.1,23.82,1,14.82Z"/><path class="cls-1" d="M159.84,14.66v.16c-1.92,8.83-6.59,15.44-16,15.41-8,0-15.62-4-21.6-7.31-2.84-1.55-6.23-3.42-9.21-5.24s-6.7-4.17-10.48-4c-4.33.23-6.27,3.59-7.47,7-1.28,3.63-1.58,7.78-6.19,7.31,5.36-1.42,1.77-11,3.81-15.57,1.54-3.44,6.68-5,11.91-4.61,10,.73,16.12,6.35,26.21,9.21C140.66,19.85,151,19.4,159.84,14.66Z"/><path class="cls-1" d="M63.11,18.16c-8.39.73-12.49,6.84-17.95,11.91-4.65,4.33-9.24,9.53-16.52,10.17-7.49.65-14.17-3-16.52-9.21,14.72,1.48,25.71-5.9,35.42-11.91,2.79-1.73,6.54-3.86,9.37-4.13A5.78,5.78,0,0,1,63.11,18.16Z"/><path class="cls-1" d="M148.73,30.86c-1.54,5.95-9.2,9.87-16.2,9.37-7.33-.52-12.06-5.6-16.84-10C110,25,106.45,18.93,97.74,18.16c3.11-6.07,11.21-1.75,15.57,1,2.94,1.82,5.84,3.63,8.58,5.08,5.92,3.15,12.42,6.6,20,7.15A26.84,26.84,0,0,0,148.73,30.86Z"/><path class="cls-1" d="M65.49,24C58.27,25.38,53.75,29.89,49,35.15a86,86,0,0,1-6.83,7c-2.38,2.1-5.33,4.76-8.9,4.77-4.21,0-6.27-3-8.26-5.56,9.56.87,14.9-4.69,20.49-9.85,5.33-4.92,9.7-11.35,17.31-12.23C64.93,19,64.84,22.17,65.49,24Z"/><path class="cls-1" d="M97.1,19.27c8.61.7,13.08,7.41,18.27,12.23,5.41,5,10.56,10.58,20.49,9.85-2.09,3-5.3,6.69-10.48,5.24-5.51-1.54-10.58-8.16-14.3-12.07C106.57,29.76,102.23,25,95.35,24,95.74,22.25,96.11,20.44,97.1,19.27Z"/><path class="cls-1" d="M67.4,27.84c-10.31.83-11.5,15.66-18.74,19.22-2.85,1.4-6.47.15-8.58-1.43,3.8-2.9,7.5-7.19,11.6-11.28s7.87-8.3,13.66-9.21C66.49,25,66.63,27,67.4,27.84Z"/><path class="cls-1" d="M120.77,45.48c-2.21,2.32-7,3-9.85.79-6.29-4.91-7.77-17.41-17.47-18.43A17.5,17.5,0,0,1,95,25.14C107.54,28,111.53,39.36,120.77,45.48Z"/><path class="cls-1" d="M55.8,40.87c2.74-4.57,4.81-9.81,10.33-11.6C62.4,32.68,63.74,42.73,55.8,40.87Z"/><path class="cls-1" d="M94.72,29.43c5.33,1.28,7.64,7,10.32,11.44C97.1,42.78,98.52,32.71,94.72,29.43Z"/><path class="cls-1" d="M73.12,45c-1.06.69-3.41.09-4.29,1,.95.85,3.8-.2,4.77.64-3.39,3-10.91-1.61-14.45.64a3.17,3.17,0,0,0-1.43,3.18c.44,3.53,6.31,3.39,10,4.13-3.75,1-7,2.52-9.05,5.24C54.83,58,50.14,54.34,51.83,49,53.82,42.66,67.43,40.81,73.12,45Z"/></g></g></svg>