<svg xmlns="http://www.w3.org/2000/svg" viewBox="0 0 260.91 260.91"><defs><style>.cls-1{fill:#01bff3;}.cls-2{fill:#f5f5f5;fill-rule:evenodd;}</style></defs><title>Ресурс 8</title><g id="Слой_2" data-name="Слой 2"><g id="Слой_1-2" data-name="Слой 1"><circle class="cls-1" cx="130.46" cy="130.46" r="130.46"/><path class="cls-2" d="M132,40.41c2.52.48,3.84,4.26,5.63,6.06,12.23,12.35,33.65,14.5,58.44,16v78.79c0,8.68,1.42,18.17,0,26-1.06,5.85-7.58,13.18-11.69,17.75-11.81,13.11-25.52,22.48-42.42,31.17-3,1.55-7.64,4.3-10,4.33-3,0-7.82-3.37-11.26-5.2a184.89,184.89,0,0,1-29.87-19.48c-11.7-9.58-24.36-21.52-26-39.39-1.41-15.56,0-31.69,0-47.19s-.72-31,.87-46.32C89,61.41,111.3,58.85,125,47.77,127.29,45.55,129.07,40.55,132,40.41ZM80.45,77.21c-.36,22-2.46,52.59-.87,74.46.94,12.87,10.65,21.72,17.75,28.14,6.62,6,13.92,10.55,22.08,15.15,2.77,1.56,9.24,6.13,12.55,6.06,2.48-.05,8.53-3.91,11.69-5.63,10.51-5.72,23.61-14.81,30.3-22.51,2.56-2.95,6.83-9.33,8.23-13,4.22-11.08,1.73-30.78,1.73-44.59V77.64c-17.32-1.42-33.56-2.58-44.16-10-3.25-2.26-5.51-7.23-8.66-7.79C122,73.45,102.49,76.59,80.45,77.21Z"/><path class="cls-2" d="M177.42,99.29c-19.19,19.92-36.79,41.41-48.92,68.4-4.08-1.7-6.62-5.63-9.53-8.66-8.47-8.8-17.74-17.65-26.41-26.84,2.4-4.23,6.26-7,10.39-9.52,6.4,4.71,12,10.2,19,14.29,15.25-16.21,31.21-31.71,51.08-43.29C175.2,94.87,175.86,97.54,177.42,99.29Z"/></g></g></svg>