<svg id="Layer_1" data-name="Layer 1" xmlns="http://www.w3.org/2000/svg" width="40.128mm" height="42.071mm" viewBox="0 0 113.748 119.257"><title>logo</title><path d="M60.2,100.929A38.589,38.589,0,0,1,21.657,62.384l0-52.025,8.351-4.9L32.1,6.045a32.409,32.409,0,0,0,8.752,1.238,28.488,28.488,0,0,0,16.163-4.87L60.025,0l3.146,2.252A27.1,27.1,0,0,0,79.281,7.3a34.708,34.708,0,0,0,8.639-1.13L90,5.629l8.75,5.25v51.5A38.588,38.588,0,0,1,60.2,100.929Z" transform="translate(-3.333)" style="fill:none;fill-rule:evenodd"/><path d="M98.745,20.567V62.384a38.544,38.544,0,1,1-77.089,0l0-41.807A56.873,56.873,0,1,0,98.745,20.567Z" transform="translate(-3.333)" style="fill:#222220;fill-rule:evenodd"/><path d="M60.2,99.973A37.632,37.632,0,0,1,22.614,62.384l0-51.477,7.527-4.419,1.7,0.477a33.354,33.354,0,0,0,9.012,1.274A29.3,29.3,0,0,0,57.607,3.167L60.058,1.2l2.555,1.829A28.041,28.041,0,0,0,79.281,8.258,35.672,35.672,0,0,0,88.161,7.1l1.686-.44,7.942,4.765V62.384A37.632,37.632,0,0,1,60.2,99.973Z" transform="translate(-3.333)" style="fill:#222220;fill-rule:evenodd"/><path d="M89.208,11.108C82.959,12.74,71.1,14.2,60.2,6.4c0,0-11.85,9.507-29.478,4.556L26.764,13.28l0,49.1h0a33.443,33.443,0,1,0,66.885,0V13.769Z" transform="translate(-3.333)" style="fill:#fff;fill-rule:evenodd"/><path d="M103.634,35.536a27.1,27.1,0,0,0,2.109,5.642c0.626,1.316,2.211,3.468,2.709,4.607a16.124,16.124,0,0,0,.507-7.138,16.066,16.066,0,0,0-3.124-7.81,34.715,34.715,0,0,0-3.783-4.371C102.56,28.386,103.089,33.189,103.634,35.536Zm4.818,18.78c-0.824,3.415-.535,6.3-0.976,8.226a9.816,9.816,0,0,0,2.969-2.293,11.618,11.618,0,0,0,2.648-5.061A18.289,18.289,0,0,0,113.3,48.5a32.423,32.423,0,0,0-1.268-5.348C111.69,46.024,109.577,49.653,108.452,54.316Zm-8.48-.843c0.125,1.019.228,2.469,0.412,4.084a28.316,28.316,0,0,0,1,5.164,27.139,27.139,0,0,0,4.235,7.524,16.015,16.015,0,0,0-.2-9.857A20.381,20.381,0,0,0,99.972,53.473Zm7.859,16.79a23.336,23.336,0,0,0-3.452,7.939,10.068,10.068,0,0,0,3.7-1.254,12.009,12.009,0,0,0,4.314-4.125,18.986,18.986,0,0,0,2.418-6.565,33.288,33.288,0,0,0,.5-5.717C114.03,63.272,109.644,67.572,107.831,70.263Zm-8.193-2.845c-0.156,1.05-.457,2.52-0.726,4.173a29.935,29.935,0,0,0-.468,5.4,19.4,19.4,0,0,0,.9,5.246,17.3,17.3,0,0,0,1.52,3.587c0.941-1.441,2.515-3.754,2.206-8.842A17.862,17.862,0,0,0,99.638,67.419Zm3.188,18.517a60.986,60.986,0,0,0-6.946,6.7,10.408,10.408,0,0,0,4.069.086,12.43,12.43,0,0,0,5.689-2.537,19.615,19.615,0,0,0,4.679-5.639,34.011,34.011,0,0,0,2.459-5.5C111.687,80.186,105.919,83.6,102.827,85.935Zm-6.976-5.643c-0.566.938-1.439,2.217-2.361,3.682a31.74,31.74,0,0,0-2.633,4.953A20.439,20.439,0,0,0,89.563,94.3a18.3,18.3,0,0,0-.04,4.053,14.386,14.386,0,0,0,5.8-7.783C96.73,85.836,95.859,81.533,95.851,80.293Zm-40.087,30.5q0.625-.356,1.257-0.674c0.789-.395,1.525-0.755,2.226-1.087a19.472,19.472,0,0,0-6.843-1.945,36.681,36.681,0,0,0-11.3,1.475,23.565,23.565,0,0,1-11.823-.2s8.224,5.532,14.374,5.467c5.345-.056,6.965-1.831,10.4-2.753A8.953,8.953,0,0,1,55.764,110.793Zm8.262,0.775a8.709,8.709,0,0,0-2.837.49,20.134,20.134,0,0,1,6.061,5.363q2.118-.272,4.2-0.708a48.73,48.73,0,0,0-7.039-5.134C64.28,111.574,64.152,111.568,64.026,111.568ZM79.3,108.561A36.679,36.679,0,0,0,68,107.086c-2.885.185-5.587,1.229-10.621,3.745a44.473,44.473,0,0,0-8.41,5.872q2.068,0.437,4.191.711c2.134-2.749,7.113-7.963,13.183-6.337,3.437,0.922,5.058,2.7,10.4,2.753,6.15,0.065,14.375-5.467,14.375-5.467A23.565,23.565,0,0,1,79.3,108.561ZM100.4,97.218c-1.051.391-5.62,1.46-9.445,3.035a41.541,41.541,0,0,0-7.568,4.394,10.7,10.7,0,0,0,4.068,1.2,12.833,12.833,0,0,0,6.428-1.033,20.251,20.251,0,0,0,6.232-4.48,34.639,34.639,0,0,0,3.924-4.94A19.461,19.461,0,0,1,100.4,97.218ZM87.5,91.086c-0.855.736-2.12,1.708-3.5,2.839a33.753,33.753,0,0,0-4.19,3.975,21.947,21.947,0,0,0-3.073,4.824,19.622,19.622,0,0,0-1.442,3.963,20.223,20.223,0,0,0,8.079-4.865,12.675,12.675,0,0,0,2.6-5.022A58.749,58.749,0,0,0,87.5,91.086ZM99.89,38.78c0.156,1.048.3,2.541,0.535,4.2a28.786,28.786,0,0,0,1.172,5.277,18.574,18.574,0,0,0,2.447,4.669,19.2,19.2,0,0,0,2.393,3.021c0.257-1.281.948-5.608-.375-9.241a10.645,10.645,0,0,0-2.5-4.134A44.7,44.7,0,0,1,99.89,38.78ZM18.24,26.466a34.734,34.734,0,0,0-3.782,4.371,16.056,16.056,0,0,0-3.125,7.81,16.132,16.132,0,0,0,.507,7.138c0.5-1.139,2.083-3.291,2.709-4.607a27.153,27.153,0,0,0,2.109-5.642C17.2,33.189,17.732,28.386,18.24,26.466ZM8.256,43.153A32.265,32.265,0,0,0,6.988,48.5,18.289,18.289,0,0,0,7.2,55.189a11.614,11.614,0,0,0,2.649,5.061,9.816,9.816,0,0,0,2.969,2.293c-0.442-1.926-.153-4.811-0.976-8.226C10.715,49.653,8.6,46.024,8.256,43.153Zm6.62,17.235a16.008,16.008,0,0,0-.2,9.857,27.183,27.183,0,0,0,4.236-7.524,28.267,28.267,0,0,0,1-5.164c0.184-1.615.287-3.065,0.412-4.084A20.381,20.381,0,0,0,14.876,60.389Zm-9.892.153a33.432,33.432,0,0,0,.5,5.717A18.961,18.961,0,0,0,7.9,72.824a12,12,0,0,0,4.313,4.125,10.078,10.078,0,0,0,3.7,1.254,23.326,23.326,0,0,0-3.452-7.939C10.648,67.572,6.263,63.272,4.984,60.542ZM17.223,76.984c-0.309,5.088,1.265,7.4,2.206,8.842a17.273,17.273,0,0,0,1.52-3.587,19.409,19.409,0,0,0,.9-5.246,29.981,29.981,0,0,0-.468-5.4c-0.269-1.653-.569-3.123-0.725-4.173A17.849,17.849,0,0,0,17.223,76.984ZM7.515,79.041a33.976,33.976,0,0,0,2.46,5.5,19.6,19.6,0,0,0,4.678,5.639,12.429,12.429,0,0,0,5.69,2.537,10.409,10.409,0,0,0,4.069-.086,61.009,61.009,0,0,0-6.947-6.7C14.372,83.6,8.605,80.186,7.515,79.041Zm17.45,11.527a14.386,14.386,0,0,0,5.8,7.783,18.308,18.308,0,0,0-.041-4.053,20.477,20.477,0,0,0-1.293-5.371A31.79,31.79,0,0,0,26.8,83.974c-0.922-1.465-1.795-2.744-2.361-3.682C24.434,81.533,23.562,85.836,24.965,90.568ZM16.249,95.4a34.691,34.691,0,0,0,3.925,4.94,20.249,20.249,0,0,0,6.232,4.48,12.833,12.833,0,0,0,6.428,1.033,10.7,10.7,0,0,0,4.069-1.2,41.526,41.526,0,0,0-7.569-4.394c-3.825-1.575-8.394-2.644-9.445-3.035A19.478,19.478,0,0,1,16.249,95.4Zm18.069,1.4a12.657,12.657,0,0,0,2.6,5.022,20.212,20.212,0,0,0,8.079,4.865,19.66,19.66,0,0,0-1.443-3.963A21.943,21.943,0,0,0,40.477,97.9a33.788,33.788,0,0,0-4.19-3.975c-1.376-1.131-2.642-2.1-3.5-2.839A58.769,58.769,0,0,0,34.318,96.8ZM16.733,42.569a10.651,10.651,0,0,0-2.5,4.134c-1.323,3.633-.631,7.961-0.375,9.241a19.142,19.142,0,0,0,2.393-3.021,18.542,18.542,0,0,0,2.447-4.669,28.833,28.833,0,0,0,1.173-5.277c0.233-1.658.378-3.15,0.534-4.2A44.485,44.485,0,0,1,16.733,42.569Z" transform="translate(-3.333)" style="fill:#e7af18"/><path d="M42.2,18.226H36.82V32.383H33.366V15.478h9.219Zm7.739,3.552A30.512,30.512,0,0,1,51,25.183a31.774,31.774,0,0,1,1.216-4.111l1.971-5.594h3.575L53.34,27.373c-0.948,2.554-1.265,3.551-1.9,4.257a5.094,5.094,0,0,1-2.992,1.337l-1.07.17L46.748,30.68l0.414-.121a3.643,3.643,0,0,0,1.265-.535,3.726,3.726,0,0,0,1.459-2.068l0.292-.778-1.654.219L43.878,15.478H47.6Zm20.8-4.354A9.781,9.781,0,0,1,72.8,23.943a9.8,9.8,0,0,1-2.067,6.495,7.287,7.287,0,0,1-10.508,0,9.8,9.8,0,0,1-2.067-6.495,9.781,9.781,0,0,1,2.067-6.519A7.286,7.286,0,0,1,70.734,17.424Zm-8.027,2.165c-0.316.633-.7,1.654-0.7,4.355,0,2.676.389,3.7,0.7,4.33a3.036,3.036,0,0,0,5.546,0c0.316-.633.706-1.654,0.706-4.33,0-2.7-.39-3.722-0.706-4.355A3.036,3.036,0,0,0,62.706,19.588Zm18.1-4.11a5.725,5.725,0,0,1,4.184,1.216,3.921,3.921,0,0,1,1.362,3.017,3.764,3.764,0,0,1-1.143,2.822,4.08,4.08,0,0,1-1.558.875,4.414,4.414,0,0,1,1.873.949,3.953,3.953,0,0,1,1.483,3.308c0,2.627-1.7,4.719-5.132,4.719H75.087V15.478H80.8ZM78.443,22.24H80.73a1.915,1.915,0,0,0,1.581-.56,2.091,2.091,0,0,0,.487-1.386,1.769,1.769,0,0,0-.974-1.7,3.624,3.624,0,0,0-1.411-.219H78.443V22.24ZM80.9,29.61a1.959,1.959,0,0,0,1.8-.827,2.72,2.72,0,0,0,.462-1.532,2.394,2.394,0,0,0-.633-1.7,2.248,2.248,0,0,0-1.63-.51H78.492V29.61H80.9Z" transform="translate(-3.333)" style="fill:#222220;fill-rule:evenodd"/><path d="M86.577,62.354l-8.8,8.8-2.932-2.933-8.8,8.8,2.932,2.932-8.8,8.8-8.8-8.8,2.932-2.932h0l-8.8-8.8v0l-2.932,2.932-8.8-8.8,8.8-8.8,2.932,2.932,2.754-2.754,2.916,2.95-4.2,4.2-2.931-2.933-4.4,4.4,4.4,4.4,2.933-2.933L58.72,75.55l-2.932,2.933,4.4,4.4,4.4-4.4L61.652,75.55l11.73-11.729,2.933,2.933h0l4.4-4.4-4.4-4.4-2.934,2.932-4.2-4.2,2.915-2.95,2.754,2.754,2.932-2.933ZM54.323,47.692h0l-2.754,2.754,2.949,2.915,4.2-4.2-2.932-2.932,4.4-4.4,4.4,4.4-2.932,2.932,4.2,4.2L68.8,50.446l-2.753-2.754,2.933-2.932-8.8-8.8-8.8,8.8,2.933,2.932h0Z" transform="translate(-3.333)" style="fill:#e7af18;fill-rule:evenodd"/><path d="M38.578,55.346a27.01,27.01,0,0,1-7.487-7.487l7.257-4.052,3.382-3.381,4.281,4.282L42.629,48.09Zm45.849-9.029a1.827,1.827,0,0,1-2.393-2.393l-3.371-3.37a9,9,0,0,0-3.492-1.7,12.674,12.674,0,0,0-3.985-.263l0.138,1.39s2.2-.2,3.221,1.186a3.825,3.825,0,0,1,.586,2.92l3.451,3.452a1.815,1.815,0,0,1,2.23,2.23l2.535,1.9,2.9-2.9Zm-46.02-3.7,2.044-2.044-0.222-.22A1.444,1.444,0,0,0,38.188,42.4ZM59.619,59.527L45.892,45.955l-2.1,2.105,13.56,13.715Zm8.513,8.417-5.1-5.041-2.285,2.311L65.776,70.3Zm11.115,10.99-7.033-6.953-2.4,2.4,6.954,7.032A1.754,1.754,0,1,0,79.247,78.934ZM48.158,71.981l-7.032,6.953a1.754,1.754,0,1,0,2.481,2.48l6.953-7.032ZM81.911,42.674l0.274-.277a1.444,1.444,0,0,0-2.042-2.041l-0.277.273Zm-6.732,2.59L52.242,67.944,54.6,70.3,77.277,47.362Z" transform="translate(-3.333)" style="fill:#b1b1b0"/><path d="M77.277,47.362L54.6,70.3l-0.634-.634L74.846,48.545l0,0a2.849,2.849,0,0,0,.331-3.278l2.1,2.1h0ZM39.042,41.985l-0.854-.863a1.427,1.427,0,0,1-.267-0.377,1.446,1.446,0,0,0,.267,1.653l0.22,0.222Zm3.587,6.1,3.382-3.382s-2.245,1.9-3.809.474l-2.6-2.629-1.254,1.254,3.033,3.055c0.458,0.458,1.325.817-.846,4.98Zm3.263-2.135-2.1,2.105,13.56,13.715,0.638-.631-11.665-11.8A2.657,2.657,0,0,1,45.892,45.955ZM82.186,42.4a1.446,1.446,0,0,0,.267-1.652,1.452,1.452,0,0,1-.267.377l-0.909.919,0.635,0.634ZM79.247,80.139a1.755,1.755,0,0,1-2.481,0l-6.319-6.391-0.635.634,6.954,7.032a1.754,1.754,0,0,0,2.874-1.878A1.75,1.75,0,0,1,79.247,80.139ZM82.9,49.361a2.088,2.088,0,0,1-.237-1.579,2.1,2.1,0,0,1-1.675-2.83,3.574,3.574,0,0,1-3.646.488,8.181,8.181,0,0,1-2.161-1.315l-0.049-.037,3.451,3.452a1.815,1.815,0,0,1,2.23,2.23l2.535,1.9,0.711-.711ZM63.316,66.536c-1.5-1.5.219-3.132,0.219-3.132l-0.5-.5-2.285,2.311h0L65.776,70.3l0.634-.634-3.094-3.13h0Zm-19.709,13.6a1.755,1.755,0,0,1-2.48,0,1.732,1.732,0,0,1-.394-0.6,1.754,1.754,0,0,0,2.874,1.878l6.953-7.032-0.634-.634Z" transform="translate(-3.333)" style="fill:#222220"/><path d="M58.72,49.159l-4.4-1.467L51.39,44.76l4.4,1.466ZM74.848,56.49l-1.466,4.4,2.933-2.932,1.466-4.4Zm5.865,5.865-4.4,4.4-2.933-2.933,1.466,4.4,2.933,2.933,8.8-8.8H80.713ZM60.186,35.963l0,5.865,4.4,4.4h0l-2.932,2.932,4.4-1.466,2.933-2.933Zm5.866,41.054-4.4-1.467,2.934,2.933,4.4,1.466ZM42.592,53.558l1.467,4.4,2.931,2.933-1.466-4.4Zm13.2,24.925h0L58.72,75.55l-4.4,1.467L51.39,79.949l8.8,8.8V82.881ZM44.059,66.753l-4.4-4.4H33.795l8.8,8.8,2.932-2.932,1.467-4.4Z" transform="translate(-3.333)" style="fill:#9d7b13"/></svg>