<?xml version="1.0" encoding="utf-8"?>
<!-- Generator: Adobe Illustrator 21.0.2, SVG Export Plug-In . SVG Version: 6.00 Build 0)  -->
<svg version="1.1"
	 id="svg3813" inkscape:version="0.92.1 r15371" sodipodi:docname="facebookhover.svg" xmlns:cc="http://creativecommons.org/ns#" xmlns:dc="http://purl.org/dc/elements/1.1/" xmlns:inkscape="http://www.inkscape.org/namespaces/inkscape" xmlns:osb="http://www.openswatchbook.org/uri/2009/osb" xmlns:rdf="http://www.w3.org/1999/02/22-rdf-syntax-ns#" xmlns:sodipodi="http://sodipodi.sourceforge.net/DTD/sodipodi-0.dtd" xmlns:svg="http://www.w3.org/2000/svg"
	 xmlns="http://www.w3.org/2000/svg" xmlns:xlink="http://www.w3.org/1999/xlink" x="0px" y="0px" viewBox="0 0 304.4 304.4"
	 style="enable-background:new 0 0 304.4 304.4;" xml:space="preserve">
<style type="text/css">
	.st0{fill:#FFFFFF;stroke:#FFFFFF;stroke-width:5.5628;}
	.st1{fill:#FFFFFF;fill-opacity:0;}
	.st2{fill:none;}
	.st3{stroke:#FFFFFF;stroke-width:0.4137;stroke-opacity:0;}
	.st4{fill:#FFFFFF;fill-opacity:0;stroke:#FFFFFF;stroke-width:0.35;stroke-opacity:0;}
</style>
<sodipodi:namedview  bordercolor="#666666" borderopacity="1" gridtolerance="10" guidetolerance="10" id="namedview3815" inkscape:current-layer="svg3813" inkscape:cx="388.34989" inkscape:cy="150.19549" inkscape:pageopacity="0" inkscape:pageshadow="2" inkscape:window-height="1017" inkscape:window-maximized="1" inkscape:window-width="1920" inkscape:window-x="-8" inkscape:window-y="-8" inkscape:zoom="1.4142136" objecttolerance="10" pagecolor="#ffffff" showgrid="false">
	</sodipodi:namedview>
<g id="g3811" transform="matrix(1.2806768,0,0,1.2532709,-38.137208,-47.743852)">
	<title  id="title3808" style="stroke:url(#linearGradient4746)">Layer 1</title>
	<ellipse id="svg_1" class="st0" cx="148.7" cy="159.7" rx="116" ry="118.5"/>
</g>
<path id="path4750" inkscape:connector-curvature="0" class="st1" d="M403.7,203.3c-19.7-3.1-34-16.3-50.5-46.8
	c-5.4-9.9-14.3-29.5-14.8-32.3c-0.6-3.6,0.5-3.8,14.1-3.8c12.1,0,12.1,0,13.7,1.6c0.9,0.9,2.8,4.5,4.3,8.1c4.9,11.7,12.8,25,16.5,28
	c2.5,1.9,4.7,1.5,6.3-1.2c1-1.8,1.3-3.8,1.6-10.4c0.6-17.5-0.8-22-7.9-24.2c-1.2-0.4-1.1-0.6,1.1-2.6l2.4-2.2h13.9
	c13.9,0,13.9,0,15.5,1.6l1.6,1.6l0,15.7c0,15.8,0.4,19.7,2.4,22c1.7,1.9,3.7,1.4,6.5-1.8c5.2-5.7,11.5-16.8,16.7-29.8
	c1.7-4.2,2.5-5.4,3.9-6c1.2-0.5,6-0.7,15.1-0.6c12.6,0.2,13.4,0.3,14.7,1.6c1.1,1.1,1.3,1.8,1,3.6c-0.8,4.2-4.8,11.2-13.8,24.3
	c-5,7.2-9.2,13.9-9.5,14.9c-0.6,2.9,0.7,5.1,7.1,11.8c12.3,12.8,17,19.7,16.1,23.7c-0.8,3.6-1.9,3.9-15.4,3.9
	c-7.5,0-13.2-0.3-14.7-0.8c-3.2-1-7-4.3-13.7-12.1c-3-3.5-6.3-6.6-7.4-7.1c-4.4-1.8-7.3,2.1-8.3,11.6c-0.8,7.5-1.5,8-9.3,8.2
	C409.7,203.7,405.5,203.6,403.7,203.3L403.7,203.3z"/>
<path id="path4752" inkscape:connector-curvature="0" class="st1" d="M403.7,203.3c-19.7-3.1-34-16.3-50.5-46.8
	c-5.4-9.9-14.3-29.5-14.8-32.3c-0.6-3.6,0.5-3.8,14.1-3.8c12.1,0,12.1,0,13.7,1.6c0.9,0.9,2.8,4.5,4.3,8.1c4.9,11.7,12.8,25,16.5,28
	c2.5,1.9,4.7,1.5,6.3-1.2c1-1.8,1.3-3.8,1.6-10.4c0.6-17.5-0.8-22-7.9-24.2c-1.2-0.4-1.1-0.6,1.1-2.6l2.4-2.2h13.9
	c13.9,0,13.9,0,15.5,1.6l1.6,1.6l0,15.7c0,15.8,0.4,19.7,2.4,22c1.7,1.9,3.7,1.4,6.5-1.8c5.2-5.7,11.5-16.8,16.7-29.8
	c1.7-4.2,2.5-5.4,3.9-6c1.2-0.5,6-0.7,15.1-0.6c12.6,0.2,13.4,0.3,14.7,1.6c1.1,1.1,1.3,1.8,1,3.6c-0.8,4.2-4.8,11.2-13.8,24.3
	c-5,7.2-9.2,13.9-9.5,14.9c-0.6,2.9,0.7,5.1,7.1,11.8c12.3,12.8,17,19.7,16.1,23.7c-0.8,3.6-1.9,3.9-15.4,3.9
	c-7.5,0-13.2-0.3-14.7-0.8c-3.2-1-7-4.3-13.7-12.1c-3-3.5-6.3-6.6-7.4-7.1c-4.4-1.8-7.3,2.1-8.3,11.6c-0.8,7.5-1.5,8-9.3,8.2
	C409.7,203.7,405.5,203.6,403.7,203.3L403.7,203.3z"/>
<path id="path4856" inkscape:connector-curvature="0" class="st1" d="M403.7,203.3c-19.7-3.1-34-16.3-50.5-46.8
	c-5.4-9.9-14.3-29.5-14.8-32.3c-0.6-3.6,0.5-3.8,14.1-3.8c12.1,0,12.1,0,13.7,1.6c0.9,0.9,2.8,4.5,4.3,8.1c4.9,11.7,12.8,25,16.5,28
	c2.5,1.9,4.7,1.5,6.3-1.2c1-1.8,1.3-3.8,1.6-10.4c0.6-17.5-0.8-22-7.9-24.2c-1.2-0.4-1.1-0.6,1.1-2.6l2.4-2.2h13.9
	c13.9,0,13.9,0,15.5,1.6l1.6,1.6l0,15.7c0,15.8,0.4,19.7,2.4,22c1.7,1.9,3.7,1.4,6.5-1.8c5.2-5.7,11.5-16.8,16.7-29.8
	c1.7-4.2,2.5-5.4,3.9-6c1.2-0.5,6-0.7,15.1-0.6c12.6,0.2,13.4,0.3,14.7,1.6c1.1,1.1,1.3,1.8,1,3.6c-0.8,4-4.7,11.1-12.2,21.9
	c-4.1,5.9-7.5,11.1-7.5,11.4s-0.3,0.7-0.6,0.7s-1.2,1.3-2,2.9c-2.2,4.4-1.5,5.9,6,13.8c12.7,13.4,17.1,19.9,16.3,23.9
	c-0.8,3.6-1.9,3.9-15.4,3.9c-7.5,0-13.2-0.3-14.7-0.8c-3.2-1-7-4.3-13.7-12.1c-3-3.5-6.3-6.6-7.4-7.1c-4.4-1.8-7.3,2.1-8.3,11.6
	c-0.8,7.5-1.5,8-9.3,8.2C409.7,203.7,405.5,203.6,403.7,203.3L403.7,203.3z"/>
<path id="path4858" inkscape:connector-curvature="0" class="st1" d="M403.7,203.3c-19.7-3.1-34-16.3-50.5-46.8
	c-5.4-9.9-14.3-29.5-14.8-32.3c-0.6-3.6,0.5-3.8,14.1-3.8c12.1,0,12.1,0,13.7,1.6c0.9,0.9,2.8,4.5,4.3,8.1c4.9,11.7,12.8,25,16.5,28
	c2.5,1.9,4.7,1.5,6.3-1.2c1-1.8,1.3-3.8,1.6-10.4c0.6-17.5-0.8-22-7.9-24.2c-1.2-0.4-1.1-0.6,1.1-2.6l2.4-2.2h13.9
	c13.9,0,13.9,0,15.5,1.6l1.6,1.6l0,15.7c0,15.8,0.4,19.7,2.4,22c1.7,1.9,3.7,1.4,6.5-1.8c5.2-5.7,11.5-16.8,16.7-29.8
	c1.7-4.2,2.5-5.4,3.9-6c1.2-0.5,6-0.7,15.1-0.6c12.6,0.2,13.4,0.3,14.7,1.6c1.1,1.1,1.3,1.8,1,3.6c-0.8,4.2-4.8,11.2-13.8,24.3
	c-5,7.2-9.2,13.9-9.5,14.9c-0.6,2.9,0.7,5.1,7.1,11.8c12.3,12.8,17,19.7,16.1,23.7c-0.8,3.6-1.9,3.9-15.4,3.9
	c-7.5,0-13.2-0.3-14.7-0.8c-3.2-1-7-4.3-13.7-12.1c-3-3.5-6.3-6.6-7.4-7.1c-4.4-1.8-7.3,2.1-8.3,11.6c-0.8,7.5-1.5,8-9.3,8.2
	C409.7,203.7,405.5,203.6,403.7,203.3L403.7,203.3z"/>
<path id="path4860" inkscape:connector-curvature="0" class="st1" d="M403.7,203.3c-19.7-3.1-34-16.3-50.5-46.8
	c-5.4-9.9-14.3-29.5-14.8-32.3c-0.6-3.6,0.5-3.8,14.1-3.8c12.1,0,12.1,0,13.7,1.6c0.9,0.9,2.8,4.5,4.3,8.1c4.9,11.7,12.8,25,16.5,28
	c2.5,1.9,4.7,1.5,6.3-1.2c1-1.8,1.3-3.8,1.6-10.4c0.6-17.5-0.8-22-7.9-24.2c-1.2-0.4-1.1-0.6,1.1-2.6l2.4-2.2h13.9
	c13.9,0,13.9,0,15.5,1.6l1.6,1.6l0,15.7c0,15.8,0.4,19.7,2.4,22c1.7,1.9,3.7,1.4,6.5-1.8c5.2-5.7,11.5-16.8,16.7-29.8
	c1.7-4.2,2.5-5.4,3.9-6c1.2-0.5,6-0.7,15.1-0.6c12.6,0.2,13.4,0.3,14.7,1.6c1.1,1.1,1.3,1.8,1,3.6c-0.8,4.2-4.8,11.2-13.8,24.3
	c-5,7.2-9.2,13.9-9.5,14.9c-0.6,2.9,0.7,5.1,7.1,11.8c12.3,12.8,17,19.7,16.1,23.7c-0.8,3.6-1.9,3.9-15.4,3.9
	c-7.5,0-13.2-0.3-14.7-0.8c-3.2-1-7-4.3-13.7-12.1c-3-3.5-6.3-6.6-7.4-7.1c-4.4-1.8-7.3,2.1-8.3,11.6c-0.8,7.5-1.5,8-9.3,8.2
	C409.7,203.7,405.5,203.6,403.7,203.3L403.7,203.3z"/>
<rect id="rect6342" x="337.6" y="117.2" class="st2" width="144.4" height="87.3"/>
<path id="path7742" inkscape:connector-curvature="0" class="st3" d="M186.6,132.1h-26.7v-18.9c0-5.8,6.2-7.2,9.1-7.2
	c2.9,0,17.2,0,17.2,0V80.5l-19.8-0.1c-27,0-33.1,19.1-33.1,31.3v20.5h-19.6v26.3h19.6c0,33.8,0,71.1,0,71.1h26.6c0,0,0-37.7,0-71.1
	h22.6L186.6,132.1z"/>
<path id="path8360" inkscape:connector-curvature="0" class="st4" d="M404.1,197.8v-35.5h-9.8h-9.8v-13v-13h9.7h9.7l0.2-13.1
	c0.3-14.5,0.6-16.9,3.6-22.9c3.3-6.6,9-11.4,16.4-13.8c3.9-1.3,4.4-1.3,18.2-1.5l14.1-0.2v12.5v12.5l-10.1,0.2
	c-9.4,0.2-10.3,0.2-12.2,1.3c-3.4,1.8-3.6,2.6-3.6,14.6v10.5h13.3h13.3l-0.2,1.1c-0.3,1.5-3.8,23.8-3.8,24.4c0,0.3-4.3,0.5-11.3,0.5
	h-11.3v35.5v35.5h-13.3h-13.3V197.8z"/>
</svg>
