<?xml version="1.0" encoding="utf-8"?>
<!-- Generator: Adobe Illustrator 21.0.2, SVG Export Plug-In . SVG Version: 6.00 Build 0)  -->
<svg version="1.1"
	 id="svg3813" inkscape:version="0.92.1 r15371" sodipodi:docname="instagramhover.svg" xmlns:cc="http://creativecommons.org/ns#" xmlns:dc="http://purl.org/dc/elements/1.1/" xmlns:inkscape="http://www.inkscape.org/namespaces/inkscape" xmlns:osb="http://www.openswatchbook.org/uri/2009/osb" xmlns:rdf="http://www.w3.org/1999/02/22-rdf-syntax-ns#" xmlns:sodipodi="http://sodipodi.sourceforge.net/DTD/sodipodi-0.dtd" xmlns:svg="http://www.w3.org/2000/svg"
	 xmlns="http://www.w3.org/2000/svg" xmlns:xlink="http://www.w3.org/1999/xlink" x="0px" y="0px" viewBox="0 0 304.4 304.4"
	 style="enable-background:new 0 0 304.4 304.4;" xml:space="preserve">
<style type="text/css">
	.st0{fill:#FFFFFF;stroke:#FFFFFF;stroke-width:5.5628;}
	.st1{fill:#FFFFFF;fill-opacity:0;}
	.st2{fill:none;}
</style>
<sodipodi:namedview  bordercolor="#666666" borderopacity="1" gridtolerance="10" guidetolerance="10" id="namedview3815" inkscape:current-layer="svg3813" inkscape:cx="174.42403" inkscape:cy="175.82062" inkscape:pageopacity="0" inkscape:pageshadow="2" inkscape:snap-bbox="true" inkscape:snap-bbox-midpoints="true" inkscape:window-height="1017" inkscape:window-maximized="1" inkscape:window-width="1920" inkscape:window-x="-8" inkscape:window-y="-8" inkscape:zoom="2" objecttolerance="10" pagecolor="#ffffff" showgrid="false">
	</sodipodi:namedview>
<g id="g3811" transform="matrix(1.2806768,0,0,1.2532709,-38.222994,-47.915425)">
	<title  id="title3808" style="stroke:url(#linearGradient4746)">Layer 1</title>
	<ellipse id="svg_1" class="st0" cx="148.7" cy="159.7" rx="116" ry="118.5"/>
	<path id="path8598" inkscape:connector-curvature="0" d="M-50.7,236.4c-6.3-1-12.1-4.3-16.9-9.5c-3.1-3.4-5.1-6.9-6.4-11
		c-0.9-2.7-1-3.9-1-8.4c0-6,0.5-8.2,2.9-13c3-6,7.2-10,13.5-13.2c5.2-2.6,8.4-3.3,14.2-3c5.5,0.3,8.1,0.9,12.9,3.4
		c6.2,3.2,10.9,8.6,13.9,15.9c1,2.6,1.1,3.2,1.3,9c0.2,7-0.2,8.8-2.5,13.5c-3.7,7.4-9.5,12.5-17.4,15.2c-3,1-4.4,1.3-8,1.4
		C-46.5,236.7-49.5,236.6-50.7,236.4L-50.7,236.4z"/>
	<path id="path8600" inkscape:connector-curvature="0" d="M-50.7,236.4c-6.3-1-12.1-4.3-16.9-9.5c-3.1-3.4-5.1-6.9-6.4-11
		c-0.9-2.7-1-3.9-1-8.4c0-6,0.5-8.2,2.9-13c3-6,7.2-10,13.5-13.2c5.2-2.6,8.4-3.3,14.2-3c5.5,0.3,8.1,0.9,12.9,3.4
		c6.2,3.2,10.9,8.6,13.9,15.9c1,2.6,1.1,3.2,1.3,9c0.2,7-0.2,8.8-2.5,13.5c-3.7,7.4-9.5,12.5-17.4,15.2c-3,1-4.4,1.3-8,1.4
		C-46.5,236.7-49.5,236.6-50.7,236.4L-50.7,236.4z"/>
	<path id="path8602" inkscape:connector-curvature="0" d="M143.7,188.6c-6.3-1-12.1-4.3-16.9-9.5c-3.1-3.4-5.1-6.9-6.4-11
		c-0.9-2.7-1-3.9-1-8.4c0-6,0.5-8.2,2.9-13c3-6,7.2-10,13.5-13.2c5.2-2.6,8.4-3.3,14.2-3c5.5,0.3,8.1,0.9,12.9,3.4
		c6.2,3.2,10.9,8.6,13.9,15.9c1,2.6,1.1,3.2,1.3,9c0.2,7-0.2,8.8-2.5,13.5c-3.7,7.4-9.5,12.5-17.4,15.2c-3,1-4.4,1.3-8,1.4
		C147.8,188.9,144.9,188.8,143.7,188.6z"/>
	<path id="path8604" inkscape:connector-curvature="0" d="M178.6,135.4c-4.9-2.6-5.3-9.4-0.8-12.6c1.4-1,2.1-1.2,4.1-1.2
		c2,0,2.7,0.2,4.1,1.2c3.1,2.2,4.1,6,2.5,9.2C186.6,135.7,182,137.2,178.6,135.4z"/>
</g>
<path id="path4750" inkscape:connector-curvature="0" class="st1" d="M403.7,203.3c-19.7-3.1-34-16.3-50.5-46.8
	c-5.4-9.9-14.3-29.5-14.8-32.3c-0.6-3.6,0.5-3.8,14.1-3.8c12.1,0,12.1,0,13.7,1.6c0.9,0.9,2.8,4.5,4.3,8.1c4.9,11.7,12.8,25,16.5,28
	c2.5,1.9,4.7,1.5,6.3-1.2c1-1.8,1.3-3.8,1.6-10.4c0.6-17.5-0.8-22-7.9-24.2c-1.2-0.4-1.1-0.6,1.1-2.6l2.4-2.2h13.9
	c13.9,0,13.9,0,15.5,1.6l1.6,1.6l0,15.7c0,15.8,0.4,19.7,2.4,22c1.7,1.9,3.7,1.4,6.5-1.8c5.2-5.7,11.5-16.8,16.7-29.8
	c1.7-4.2,2.5-5.4,3.9-6c1.2-0.5,6-0.7,15.1-0.6c12.6,0.2,13.4,0.3,14.7,1.6c1.1,1.1,1.3,1.8,1,3.6c-0.8,4.2-4.8,11.2-13.8,24.3
	c-5,7.2-9.2,13.9-9.5,14.9c-0.6,2.9,0.7,5.1,7.1,11.8c12.3,12.8,17,19.7,16.1,23.7c-0.8,3.6-1.9,3.9-15.4,3.9
	c-7.5,0-13.2-0.3-14.7-0.8c-3.2-1-7-4.3-13.7-12.1c-3-3.5-6.3-6.6-7.4-7.1c-4.4-1.8-7.3,2.1-8.3,11.6c-0.8,7.5-1.5,8-9.3,8.2
	C409.7,203.7,405.5,203.6,403.7,203.3L403.7,203.3z"/>
<path id="path4752" inkscape:connector-curvature="0" class="st1" d="M403.7,203.3c-19.7-3.1-34-16.3-50.5-46.8
	c-5.4-9.9-14.3-29.5-14.8-32.3c-0.6-3.6,0.5-3.8,14.1-3.8c12.1,0,12.1,0,13.7,1.6c0.9,0.9,2.8,4.5,4.3,8.1c4.9,11.7,12.8,25,16.5,28
	c2.5,1.9,4.7,1.5,6.3-1.2c1-1.8,1.3-3.8,1.6-10.4c0.6-17.5-0.8-22-7.9-24.2c-1.2-0.4-1.1-0.6,1.1-2.6l2.4-2.2h13.9
	c13.9,0,13.9,0,15.5,1.6l1.6,1.6l0,15.7c0,15.8,0.4,19.7,2.4,22c1.7,1.9,3.7,1.4,6.5-1.8c5.2-5.7,11.5-16.8,16.7-29.8
	c1.7-4.2,2.5-5.4,3.9-6c1.2-0.5,6-0.7,15.1-0.6c12.6,0.2,13.4,0.3,14.7,1.6c1.1,1.1,1.3,1.8,1,3.6c-0.8,4.2-4.8,11.2-13.8,24.3
	c-5,7.2-9.2,13.9-9.5,14.9c-0.6,2.9,0.7,5.1,7.1,11.8c12.3,12.8,17,19.7,16.1,23.7c-0.8,3.6-1.9,3.9-15.4,3.9
	c-7.5,0-13.2-0.3-14.7-0.8c-3.2-1-7-4.3-13.7-12.1c-3-3.5-6.3-6.6-7.4-7.1c-4.4-1.8-7.3,2.1-8.3,11.6c-0.8,7.5-1.5,8-9.3,8.2
	C409.7,203.7,405.5,203.6,403.7,203.3L403.7,203.3z"/>
<path id="path4856" inkscape:connector-curvature="0" class="st1" d="M403.7,203.3c-19.7-3.1-34-16.3-50.5-46.8
	c-5.4-9.9-14.3-29.5-14.8-32.3c-0.6-3.6,0.5-3.8,14.1-3.8c12.1,0,12.1,0,13.7,1.6c0.9,0.9,2.8,4.5,4.3,8.1c4.9,11.7,12.8,25,16.5,28
	c2.5,1.9,4.7,1.5,6.3-1.2c1-1.8,1.3-3.8,1.6-10.4c0.6-17.5-0.8-22-7.9-24.2c-1.2-0.4-1.1-0.6,1.1-2.6l2.4-2.2h13.9
	c13.9,0,13.9,0,15.5,1.6l1.6,1.6l0,15.7c0,15.8,0.4,19.7,2.4,22c1.7,1.9,3.7,1.4,6.5-1.8c5.2-5.7,11.5-16.8,16.7-29.8
	c1.7-4.2,2.5-5.4,3.9-6c1.2-0.5,6-0.7,15.1-0.6c12.6,0.2,13.4,0.3,14.7,1.6c1.1,1.1,1.3,1.8,1,3.6c-0.8,4-4.7,11.1-12.2,21.9
	c-4.1,5.9-7.5,11.1-7.5,11.4s-0.3,0.7-0.6,0.7s-1.2,1.3-2,2.9c-2.2,4.4-1.5,5.9,6,13.8c12.7,13.4,17.1,19.9,16.3,23.9
	c-0.8,3.6-1.9,3.9-15.4,3.9c-7.5,0-13.2-0.3-14.7-0.8c-3.2-1-7-4.3-13.7-12.1c-3-3.5-6.3-6.6-7.4-7.1c-4.4-1.8-7.3,2.1-8.3,11.6
	c-0.8,7.5-1.5,8-9.3,8.2C409.7,203.7,405.5,203.6,403.7,203.3L403.7,203.3z"/>
<path id="path4858" inkscape:connector-curvature="0" class="st1" d="M403.7,203.3c-19.7-3.1-34-16.3-50.5-46.8
	c-5.4-9.9-14.3-29.5-14.8-32.3c-0.6-3.6,0.5-3.8,14.1-3.8c12.1,0,12.1,0,13.7,1.6c0.9,0.9,2.8,4.5,4.3,8.1c4.9,11.7,12.8,25,16.5,28
	c2.5,1.9,4.7,1.5,6.3-1.2c1-1.8,1.3-3.8,1.6-10.4c0.6-17.5-0.8-22-7.9-24.2c-1.2-0.4-1.1-0.6,1.1-2.6l2.4-2.2h13.9
	c13.9,0,13.9,0,15.5,1.6l1.6,1.6l0,15.7c0,15.8,0.4,19.7,2.4,22c1.7,1.9,3.7,1.4,6.5-1.8c5.2-5.7,11.5-16.8,16.7-29.8
	c1.7-4.2,2.5-5.4,3.9-6c1.2-0.5,6-0.7,15.1-0.6c12.6,0.2,13.4,0.3,14.7,1.6c1.1,1.1,1.3,1.8,1,3.6c-0.8,4.2-4.8,11.2-13.8,24.3
	c-5,7.2-9.2,13.9-9.5,14.9c-0.6,2.9,0.7,5.1,7.1,11.8c12.3,12.8,17,19.7,16.1,23.7c-0.8,3.6-1.9,3.9-15.4,3.9
	c-7.5,0-13.2-0.3-14.7-0.8c-3.2-1-7-4.3-13.7-12.1c-3-3.5-6.3-6.6-7.4-7.1c-4.4-1.8-7.3,2.1-8.3,11.6c-0.8,7.5-1.5,8-9.3,8.2
	C409.7,203.7,405.5,203.6,403.7,203.3L403.7,203.3z"/>
<path id="path4860" inkscape:connector-curvature="0" class="st1" d="M403.7,203.3c-19.7-3.1-34-16.3-50.5-46.8
	c-5.4-9.9-14.3-29.5-14.8-32.3c-0.6-3.6,0.5-3.8,14.1-3.8c12.1,0,12.1,0,13.7,1.6c0.9,0.9,2.8,4.5,4.3,8.1c4.9,11.7,12.8,25,16.5,28
	c2.5,1.9,4.7,1.5,6.3-1.2c1-1.8,1.3-3.8,1.6-10.4c0.6-17.5-0.8-22-7.9-24.2c-1.2-0.4-1.1-0.6,1.1-2.6l2.4-2.2h13.9
	c13.9,0,13.9,0,15.5,1.6l1.6,1.6l0,15.7c0,15.8,0.4,19.7,2.4,22c1.7,1.9,3.7,1.4,6.5-1.8c5.2-5.7,11.5-16.8,16.7-29.8
	c1.7-4.2,2.5-5.4,3.9-6c1.2-0.5,6-0.7,15.1-0.6c12.6,0.2,13.4,0.3,14.7,1.6c1.1,1.1,1.3,1.8,1,3.6c-0.8,4.2-4.8,11.2-13.8,24.3
	c-5,7.2-9.2,13.9-9.5,14.9c-0.6,2.9,0.7,5.1,7.1,11.8c12.3,12.8,17,19.7,16.1,23.7c-0.8,3.6-1.9,3.9-15.4,3.9
	c-7.5,0-13.2-0.3-14.7-0.8c-3.2-1-7-4.3-13.7-12.1c-3-3.5-6.3-6.6-7.4-7.1c-4.4-1.8-7.3,2.1-8.3,11.6c-0.8,7.5-1.5,8-9.3,8.2
	C409.7,203.7,405.5,203.6,403.7,203.3L403.7,203.3z"/>
<rect id="rect6342" x="337.6" y="117.2" class="st2" width="144.4" height="87.3"/>
<path id="path8586" inkscape:connector-curvature="0" d="M339.3,453.2c-10.7-1.6-19.8-9.6-22.4-19.8c-1.1-4.4-1.1-73.1,0-77.5
	c2.3-8.7,9.5-16.1,18.5-18.9c3.5-1.1,3.7-1.1,41.3-1.1h37.8l3.9,1.4c5,1.8,8.4,4,11.7,7.6c3.1,3.4,5.3,7.5,6.3,11.9
	c1.1,4.6,1.1,71.1,0,75.8c-1,4.4-3.2,8.5-6.3,11.9c-3.3,3.6-6.7,5.8-11.7,7.6l-3.9,1.4l-36.3,0.1
	C358.1,453.5,340.7,453.4,339.3,453.2z M385.2,430.9c2-0.4,6-1.9,8.8-3.3c4.6-2.2,5.8-3.1,9.8-7.1c3.8-3.8,4.9-5.3,6.9-9.3
	c1.3-2.6,2.7-6.2,3.1-8c1-4.1,1-12.8,0-16.9c-2.5-10.6-10-19.8-20-24.6c-6.9-3.3-11.2-4.2-19.2-3.9c-5.1,0.2-7.1,0.5-10.3,1.6
	c-12.4,4.2-21.7,14-25.1,26.3c-1.2,4.4-1.2,13.6,0,18c3.6,13.3,13.9,23.4,27.6,27C371.3,431.9,380.2,432,385.2,430.9z M420.5,364.7
	c4.8-2.5,6.8-7.6,4.7-12.3c-1.8-3.9-5.7-6.1-10.2-5.6c-5,0.6-8.4,4.3-8.4,9.3c0,4.2,2.2,7.5,6.1,9
	C414.6,365.9,418.5,365.7,420.5,364.7L420.5,364.7z"/>
<path id="path8592" inkscape:connector-curvature="0" d="M113,223.4c-8.6-1.2-17.6-5.9-23.7-12.4c-4.6-4.8-7.8-10.6-9.6-17.2l-1-3.5
	l-0.1-36.8c-0.1-33.2-0.1-37.1,0.5-40.1C82,97,95.2,84.1,112.4,81.2c2.5-0.4,8.8-0.5,39.5-0.5c24.1,0,37.5,0.1,39.2,0.4
	c16.1,2.2,29.3,13.9,33.7,29.6l0.9,3.4v38.2v38.2l-1,3.5c-3.6,13-13.5,23.4-26.4,27.8c-6.4,2.1-6.2,2.1-46.6,2.1
	C131.7,223.8,114.2,223.6,113,223.4L113,223.4z M192.6,210.6c8-2.4,14.5-7.7,17.9-14.5c2.8-5.8,2.7-3,2.7-43.8
	c0-40.9,0.2-38-2.6-43.8c-3.3-6.8-9.8-12.1-17.5-14.4l-2.8-0.8h-37.8h-37.8l-2.8,0.8c-10.4,3-18,11-19.9,21.2
	c-0.8,4-0.8,70.2,0,74.2c2.1,11.1,11.2,19.8,22.8,21.8c0.9,0.2,18.4,0.3,38.8,0.2C187.7,211.2,190.6,211.2,192.6,210.6L192.6,210.6z
	"/>
</svg>
