<?xml version="1.0" encoding="utf-8"?>
<!-- Generator: Adobe Illustrator 21.0.2, SVG Export Plug-In . SVG Version: 6.00 Build 0)  -->
<svg version="1.1"
	 id="Capa_1" inkscape:version="0.92.1 r15371" sodipodi:docname="instagramnohover.svg" xmlns:cc="http://creativecommons.org/ns#" xmlns:dc="http://purl.org/dc/elements/1.1/" xmlns:inkscape="http://www.inkscape.org/namespaces/inkscape" xmlns:rdf="http://www.w3.org/1999/02/22-rdf-syntax-ns#" xmlns:sodipodi="http://sodipodi.sourceforge.net/DTD/sodipodi-0.dtd" xmlns:svg="http://www.w3.org/2000/svg"
	 xmlns="http://www.w3.org/2000/svg" xmlns:xlink="http://www.w3.org/1999/xlink" x="0px" y="0px" viewBox="0 0 314.7 314.7"
	 style="enable-background:new 0 0 314.7 314.7;" xml:space="preserve">
<style type="text/css">
	.st0{fill:none;stroke:#FFFFFF;stroke-width:5.5628;}
	.st1{fill:#FFFFFF;}
</style>
<sodipodi:namedview  bordercolor="#666666" borderopacity="1" gridtolerance="10" guidetolerance="10" id="namedview8462" inkscape:bbox-nodes="false" inkscape:current-layer="Capa_1" inkscape:cx="276.38607" inkscape:cy="149.79444" inkscape:pageopacity="0" inkscape:pageshadow="2" inkscape:snap-bbox="true" inkscape:snap-bbox-edge-midpoints="false" inkscape:snap-bbox-midpoints="true" inkscape:window-height="1017" inkscape:window-maximized="1" inkscape:window-width="1920" inkscape:window-x="-8" inkscape:window-y="-8" inkscape:zoom="2.1214192" objecttolerance="10" pagecolor="#ffffff" showgrid="false">
	</sodipodi:namedview>
<g id="g8429" transform="translate(521.38569,28.047411)">
</g>
<g id="g8431">
</g>
<g id="g8433">
</g>
<g id="g8435">
</g>
<g id="g8437">
</g>
<g id="g8439">
</g>
<g id="g8441">
</g>
<g id="g8443">
</g>
<g id="g8445">
</g>
<g id="g8447">
</g>
<g id="g8449">
</g>
<g id="g8451">
</g>
<g id="g8453">
</g>
<g id="g8455">
</g>
<g id="g8457">
</g>
<g id="g8459">
</g>
<g id="g3811" transform="matrix(1.3199103,0,0,1.2959333,-38.918259,-49.108646)">
	<title  id="title3808">Layer 1</title>
	<ellipse id="svg_1" class="st0" cx="148.7" cy="159.7" rx="116" ry="118.5"/>
</g>
<g id="g8497" transform="matrix(0.87452996,0,0,0.84943595,83.401103,86.022304)">
	<path id="path8491" inkscape:connector-curvature="0" class="st1" d="M122.4,0H46.7C20.9,0,0,20.9,0,46.7v75.8
		c0,25.7,20.9,46.7,46.7,46.7h75.8c25.7,0,46.7-20.9,46.7-46.7V46.7C169.1,20.9,148.1,0,122.4,0z M154.1,122.4
		c0,17.5-14.2,31.7-31.7,31.7H46.7c-17.5,0-31.7-14.2-31.7-31.7V46.7C15,29.2,29.2,15,46.7,15h75.8c17.5,0,31.7,14.2,31.7,31.7
		L154.1,122.4L154.1,122.4z"/>
	<path id="path8493" inkscape:connector-curvature="0" class="st1" d="M84.5,41C60.5,41,41,60.5,41,84.5c0,24,19.5,43.6,43.6,43.6
		s43.6-19.5,43.6-43.6C128.1,60.5,108.6,41,84.5,41z M84.5,113.1c-15.7,0-28.6-12.8-28.6-28.6C56,68.8,68.8,56,84.5,56
		s28.6,12.8,28.6,28.6C113.1,100.3,100.3,113.1,84.5,113.1z"/>
	<path id="path8495" inkscape:connector-curvature="0" class="st1" d="M129.9,28.3c-2.9,0-5.7,1.2-7.8,3.2c-2.1,2-3.2,4.9-3.2,7.8
		c0,2.9,1.2,5.7,3.2,7.8c2,2,4.9,3.2,7.8,3.2c2.9,0,5.7-1.2,7.8-3.2c2.1-2,3.2-4.9,3.2-7.8c0-2.9-1.2-5.7-3.2-7.8
		C135.7,29.4,132.8,28.3,129.9,28.3z"/>
</g>
</svg>
