<?xml version="1.0" encoding="utf-8"?>
<!-- Generator: Adobe Illustrator 21.0.2, SVG Export Plug-In . SVG Version: 6.00 Build 0)  -->
<svg version="1.1"
	 id="svg3813" inkscape:version="0.92.1 r15371" sodipodi:docname="recallnohover.svg" xmlns:cc="http://creativecommons.org/ns#" xmlns:dc="http://purl.org/dc/elements/1.1/" xmlns:inkscape="http://www.inkscape.org/namespaces/inkscape" xmlns:rdf="http://www.w3.org/1999/02/22-rdf-syntax-ns#" xmlns:sodipodi="http://sodipodi.sourceforge.net/DTD/sodipodi-0.dtd" xmlns:svg="http://www.w3.org/2000/svg"
	 xmlns="http://www.w3.org/2000/svg" xmlns:xlink="http://www.w3.org/1999/xlink" x="0px" y="0px" viewBox="0 0 304.4 304.4"
	 style="enable-background:new 0 0 304.4 304.4;" xml:space="preserve">
<style type="text/css">
	.st0{fill:none;stroke:#FFFFFF;stroke-width:5.5628;}
	.st1{fill:#FFFFFF;}
</style>
<sodipodi:namedview  bordercolor="#666666" borderopacity="1" gridtolerance="10" guidetolerance="10" id="namedview3815" inkscape:current-layer="svg3813" inkscape:cx="86.822475" inkscape:cy="159.54503" inkscape:pageopacity="0" inkscape:pageshadow="2" inkscape:snap-bbox="true" inkscape:snap-bbox-midpoints="true" inkscape:window-height="1017" inkscape:window-maximized="1" inkscape:window-width="1920" inkscape:window-x="-8" inkscape:window-y="-8" inkscape:zoom="1.5507952" objecttolerance="10" pagecolor="#ffffff" showgrid="false">
	</sodipodi:namedview>
<g id="g3811" transform="matrix(1.2806768,0,0,1.2532709,-38.137208,-47.743852)">
	<title  id="title3808" style="stroke:url(#linearGradient4746)">Layer 1</title>
	<ellipse id="svg_1" class="st0" cx="148.7" cy="159.7" rx="116" ry="118.5"/>
</g>
<g id="g8608" transform="matrix(6.2968217,0,0,6.261059,64.118305,64.725487)">
	<path id="path8606" inkscape:connector-curvature="0" class="st1" d="M28,12.2c0,5.3-6.3,9.6-14,9.6c-0.2,0-0.3,0-0.5,0
		C9,26,2.6,25.4,2.6,25.4c3.3-0.7,4.7-2.5,5.3-4.5C3.2,19.3,0,16,0,12.2c0-5.3,6.3-9.6,14-9.6C21.7,2.6,28,6.9,28,12.2z"/>
</g>
</svg>
