<?xml version="1.0" encoding="utf-8"?>
<!-- Generator: Adobe Illustrator 21.0.2, SVG Export Plug-In . SVG Version: 6.00 Build 0)  -->
<svg version="1.1"
	 id="svg3813" inkscape:version="0.92.1 r15371" sodipodi:docname="vknohover.svg" xmlns:cc="http://creativecommons.org/ns#" xmlns:dc="http://purl.org/dc/elements/1.1/" xmlns:inkscape="http://www.inkscape.org/namespaces/inkscape" xmlns:rdf="http://www.w3.org/1999/02/22-rdf-syntax-ns#" xmlns:sodipodi="http://sodipodi.sourceforge.net/DTD/sodipodi-0.dtd" xmlns:svg="http://www.w3.org/2000/svg"
	 xmlns="http://www.w3.org/2000/svg" xmlns:xlink="http://www.w3.org/1999/xlink" x="0px" y="0px" viewBox="0 0 304.4 304.4"
	 style="enable-background:new 0 0 304.4 304.4;" xml:space="preserve">
<style type="text/css">
	.st0{fill:none;stroke:#FFFFFF;stroke-width:5.5628;}
	.st1{fill:#FFFFFF;}
</style>
<sodipodi:namedview  bordercolor="#666666" borderopacity="1" gridtolerance="10" guidetolerance="10" id="namedview3815" inkscape:current-layer="svg3813" inkscape:cx="86.822475" inkscape:cy="159.54503" inkscape:pageopacity="0" inkscape:pageshadow="2" inkscape:window-height="1017" inkscape:window-maximized="1" inkscape:window-width="1920" inkscape:window-x="-8" inkscape:window-y="-8" inkscape:zoom="1.5507952" objecttolerance="10" pagecolor="#ffffff" showgrid="false">
	</sodipodi:namedview>
<g id="g3811" transform="matrix(1.2806768,0,0,1.2532709,-38.137208,-47.743852)">
	<title  id="title3808" style="stroke:url(#linearGradient4746)">Layer 1</title>
	<ellipse id="svg_1" class="st0" cx="148.7" cy="159.7" rx="116" ry="118.5"/>
</g>
<g id="XMLID_1_" transform="matrix(0.47457624,0,0,0.50581948,74.800402,79.074393)" inkscape:transform-center-x="4.5138132" inkscape:transform-center-y="5.8034742">
	<path id="XMLID_807_" inkscape:connector-curvature="0" class="st1" d="M261.9,175.6c10.1,9.9,20.8,19.1,29.8,30
		c4,4.8,7.8,9.8,10.7,15.4c4.1,8,0.4,16.7-6.7,17.2l-44.3,0c-11.4,0.9-20.6-3.7-28.2-11.5c-6.1-6.3-11.8-12.9-17.7-19.4
		c-2.4-2.6-5-5.1-8-7.1c-6.1-3.9-11.3-2.7-14.8,3.6c-3.5,6.4-4.3,13.5-4.7,20.7c-0.5,10.4-3.6,13.2-14.1,13.7
		c-22.4,1.1-43.7-2.3-63.4-13.6c-17.4-10-30.9-24-42.7-40c-22.9-31-40.4-65.1-56.2-100.2c-3.5-7.9-1-12.1,7.8-12.3
		c14.5-0.3,28.9-0.3,43.4,0c5.9,0.1,9.8,3.5,12,9c7.8,19.2,17.4,37.6,29.4,54.5c3.2,4.5,6.5,9,11.1,12.2c5.1,3.5,9.1,2.4,11.5-3.4
		c1.5-3.6,2.2-7.5,2.6-11.4c1.1-13.4,1.3-26.7-0.7-40.1c-1.2-8.3-5.9-13.7-14.2-15.3c-4.2-0.8-3.6-2.4-1.6-4.8
		c3.6-4.2,6.9-6.8,13.6-6.8h50.1c7.9,1.6,9.6,5.1,10.7,13l0,55.7c-0.1,3.1,1.5,12.2,7.1,14.2c4.4,1.4,7.4-2.1,10-4.9
		c12-12.7,20.6-27.8,28.2-43.4c3.4-6.9,6.3-14,9.1-21.1c2.1-5.3,5.4-7.9,11.3-7.8l48.2,0c1.4,0,2.9,0,4.3,0.3
		c8.1,1.4,10.4,4.9,7.8,12.8c-4,12.5-11.6,22.8-19.2,33.3c-8,11.1-16.6,21.9-24.6,33.1C252.3,161.5,252.8,166.7,261.9,175.6
		L261.9,175.6z"/>
</g>
</svg>
