<?xml version="1.0" encoding="utf-8"?>
<!-- Generator: Adobe Illustrator 21.0.2, SVG Export Plug-In . SVG Version: 6.00 Build 0)  -->
<svg version="1.1"
	 id="Layer_1" inkscape:version="0.92.1 r15371" sodipodi:docname="youtubehover.svg" xmlns:cc="http://creativecommons.org/ns#" xmlns:dc="http://purl.org/dc/elements/1.1/" xmlns:inkscape="http://www.inkscape.org/namespaces/inkscape" xmlns:rdf="http://www.w3.org/1999/02/22-rdf-syntax-ns#" xmlns:sodipodi="http://sodipodi.sourceforge.net/DTD/sodipodi-0.dtd" xmlns:svg="http://www.w3.org/2000/svg"
	 xmlns="http://www.w3.org/2000/svg" xmlns:xlink="http://www.w3.org/1999/xlink" x="0px" y="0px" viewBox="0 0 310 310"
	 style="enable-background:new 0 0 310 310;" xml:space="preserve">
<style type="text/css">
	.st0{fill:#FFFFFF;}
	.st1{fill:#FFFFFF;stroke:#FFFFFF;stroke-width:5.5628;}
</style>
<sodipodi:namedview  bordercolor="#666666" borderopacity="1" gridtolerance="10" guidetolerance="10" id="namedview6435" inkscape:current-layer="Layer_1" inkscape:cx="63.850141" inkscape:cy="305.26447" inkscape:pageopacity="0" inkscape:pageshadow="2" inkscape:window-height="1017" inkscape:window-maximized="1" inkscape:window-width="1920" inkscape:window-x="-8" inkscape:window-y="-8" inkscape:zoom="1" objecttolerance="10" pagecolor="#ffffff" showgrid="false">
	</sodipodi:namedview>
<g id="XMLID_822_" transform="matrix(0.49152542,0,0,0.49424299,78.813559,78.392336)">
	<path id="XMLID_823_" inkscape:connector-curvature="0" class="st0" d="M297.9,64.6c-11.2-13.3-31.9-18.7-71.3-18.7H83.4
		C43,45.9,22,51.7,10.9,65.9C0,79.7,0,100,0,128.2v53.7c0,54.6,12.9,82.2,83.4,82.2h143.2c34.2,0,53.2-4.8,65.4-16.5
		c12.6-12,17.9-31.7,17.9-65.7v-53.7C310,98.5,309.2,78,297.9,64.6L297.9,64.6z M199,162.4l-65,34c-1.5,0.8-3,1.1-4.6,1.1
		c-1.8,0-3.6-0.5-5.2-1.4c-3-1.8-4.8-5.1-4.8-8.6v-67.8c0-3.5,1.8-6.7,4.8-8.5c3-1.8,6.7-1.9,9.8-0.3l65,33.8
		c3.3,1.7,5.4,5.1,5.4,8.9C204.4,157.3,202.3,160.7,199,162.4z"/>
</g>
<g id="g6404">
</g>
<g id="g6406">
</g>
<g id="g6408">
</g>
<g id="g6410">
</g>
<g id="g6412">
</g>
<g id="g6414">
</g>
<g id="g6416">
</g>
<g id="g6418">
</g>
<g id="g6420">
</g>
<g id="g6422">
</g>
<g id="g6424">
</g>
<g id="g6426">
</g>
<g id="g6428">
</g>
<g id="g6430">
</g>
<g id="g6432">
</g>
<g id="g3811" transform="matrix(1.3071296,0,0,1.2776332,-38.939975,-49.006313)">
	<title  id="title3808">Layer 1</title>
	<ellipse id="svg_1" class="st1" cx="148.7" cy="159.7" rx="116" ry="118.5"/>
</g>
<path id="path7069" inkscape:connector-curvature="0" class="st0" d="M115.2,208.8c-17.1-0.8-26.6-5.1-31.8-14.4
	c-1.4-2.6-2.8-6.7-3.5-10.8c-0.9-5.2-0.9-6.1-1-28.5c-0.1-25.8,0-29.5,1.3-35.1c1.3-5.9,4-10,8.3-12.9c4.3-2.9,9.6-4.4,19-5.4
	c2.5-0.3,6.8-0.3,45.2-0.4c29.5,0,43.5,0,45.9,0.1c13.3,0.8,20.7,3,25.5,7.9c4,4,5.8,9.1,6.7,18.5c0.3,3.2,0.4,41.6,0.2,46.7
	c-0.7,13.3-3.2,20.9-8.7,26.1c-4.7,4.6-10.7,6.7-21.7,7.9c-2.5,0.3-7.3,0.3-43.5,0.3C134.8,208.8,115.9,208.8,115.2,208.8
	L115.2,208.8z M144.4,175.6c1.6-0.7,32.6-17.1,33.1-17.5c0.3-0.3,0.9-1,1.2-1.6c0.6-1.1,0.6-1.2,0.5-2.5c-0.1-1.5-0.5-2.4-1.5-3.4
	c-0.9-0.8-33.2-17.7-34.4-18c-1-0.2-2.4,0-3.3,0.4c-0.7,0.4-1.7,1.4-2.2,2.3l-0.4,0.7v18.2v18.2l0.4,0.7c0.5,0.9,1.4,1.9,2.2,2.3
	C141.3,176.2,143,176.2,144.4,175.6L144.4,175.6z"/>
<path id="path7071" inkscape:connector-curvature="0" d="M113.8,208.8C99,208,89.7,204,84.7,196.4c-2.9-4.4-4.4-9.5-5.4-18.2
	c-0.3-2.5-0.4-43.1-0.2-48.3c0.4-7.5,1.3-12.1,3.2-15.8c3.4-6.7,9.9-10.5,20.8-12c6.5-0.9,4.9-0.9,52.1-0.9c41.4,0,44.3,0,47.4,0.3
	c11,1.1,17.3,3.3,21.6,7.6c3.3,3.3,5.2,7.5,6.2,14c0.8,5.1,0.8,6.5,0.8,30.1c0,20.3,0,22.8-0.3,25.4c-1.2,11-3.4,17-8.1,21.7
	c-1,1-2.4,2.2-3.1,2.7c-5.3,3.5-12.1,5.2-23.1,5.7C191.7,209,117.8,209,113.8,208.8L113.8,208.8z M146.2,174.8
	c3.9-2,29.6-15.5,30.7-16.2c2.1-1.3,3-3.7,2.2-6c-0.5-1.4-1.5-2.3-4.7-3.9c-7.2-3.8-23.8-12.5-27.1-14.2c-3.6-1.8-3.8-1.9-4.9-1.9
	c-0.6,0-1.4,0.1-1.8,0.3c-0.9,0.4-2.2,1.6-2.7,2.5l-0.4,0.7v18.2c0,20.5-0.1,18.6,1.4,20.2c0.9,0.9,1.5,1.3,2.6,1.4
	C142.9,176.3,143.6,176.1,146.2,174.8L146.2,174.8z"/>
<path id="path7077" inkscape:connector-curvature="0" class="st0" d="M140.7,175.9c-1.2-0.4-2.4-1.5-2.9-2.6
	c-0.3-0.7-0.3-4.2-0.3-19.2v-18.4l0.7-1.1c0.5-0.7,1.1-1.3,2-1.7c2.3-1.1,1.1-1.6,21,8.7c16.3,8.6,16.6,8.7,17.4,9.8
	c1.4,1.9,1.2,4.3-0.5,6c-0.7,0.7-4.7,3-15.9,8.8c-18.5,9.7-18.4,9.7-19.6,9.8C142.1,176.2,141.2,176.1,140.7,175.9L140.7,175.9z"/>
</svg>
