<?xml version="1.0" encoding="utf-8"?>
<!-- Generator: Adobe Illustrator 21.0.2, SVG Export Plug-In . SVG Version: 6.00 Build 0)  -->
<svg version="1.1"
	 id="Layer_1" inkscape:version="0.92.1 r15371" sodipodi:docname="youtubenohover.svg" xmlns:cc="http://creativecommons.org/ns#" xmlns:dc="http://purl.org/dc/elements/1.1/" xmlns:inkscape="http://www.inkscape.org/namespaces/inkscape" xmlns:rdf="http://www.w3.org/1999/02/22-rdf-syntax-ns#" xmlns:sodipodi="http://sodipodi.sourceforge.net/DTD/sodipodi-0.dtd" xmlns:svg="http://www.w3.org/2000/svg"
	 xmlns="http://www.w3.org/2000/svg" xmlns:xlink="http://www.w3.org/1999/xlink" x="0px" y="0px" viewBox="0 0 310 310"
	 style="enable-background:new 0 0 310 310;" xml:space="preserve">
<style type="text/css">
	.st0{fill:#FFFFFF;}
	.st1{fill:none;stroke:#FFFFFF;stroke-width:5.5628;}
</style>
<sodipodi:namedview  bordercolor="#666666" borderopacity="1" gridtolerance="10" guidetolerance="10" id="namedview6435" inkscape:current-layer="Layer_1" inkscape:cx="95.522856" inkscape:cy="123.61517" inkscape:pageopacity="0" inkscape:pageshadow="2" inkscape:window-height="1017" inkscape:window-maximized="1" inkscape:window-width="1920" inkscape:window-x="-8" inkscape:window-y="-8" inkscape:zoom="2.1532542" objecttolerance="10" pagecolor="#ffffff" showgrid="false">
	</sodipodi:namedview>
<g id="XMLID_822_" transform="matrix(0.49152542,0,0,0.49424299,78.813559,78.392336)">
	<path id="XMLID_823_" inkscape:connector-curvature="0" class="st0" d="M297.9,64.6c-11.2-13.3-31.9-18.7-71.3-18.7H83.4
		C43,45.9,22,51.7,10.9,65.9C0,79.7,0,100,0,128.2v53.7c0,54.6,12.9,82.2,83.4,82.2h143.2c34.2,0,53.2-4.8,65.4-16.5
		c12.6-12,17.9-31.7,17.9-65.7v-53.7C310,98.5,309.2,78,297.9,64.6L297.9,64.6z M199,162.4l-65,34c-1.5,0.8-3,1.1-4.6,1.1
		c-1.8,0-3.6-0.5-5.2-1.4c-3-1.8-4.8-5.1-4.8-8.6v-67.8c0-3.5,1.8-6.7,4.8-8.5c3-1.8,6.7-1.9,9.8-0.3l65,33.8
		c3.3,1.7,5.4,5.1,5.4,8.9C204.4,157.3,202.3,160.7,199,162.4z"/>
</g>
<g id="g6404">
</g>
<g id="g6406">
</g>
<g id="g6408">
</g>
<g id="g6410">
</g>
<g id="g6412">
</g>
<g id="g6414">
</g>
<g id="g6416">
</g>
<g id="g6418">
</g>
<g id="g6420">
</g>
<g id="g6422">
</g>
<g id="g6424">
</g>
<g id="g6426">
</g>
<g id="g6428">
</g>
<g id="g6430">
</g>
<g id="g6432">
</g>
<g id="g3811" transform="matrix(1.304158,0,0,1.2743137,-38.437776,-48.555263)">
	<title  id="title3808">Layer 1</title>
	<ellipse id="svg_1" class="st1" cx="148.7" cy="159.7" rx="116" ry="118.5"/>
</g>
</svg>
