<svg xmlns="http://www.w3.org/2000/svg" viewBox="0 0 310 310"><path d="M225.247 110.343c-5.5-6.575-15.655-9.257-35.048-9.257h-70.4c-19.837 0-30.164 2.855-35.643 9.855-5.342 6.824-5.342 16.88-5.342 30.796v26.526c0 26.961 6.338 40.65 40.986 40.65h70.4c16.817 0 26.136-2.366 32.166-8.168 6.182-5.95 8.82-15.664 8.82-32.482v-26.526c0-14.676-.413-24.79-5.939-31.394zm-48.61 48.32l-31.967 16.8a4.89 4.89 0 0 1-4.824-.154 4.949 4.949 0 0 1-2.368-4.227V137.59c0-1.726.895-3.327 2.363-4.224a4.892 4.892 0 0 1 4.817-.162l31.968 16.691a4.946 4.946 0 0 1 2.65 4.38 4.947 4.947 0 0 1-2.639 4.387z"/><g transform="matrix(1.30416 0 0 1.27431 -38.438 -48.555)" stroke="#000" stroke-width="5.563" paint-order="stroke fill markers"><title>Layer 1</title><ellipse ry="118.5" rx="116" cy="159.68" cx="148.68" fill="none" paint-order="stroke fill markers"/></g></svg>