<svg xmlns="http://www.w3.org/2000/svg" viewBox="0 0 314.652 314.652"><g transform="matrix(1.31991 0 0 1.29593 -38.918 -49.109)" stroke="#000" stroke-width="5.563" paint-order="stroke fill markers"><title>Layer 1</title><ellipse ry="118.5" rx="116" cy="159.68" cx="148.68" fill="none" paint-order="stroke fill markers"/></g><path d="M190.449 86.022H124.2c-22.497 0-40.8 17.779-40.8 39.63V190c0 21.853 18.303 39.63 40.8 39.63h66.248c22.499 0 40.802-17.778 40.802-39.63v-64.346c0-21.852-18.303-39.63-40.802-39.63zM218.134 190c0 14.827-12.42 26.89-27.684 26.89H124.2c-15.264 0-27.682-12.063-27.682-26.89v-64.346c0-14.826 12.418-26.89 27.682-26.89h66.248c15.265 0 27.684 12.064 27.684 26.89V190z"/><path d="M157.326 120.824c-21.007 0-38.097 16.6-38.097 37.004 0 20.403 17.09 37.002 38.097 37.002s38.097-16.599 38.097-37.002c0-20.405-17.09-37.004-38.097-37.004zm0 61.264c-13.773 0-24.98-10.883-24.98-24.261 0-13.379 11.206-24.263 24.98-24.263 13.774 0 24.98 10.884 24.98 24.263 0 13.378-11.207 24.26-24.98 24.26zm39.694-72.068c-2.526 0-5.01.994-6.794 2.735-1.794 1.733-2.825 4.145-2.825 6.609 0 2.455 1.032 4.867 2.825 6.608 1.784 1.733 4.268 2.735 6.795 2.735 2.536 0 5.011-1.002 6.804-2.735 1.793-1.741 2.816-4.154 2.816-6.608a9.25 9.25 0 0 0-2.816-6.61c-1.784-1.74-4.268-2.734-6.804-2.734z"/></svg>