<svg xmlns="http://www.w3.org/2000/svg" width="304.36" height="304.36"><g transform="matrix(1.28068 0 0 1.25327 -38.137 -47.744)" stroke="#000" stroke-width="5.563" paint-order="stroke fill markers"><title>Layer 1</title><ellipse ry="118.5" rx="116" cy="159.68" cx="148.68" paint-order="stroke fill markers"/></g><path d="M403.742 203.273c-19.692-3.068-33.978-16.314-50.461-46.787-5.36-9.91-14.321-29.476-14.779-32.271-.582-3.555.46-3.84 14.074-3.84 12.098 0 12.143.006 13.708 1.613.863.887 2.782 4.514 4.263 8.06 4.895 11.717 12.762 25.04 16.545 28.014 2.456 1.932 4.7 1.511 6.263-1.176 1.024-1.76 1.325-3.763 1.565-10.403.631-17.473-.844-21.97-7.929-24.182-1.178-.368-1.081-.594 1.12-2.615l2.408-2.212h13.902c13.901 0 13.903 0 15.486 1.583l1.582 1.583.004 15.666c.004 15.759.441 19.73 2.418 21.954 1.678 1.887 3.658 1.35 6.537-1.773 5.231-5.675 11.479-16.81 16.693-29.754 1.684-4.179 2.485-5.403 3.932-6.002 1.244-.515 6.021-.69 15.118-.554 12.625.189 13.371.27 14.69 1.59 1.097 1.098 1.303 1.849.98 3.572-.78 4.155-4.804 11.215-13.824 24.25-4.983 7.202-9.237 13.898-9.452 14.88-.642 2.923.676 5.116 7.096 11.805 12.274 12.788 16.984 19.718 16.108 23.703-.795 3.622-1.909 3.904-15.39 3.904-7.483 0-13.174-.293-14.727-.758-3.222-.965-6.972-4.278-13.738-12.137-3.039-3.53-6.26-6.615-7.396-7.086-4.429-1.834-7.266 2.112-8.325 11.576-.834 7.453-1.51 8.05-9.284 8.192-3.271.06-7.405-.118-9.187-.395z" fill-opacity="0" stroke="#000" stroke-width="0" stroke-opacity="0" paint-order="stroke fill markers"/><path d="M403.742 203.273c-19.692-3.068-33.978-16.314-50.461-46.787-5.36-9.91-14.321-29.476-14.779-32.271-.582-3.555.46-3.84 14.074-3.84 12.098 0 12.143.006 13.708 1.613.863.887 2.782 4.514 4.263 8.06 4.895 11.717 12.762 25.04 16.545 28.014 2.456 1.932 4.7 1.511 6.263-1.176 1.024-1.76 1.325-3.763 1.565-10.403.631-17.473-.844-21.97-7.929-24.182-1.178-.368-1.081-.594 1.12-2.615l2.408-2.212h13.902c13.901 0 13.903 0 15.486 1.583l1.582 1.583.004 15.666c.004 15.759.441 19.73 2.418 21.954 1.678 1.887 3.658 1.35 6.537-1.773 5.231-5.675 11.479-16.81 16.693-29.754 1.684-4.179 2.485-5.403 3.932-6.002 1.244-.515 6.021-.69 15.118-.554 12.625.189 13.371.27 14.69 1.59 1.097 1.098 1.303 1.849.98 3.572-.78 4.155-4.804 11.215-13.824 24.25-4.983 7.202-9.237 13.898-9.452 14.88-.642 2.923.676 5.116 7.096 11.805 12.274 12.788 16.984 19.718 16.108 23.703-.795 3.622-1.909 3.904-15.39 3.904-7.483 0-13.174-.293-14.727-.758-3.222-.965-6.972-4.278-13.738-12.137-3.039-3.53-6.26-6.615-7.396-7.086-4.429-1.834-7.266 2.112-8.325 11.576-.834 7.453-1.51 8.05-9.284 8.192-3.271.06-7.405-.118-9.187-.395z" fill-opacity="0" stroke="#000" stroke-width="0" stroke-opacity="0" paint-order="stroke fill markers"/><path d="M403.742 203.273c-19.692-3.068-33.978-16.314-50.461-46.787-5.36-9.91-14.321-29.476-14.779-32.271-.582-3.555.46-3.84 14.074-3.84 12.098 0 12.143.006 13.708 1.613.863.887 2.782 4.514 4.263 8.06 4.895 11.717 12.762 25.04 16.545 28.014 2.456 1.932 4.7 1.511 6.263-1.176 1.024-1.76 1.325-3.763 1.565-10.403.631-17.473-.844-21.97-7.929-24.182-1.178-.368-1.081-.594 1.12-2.615l2.408-2.212h13.902c13.901 0 13.903 0 15.486 1.583l1.582 1.583.004 15.666c.004 15.759.441 19.73 2.418 21.954 1.678 1.887 3.658 1.35 6.537-1.773 5.231-5.675 11.479-16.81 16.693-29.754 1.684-4.179 2.485-5.403 3.932-6.002 1.244-.515 6.021-.69 15.118-.554 12.625.189 13.371.27 14.69 1.59 1.097 1.098 1.303 1.849.98 3.572-.754 4.02-4.692 11.073-12.249 21.939-4.124 5.93-7.498 11.08-7.498 11.446 0 .365-.264.664-.587.664-.323 0-1.218 1.302-1.988 2.893-2.152 4.445-1.507 5.93 5.992 13.816 12.699 13.352 17.138 19.873 16.258 23.88-.795 3.622-1.91 3.904-15.391 3.904-7.482 0-13.173-.293-14.726-.758-3.222-.965-6.972-4.278-13.738-12.137-3.04-3.53-6.26-6.615-7.396-7.086-4.429-1.834-7.267 2.112-8.326 11.576-.833 7.453-1.51 8.05-9.283 8.192-3.272.06-7.406-.118-9.187-.395z" fill-opacity="0" stroke="#000" stroke-width="0" stroke-opacity="0" paint-order="stroke fill markers"/><path d="M403.742 203.273c-19.692-3.068-33.978-16.314-50.461-46.787-5.36-9.91-14.321-29.476-14.779-32.271-.582-3.555.46-3.84 14.074-3.84 12.098 0 12.143.006 13.708 1.613.863.887 2.782 4.514 4.263 8.06 4.895 11.717 12.762 25.04 16.545 28.014 2.456 1.932 4.7 1.511 6.263-1.176 1.024-1.76 1.325-3.763 1.565-10.403.631-17.473-.844-21.97-7.929-24.182-1.178-.368-1.081-.594 1.12-2.615l2.408-2.212h13.902c13.901 0 13.903 0 15.486 1.583l1.582 1.583.004 15.666c.004 15.759.441 19.73 2.418 21.954 1.678 1.887 3.658 1.35 6.537-1.773 5.231-5.675 11.479-16.81 16.693-29.754 1.684-4.179 2.485-5.403 3.932-6.002 1.244-.515 6.021-.69 15.118-.554 12.625.189 13.371.27 14.69 1.59 1.097 1.098 1.303 1.849.98 3.572-.78 4.155-4.804 11.215-13.824 24.25-4.983 7.202-9.237 13.898-9.452 14.88-.642 2.923.676 5.116 7.096 11.805 12.274 12.788 16.984 19.718 16.108 23.703-.795 3.622-1.909 3.904-15.39 3.904-7.483 0-13.174-.293-14.727-.758-3.222-.965-6.972-4.278-13.738-12.137-3.039-3.53-6.26-6.615-7.396-7.086-4.429-1.834-7.266 2.112-8.325 11.576-.834 7.453-1.51 8.05-9.284 8.192-3.271.06-7.405-.118-9.187-.395z" fill-opacity="0" stroke="#000" stroke-width="0" stroke-opacity="0" paint-order="stroke fill markers"/><path d="M403.742 203.273c-19.692-3.068-33.978-16.314-50.461-46.787-5.36-9.91-14.321-29.476-14.779-32.271-.582-3.555.46-3.84 14.074-3.84 12.098 0 12.143.006 13.708 1.613.863.887 2.782 4.514 4.263 8.06 4.895 11.717 12.762 25.04 16.545 28.014 2.456 1.932 4.7 1.511 6.263-1.176 1.024-1.76 1.325-3.763 1.565-10.403.631-17.473-.844-21.97-7.929-24.182-1.178-.368-1.081-.594 1.12-2.615l2.408-2.212h13.902c13.901 0 13.903 0 15.486 1.583l1.582 1.583.004 15.666c.004 15.759.441 19.73 2.418 21.954 1.678 1.887 3.658 1.35 6.537-1.773 5.231-5.675 11.479-16.81 16.693-29.754 1.684-4.179 2.485-5.403 3.932-6.002 1.244-.515 6.021-.69 15.118-.554 12.625.189 13.371.27 14.69 1.59 1.097 1.098 1.303 1.849.98 3.572-.78 4.155-4.804 11.215-13.824 24.25-4.983 7.202-9.237 13.898-9.452 14.88-.642 2.923.676 5.116 7.096 11.805 12.274 12.788 16.984 19.718 16.108 23.703-.795 3.622-1.909 3.904-15.39 3.904-7.483 0-13.174-.293-14.727-.758-3.222-.965-6.972-4.278-13.738-12.137-3.039-3.53-6.26-6.615-7.396-7.086-4.429-1.834-7.266 2.112-8.325 11.576-.834 7.453-1.51 8.05-9.284 8.192-3.271.06-7.405-.118-9.187-.395z" fill-opacity="0" stroke="#000" stroke-width="0" stroke-opacity="0" paint-order="stroke fill markers"/><path fill="none" fill-rule="evenodd" stroke="#000" stroke-width="0" stroke-opacity="0" paint-order="stroke fill markers" d="M337.643 117.153H482.07v87.328H337.643z"/><path d="M186.613 132.15H159.93v-18.948c0-5.811 6.18-7.16 9.063-7.16h17.237V80.475l-19.755-.1c-26.954 0-33.106 19.065-33.106 31.29v20.486h-19.558v26.343h19.558v71.125h26.561v-71.125h22.564z" fill="#fff" stroke="#000" stroke-width=".414" stroke-opacity="0"/><path d="M404.06 197.766v-35.5h-19.5v-26h19.393l.24-13.125c.263-14.51.645-16.911 3.638-22.893 3.283-6.563 8.974-11.352 16.44-13.837 3.93-1.307 4.424-1.35 18.165-1.535l14.125-.191v25.007l-10.125.162c-9.385.15-10.28.245-12.24 1.292-3.449 1.843-3.635 2.59-3.635 14.595v10.525h26.519l-.248 1.125c-.325 1.475-3.771 23.762-3.771 24.39 0 .299-4.327.485-11.25.485h-11.25v71h-26.5z" fill-opacity="0" fill-rule="evenodd" stroke="#000" stroke-width=".35" stroke-opacity="0" paint-order="stroke fill markers"/></svg>