<svg xmlns="http://www.w3.org/2000/svg" width="304.36" height="304.36"><g transform="matrix(1.28068 0 0 1.25327 -38.223 -47.915)" stroke="#000" stroke-width="5.563" paint-order="stroke fill markers"><title>Layer 1</title><ellipse ry="118.5" rx="116" cy="159.68" cx="148.68" paint-order="stroke fill markers"/><path d="M-103.09 248.345c-8.124-1.298-15.518-5.395-21.588-11.964-3.936-4.26-6.547-8.637-8.227-13.792-1.122-3.444-1.308-4.903-1.333-10.5-.035-7.474.608-10.295 3.7-16.25 3.895-7.495 9.193-12.58 17.235-16.539 6.643-3.27 10.784-4.133 18.227-3.801 7.08.315 10.397 1.162 16.49 4.206 7.953 3.972 14.01 10.747 17.798 19.91 1.334 3.225 1.45 4.037 1.618 11.322.203 8.792-.223 11.078-3.141 16.873-4.68 9.295-12.107 15.653-22.25 19.051-3.866 1.295-5.649 1.6-10.224 1.747-3.047.098-6.785-.02-8.305-.263z" transform="matrix(.78084 0 0 .79791 29.846 38.232)" fill="#fff" fill-rule="evenodd" stroke-width="0" stroke-opacity="0" paint-order="stroke fill markers"/><path d="M-103.09 248.345c-8.124-1.298-15.518-5.395-21.588-11.964-3.936-4.26-6.547-8.637-8.227-13.792-1.122-3.444-1.308-4.903-1.333-10.5-.035-7.474.608-10.295 3.7-16.25 3.895-7.495 9.193-12.58 17.235-16.539 6.643-3.27 10.784-4.133 18.227-3.801 7.08.315 10.397 1.162 16.49 4.206 7.953 3.972 14.01 10.747 17.798 19.91 1.334 3.225 1.45 4.037 1.618 11.322.203 8.792-.223 11.078-3.141 16.873-4.68 9.295-12.107 15.653-22.25 19.051-3.866 1.295-5.649 1.6-10.224 1.747-3.047.098-6.785-.02-8.305-.263z" transform="matrix(.78084 0 0 .79791 29.846 38.232)" fill="#fff" fill-rule="evenodd" stroke-width="0" stroke-opacity="0" paint-order="stroke fill markers"/><path d="M143.678 188.65c-6.344-1.036-12.118-4.305-16.857-9.546-3.074-3.399-5.113-6.891-6.424-11.005-.877-2.748-1.021-3.912-1.041-8.378-.027-5.963.474-8.214 2.89-12.966 3.04-5.98 7.177-10.038 13.457-13.196 5.187-2.61 8.42-3.298 14.232-3.034 5.528.252 8.118.927 12.876 3.356 6.21 3.17 10.94 8.576 13.898 15.886 1.041 2.574 1.132 3.222 1.263 9.035.158 7.016-.174 8.839-2.453 13.463-3.655 7.416-9.453 12.49-17.374 15.201-3.018 1.034-4.41 1.277-7.983 1.394-2.38.078-5.297-.016-6.484-.21zm34.905-53.243c-4.903-2.552-5.316-9.394-.758-12.553 1.414-.98 2.077-1.169 4.094-1.169 2.045 0 2.655.18 4.064 1.197 3.062 2.21 4.085 6.008 2.471 9.176-1.83 3.594-6.413 5.149-9.87 3.35z" fill="#fff" fill-rule="evenodd" stroke-width="0" stroke-opacity="0" paint-order="stroke fill markers"/></g><path d="M403.742 203.273c-19.692-3.068-33.978-16.314-50.461-46.787-5.36-9.91-14.321-29.476-14.779-32.271-.582-3.555.46-3.84 14.074-3.84 12.098 0 12.143.006 13.708 1.613.863.887 2.782 4.514 4.263 8.06 4.895 11.717 12.762 25.04 16.545 28.014 2.456 1.932 4.7 1.511 6.263-1.176 1.024-1.76 1.325-3.763 1.565-10.403.631-17.473-.844-21.97-7.929-24.182-1.178-.368-1.081-.594 1.12-2.615l2.408-2.212h13.902c13.901 0 13.903 0 15.486 1.583l1.582 1.583.004 15.666c.004 15.759.441 19.73 2.418 21.954 1.678 1.887 3.658 1.35 6.537-1.773 5.231-5.675 11.479-16.81 16.693-29.754 1.684-4.179 2.485-5.403 3.932-6.002 1.244-.515 6.021-.69 15.118-.554 12.625.189 13.371.27 14.69 1.59 1.097 1.098 1.303 1.849.98 3.572-.78 4.155-4.804 11.215-13.824 24.25-4.983 7.202-9.237 13.898-9.452 14.88-.642 2.923.676 5.116 7.096 11.805 12.274 12.788 16.984 19.718 16.108 23.703-.795 3.622-1.909 3.904-15.39 3.904-7.483 0-13.174-.293-14.727-.758-3.222-.965-6.972-4.278-13.738-12.137-3.039-3.53-6.26-6.615-7.396-7.086-4.429-1.834-7.266 2.112-8.325 11.576-.834 7.453-1.51 8.05-9.284 8.192-3.271.06-7.405-.118-9.187-.395z" fill-opacity="0" stroke="#000" stroke-width="0" stroke-opacity="0" paint-order="stroke fill markers"/><path d="M403.742 203.273c-19.692-3.068-33.978-16.314-50.461-46.787-5.36-9.91-14.321-29.476-14.779-32.271-.582-3.555.46-3.84 14.074-3.84 12.098 0 12.143.006 13.708 1.613.863.887 2.782 4.514 4.263 8.06 4.895 11.717 12.762 25.04 16.545 28.014 2.456 1.932 4.7 1.511 6.263-1.176 1.024-1.76 1.325-3.763 1.565-10.403.631-17.473-.844-21.97-7.929-24.182-1.178-.368-1.081-.594 1.12-2.615l2.408-2.212h13.902c13.901 0 13.903 0 15.486 1.583l1.582 1.583.004 15.666c.004 15.759.441 19.73 2.418 21.954 1.678 1.887 3.658 1.35 6.537-1.773 5.231-5.675 11.479-16.81 16.693-29.754 1.684-4.179 2.485-5.403 3.932-6.002 1.244-.515 6.021-.69 15.118-.554 12.625.189 13.371.27 14.69 1.59 1.097 1.098 1.303 1.849.98 3.572-.78 4.155-4.804 11.215-13.824 24.25-4.983 7.202-9.237 13.898-9.452 14.88-.642 2.923.676 5.116 7.096 11.805 12.274 12.788 16.984 19.718 16.108 23.703-.795 3.622-1.909 3.904-15.39 3.904-7.483 0-13.174-.293-14.727-.758-3.222-.965-6.972-4.278-13.738-12.137-3.039-3.53-6.26-6.615-7.396-7.086-4.429-1.834-7.266 2.112-8.325 11.576-.834 7.453-1.51 8.05-9.284 8.192-3.271.06-7.405-.118-9.187-.395z" fill-opacity="0" stroke="#000" stroke-width="0" stroke-opacity="0" paint-order="stroke fill markers"/><path d="M403.742 203.273c-19.692-3.068-33.978-16.314-50.461-46.787-5.36-9.91-14.321-29.476-14.779-32.271-.582-3.555.46-3.84 14.074-3.84 12.098 0 12.143.006 13.708 1.613.863.887 2.782 4.514 4.263 8.06 4.895 11.717 12.762 25.04 16.545 28.014 2.456 1.932 4.7 1.511 6.263-1.176 1.024-1.76 1.325-3.763 1.565-10.403.631-17.473-.844-21.97-7.929-24.182-1.178-.368-1.081-.594 1.12-2.615l2.408-2.212h13.902c13.901 0 13.903 0 15.486 1.583l1.582 1.583.004 15.666c.004 15.759.441 19.73 2.418 21.954 1.678 1.887 3.658 1.35 6.537-1.773 5.231-5.675 11.479-16.81 16.693-29.754 1.684-4.179 2.485-5.403 3.932-6.002 1.244-.515 6.021-.69 15.118-.554 12.625.189 13.371.27 14.69 1.59 1.097 1.098 1.303 1.849.98 3.572-.754 4.02-4.692 11.073-12.249 21.939-4.124 5.93-7.498 11.08-7.498 11.446 0 .365-.264.664-.587.664-.323 0-1.218 1.302-1.988 2.893-2.152 4.445-1.507 5.93 5.992 13.816 12.699 13.352 17.138 19.873 16.258 23.88-.795 3.622-1.91 3.904-15.391 3.904-7.482 0-13.173-.293-14.726-.758-3.222-.965-6.972-4.278-13.738-12.137-3.04-3.53-6.26-6.615-7.396-7.086-4.429-1.834-7.267 2.112-8.326 11.576-.833 7.453-1.51 8.05-9.283 8.192-3.272.06-7.406-.118-9.187-.395z" fill-opacity="0" stroke="#000" stroke-width="0" stroke-opacity="0" paint-order="stroke fill markers"/><path d="M403.742 203.273c-19.692-3.068-33.978-16.314-50.461-46.787-5.36-9.91-14.321-29.476-14.779-32.271-.582-3.555.46-3.84 14.074-3.84 12.098 0 12.143.006 13.708 1.613.863.887 2.782 4.514 4.263 8.06 4.895 11.717 12.762 25.04 16.545 28.014 2.456 1.932 4.7 1.511 6.263-1.176 1.024-1.76 1.325-3.763 1.565-10.403.631-17.473-.844-21.97-7.929-24.182-1.178-.368-1.081-.594 1.12-2.615l2.408-2.212h13.902c13.901 0 13.903 0 15.486 1.583l1.582 1.583.004 15.666c.004 15.759.441 19.73 2.418 21.954 1.678 1.887 3.658 1.35 6.537-1.773 5.231-5.675 11.479-16.81 16.693-29.754 1.684-4.179 2.485-5.403 3.932-6.002 1.244-.515 6.021-.69 15.118-.554 12.625.189 13.371.27 14.69 1.59 1.097 1.098 1.303 1.849.98 3.572-.78 4.155-4.804 11.215-13.824 24.25-4.983 7.202-9.237 13.898-9.452 14.88-.642 2.923.676 5.116 7.096 11.805 12.274 12.788 16.984 19.718 16.108 23.703-.795 3.622-1.909 3.904-15.39 3.904-7.483 0-13.174-.293-14.727-.758-3.222-.965-6.972-4.278-13.738-12.137-3.039-3.53-6.26-6.615-7.396-7.086-4.429-1.834-7.266 2.112-8.325 11.576-.834 7.453-1.51 8.05-9.284 8.192-3.271.06-7.405-.118-9.187-.395z" fill-opacity="0" stroke="#000" stroke-width="0" stroke-opacity="0" paint-order="stroke fill markers"/><path d="M403.742 203.273c-19.692-3.068-33.978-16.314-50.461-46.787-5.36-9.91-14.321-29.476-14.779-32.271-.582-3.555.46-3.84 14.074-3.84 12.098 0 12.143.006 13.708 1.613.863.887 2.782 4.514 4.263 8.06 4.895 11.717 12.762 25.04 16.545 28.014 2.456 1.932 4.7 1.511 6.263-1.176 1.024-1.76 1.325-3.763 1.565-10.403.631-17.473-.844-21.97-7.929-24.182-1.178-.368-1.081-.594 1.12-2.615l2.408-2.212h13.902c13.901 0 13.903 0 15.486 1.583l1.582 1.583.004 15.666c.004 15.759.441 19.73 2.418 21.954 1.678 1.887 3.658 1.35 6.537-1.773 5.231-5.675 11.479-16.81 16.693-29.754 1.684-4.179 2.485-5.403 3.932-6.002 1.244-.515 6.021-.69 15.118-.554 12.625.189 13.371.27 14.69 1.59 1.097 1.098 1.303 1.849.98 3.572-.78 4.155-4.804 11.215-13.824 24.25-4.983 7.202-9.237 13.898-9.452 14.88-.642 2.923.676 5.116 7.096 11.805 12.274 12.788 16.984 19.718 16.108 23.703-.795 3.622-1.909 3.904-15.39 3.904-7.483 0-13.174-.293-14.727-.758-3.222-.965-6.972-4.278-13.738-12.137-3.039-3.53-6.26-6.615-7.396-7.086-4.429-1.834-7.266 2.112-8.325 11.576-.834 7.453-1.51 8.05-9.284 8.192-3.271.06-7.405-.118-9.187-.395z" fill-opacity="0" stroke="#000" stroke-width="0" stroke-opacity="0" paint-order="stroke fill markers"/><path fill="none" fill-rule="evenodd" stroke="#000" stroke-width="0" stroke-opacity="0" paint-order="stroke fill markers" d="M337.643 117.153H482.07v87.328H337.643z"/><path d="M339.255 453.179c-10.693-1.618-19.785-9.638-22.428-19.784-1.145-4.396-1.145-73.061 0-77.458 2.26-8.673 9.504-16.094 18.464-18.913 3.505-1.103 3.69-1.108 41.27-1.108h37.75l3.915 1.385c5.038 1.782 8.431 3.98 11.74 7.603 3.122 3.42 5.317 7.53 6.343 11.882 1.094 4.642 1.094 71.119 0 75.76-1.026 4.352-3.22 8.463-6.343 11.882-3.309 3.624-6.702 5.821-11.74 7.604l-3.914 1.384-36.25.075c-19.938.041-37.4-.1-38.807-.312zm45.958-22.302c1.98-.435 5.952-1.924 8.829-3.31 4.605-2.22 5.773-3.066 9.777-7.086 3.818-3.834 4.92-5.325 6.881-9.315 1.284-2.612 2.675-6.212 3.09-8 .965-4.145.975-12.823.02-16.871-2.487-10.552-10.01-19.827-19.982-24.637-6.869-3.313-11.19-4.185-19.204-3.877-5.098.196-7.082.503-10.312 1.593-12.352 4.169-21.73 14.01-25.058 26.292-1.2 4.43-1.2 13.571 0 18 3.592 13.26 13.95 23.414 27.558 27.018 4.513 1.195 13.407 1.288 18.4.193zm35.244-66.162c4.843-2.484 6.793-7.634 4.665-12.32-1.778-3.913-5.744-6.083-10.164-5.56-5.004.593-8.396 4.338-8.396 9.27 0 4.2 2.205 7.477 6.072 9.026 2.01.805 5.838.602 7.823-.416zM113.016 223.426c-8.635-1.244-17.615-5.94-23.733-12.41-4.577-4.84-7.801-10.6-9.604-17.152l-.95-3.457-.11-36.77c-.1-33.15-.053-37.1.482-40.128 2.915-16.514 16.132-29.362 33.282-32.353 2.549-.444 8.763-.527 39.545-.527 24.06 0 37.45.13 39.247.38 16.066 2.234 29.34 13.901 33.677 29.6l.948 3.43v76.368l-.973 3.527c-3.594 13.04-13.47 23.44-26.359 27.759-6.37 2.134-6.202 2.126-46.561 2.08-20.223-.022-37.724-.179-38.89-.347zm79.55-12.813c7.955-2.352 14.543-7.72 17.851-14.549 2.828-5.835 2.655-2.977 2.655-43.84 0-40.856.173-37.994-2.65-43.841-3.301-6.84-9.757-12.141-17.523-14.39l-2.808-.813h-75.66l-2.758.8c-10.422 3.02-17.951 11.032-19.89 21.166-.757 3.957-.757 70.198 0 74.155 2.133 11.15 11.163 19.79 22.764 21.786.908.157 18.356.255 38.774.219 34.395-.061 37.28-.112 39.245-.693zm-366.584-77.291c-6.144-1.948-12.673-7.33-15.612-12.87-3.39-6.39-3.293-5.084-3.3-44.363-.004-27.581.141-36.113.65-38.25 2.17-9.095 8.855-16.298 18.204-19.613l3.911-1.387h75.855l3.911 1.387c7.68 2.723 12.858 7.348 16.362 14.613l2.05 4.25v77.552l-1.914 3.873c-3.373 6.825-9.673 12.447-16.63 14.84-2.755.948-4.32.984-41.66.957-36.845-.026-38.949-.076-41.827-.989z" fill="#fff" fill-rule="evenodd" stroke="#000" stroke-width="0" stroke-opacity="0" paint-order="stroke fill markers"/></svg>