<svg xmlns="http://www.w3.org/2000/svg" width="304.36" height="304.36"><g transform="matrix(1.28068 0 0 1.25327 -38.137 -47.744)" stroke="#000" stroke-width="5.563" paint-order="stroke fill markers"><title>Layer 1</title><ellipse ry="118.5" rx="116" cy="159.68" cx="148.68" fill="none" paint-order="stroke fill markers"/></g><path d="M199.113 167.884c4.792 4.986 9.849 9.677 14.146 15.166 1.898 2.439 3.695 4.956 5.07 7.786 1.948 4.024.184 8.452-3.201 8.692l-21.043-.01c-5.427.48-9.757-1.849-13.397-5.804-2.914-3.163-5.612-6.529-8.413-9.798-1.148-1.337-2.35-2.594-3.787-3.588-2.872-1.988-5.366-1.379-7.007 1.814-1.672 3.248-2.051 6.844-2.216 10.464-.225 5.281-1.723 6.67-6.7 6.912-10.637.534-20.732-1.181-30.11-6.9-8.269-5.042-14.68-12.16-20.26-20.218-10.866-15.691-19.187-32.933-26.665-50.658-1.683-3.994-.452-6.137 3.682-6.213a535.844 535.844 0 0 1 20.6-.01c2.791.043 4.638 1.749 5.715 4.558 3.714 9.734 8.259 18.994 13.963 27.578 1.52 2.285 3.068 4.57 5.274 6.179 2.44 1.781 4.299 1.19 5.447-1.707.728-1.837 1.047-3.816 1.211-5.783.544-6.77.616-13.527-.338-20.273-.586-4.21-2.81-6.935-6.752-7.732-2.011-.406-1.712-1.204-.738-2.427 1.691-2.11 3.282-3.424 6.453-3.424h23.782c3.744.787 4.575 2.58 5.088 6.595l.02 28.156c-.04 1.554.729 6.167 3.355 7.195 2.103.733 3.488-1.06 4.75-2.48 5.694-6.442 9.758-14.054 13.388-21.936 1.611-3.466 2.997-7.065 4.34-10.662.994-2.668 2.555-3.981 5.375-3.923l22.889.021c.678 0 1.365.011 2.022.13 3.857.702 4.914 2.47 3.723 6.484-1.877 6.298-5.529 11.546-9.1 16.819-3.817 5.63-7.9 11.066-11.684 16.729-3.478 5.17-3.202 7.777 1.118 12.268zm0 0" clip-rule="evenodd" fill-rule="evenodd"/></svg>