<?xml version="1.0" encoding="utf-8"?>
<!-- Generator: Adobe Illustrator 21.0.2, SVG Export Plug-In . SVG Version: 6.00 Build 0)  -->
<svg version="1.1" id="Capa_1" xmlns="http://www.w3.org/2000/svg" xmlns:xlink="http://www.w3.org/1999/xlink" x="0px" y="0px"
	 viewBox="0 0 512 512" style="enable-background:new 0 0 512 512;" xml:space="preserve">
<style type="text/css">
	.st0{fill:#3398DB;}
</style>
<g>
	<g>
		<polygon class="st0" points="354.7,371.2 371.2,354.7 272.5,256 371.2,157.3 354.7,140.8 256,239.5 157.3,140.8 140.8,157.3 
			239.5,256 140.8,354.7 157.3,371.2 256,272.5 		"/>
		<path class="st0" d="M512,256C512,114.6,397.4,0,256,0C114.6,0,0,114.6,0,256c0,141.4,114.6,256,256,256
			C397.4,512,512,397.4,512,256z M23.3,256C23.3,127.5,127.5,23.3,256,23.3S488.7,127.5,488.7,256S384.5,488.7,256,488.7
			S23.3,384.5,23.3,256z"/>
	</g>
</g>
</svg>
