<?xml version="1.0" encoding="utf-8"?>
<!-- Generator: Adobe Illustrator 21.0.2, SVG Export Plug-In . SVG Version: 6.00 Build 0)  -->
<svg version="1.1" id="Capa_1" xmlns="http://www.w3.org/2000/svg" xmlns:xlink="http://www.w3.org/1999/xlink" x="0px" y="0px"
	 viewBox="0 0 512 512" style="enable-background:new 0 0 512 512;" xml:space="preserve">
<style type="text/css">
	.st0{fill:#3398DB;}
	.st1{fill:#FFFFFF;}
</style>
<g>
	<g id="XMLID_1_">
		<g>
			<path class="st0" d="M256,23.3c128.5,0,232.7,104.2,232.7,232.7S384.5,488.7,256,488.7S23.3,384.5,23.3,256S127.5,23.3,256,23.3z
				 M272.5,256l98.8-98.8l-16.5-16.4L256,239.6l-98.8-98.8l-16.4,16.4l98.8,98.8l-98.8,98.8l16.4,16.5l98.8-98.8l98.8,98.8
				l16.5-16.5L272.5,256z"/>
			<path class="st0" d="M256,0c141.4,0,256,114.6,256,256S397.4,512,256,512S0,397.4,0,256S114.6,0,256,0z M488.7,256
				c0-128.5-104.2-232.7-232.7-232.7S23.3,127.5,23.3,256S127.5,488.7,256,488.7S488.7,384.5,488.7,256z"/>
			<polygon class="st1" points="371.2,157.3 272.5,256 371.2,354.8 354.8,371.2 256,272.5 157.3,371.2 140.8,354.8 239.6,256 
				140.8,157.3 157.3,140.8 256,239.6 354.8,140.8 			"/>
		</g>
		<g>
		</g>
	</g>
</g>
</svg>
