<svg xmlns="http://www.w3.org/2000/svg" viewBox="0 0 260.91 260.91"><defs><style>.cls-1{fill:#121518;}.cls-2{fill:#f5f5f5;fill-rule:evenodd;}</style></defs><title>Ресурс 12</title><g id="Слой_2" data-name="Слой 2"><g id="Слой_1-2" data-name="Слой 1"><circle class="cls-1" cx="130.46" cy="130.46" r="130.46"/><path class="cls-2" d="M228.41,87v1q-33.92,48.06-67.09,96.87c-5.87-3.15-10.7-7.33-16.09-11-2.45,1.61-3.44,3.95-5.48,5.82-10.65,9.76-28.88,11-45.18,15.06,1.19,3.15,2,6.64,3.08,9.93-8.71,2.81-17.71,5.34-26.36,8.21-6.52-19.26-11.69-39.88-18.14-59.21v-.68c8.32-3.09,17.63-5.19,26-8.22,1.42-.05.68,2.05,1.71,2.4,4.3-6.65,8.63-13.87,13.35-21.22,3.85-6,9.21-16.22,15.06-19.85,8.44-5.23,20.1-5.49,30.8-9.58,10.82-16.21,22-32.1,33.2-47.92C191.59,61.55,210.09,74.2,228.41,87ZM175,59c-7.39,11.09-16.26,22.53-22.59,33.54,23-9.64,44.55,9.18,42.1,31.15,7.77-11.63,16-22.78,23.62-34.57C203.91,78.89,189.45,68.94,175,59Zm12.32,57.16c-2-14.33-24.64-26.46-35.6-14.38-3.39,3.73-4.74,13.17-.34,18.14,10-5.34,22.61,1.15,21.91,13C182.46,132,188.72,126.19,187.33,116.13ZM113.74,112c-2.66,1.5-5.4,6.24-7.53,9.58-2.47,3.87-5,7.34-6.85,10.27-5.2,8-10.36,18.06-16.43,24,3.41,10.4,6.42,21.19,9.58,31.83,13.4-3.79,31-3.89,41.41-12.66,3.47-2.93,5.85-6.84,8.56-10.27,5.77-7.29,10.76-13.34,16.77-20.88,2.87-3.6,7.28-7.7,6.85-12.32a7.75,7.75,0,0,0-7.53-6.5c-2.84.06-5,2.67-7.19,4.45-6.71,5.42-14.15,11.19-20.2,15.75-5-3.64-10.85-6.49-16.09-9.93,5.49-9.91,13-19.62,17.8-29.09C126.46,109.25,118.76,109.18,113.74,112Zm11.64,20.88c2.47.13,3.59,3.63,5.82,3.42.57-.05,2.22-2.38,3.08-3.08,3.57-2.92,8.68-6.07,10.61-8.9-2.69-4.06-4.08-10.8-3.77-16.77C136.11,116.25,130.41,124.23,125.38,132.9Zm46.21,7.19q-11.19,14-22.25,28.07c3.69,1.79,6.2,4.76,9.93,6.5,8.34-12.66,18.32-25.49,25.67-38C181.69,139,177.36,140.27,171.59,140.08ZM62.4,157.88c4.16,15.58,9.25,30.22,13.35,45.87,4.41-1.07,8.43-2.52,12.67-3.76-4.64-15.33-8.65-31.28-14-45.87C70.43,155.41,66.46,156.7,62.4,157.88Z"/><path class="cls-2" d="M188.7,79.5c4.16-.6,8.69,3.11,6.85,8.22-1.23,3.38-9.34,6.13-11.64.34C182.46,84.41,183.56,80.24,188.7,79.5Z"/></g></g></svg>