<?xml version="1.0" encoding="utf-8"?>
<!-- Generator: Adobe Illustrator 21.0.2, SVG Export Plug-In . SVG Version: 6.00 Build 0)  -->
<svg version="1.1" id="Слой_1" xmlns="http://www.w3.org/2000/svg" xmlns:xlink="http://www.w3.org/1999/xlink" x="0px" y="0px"
	 viewBox="0 0 126 11" style="enable-background:new 0 0 126 11;" xml:space="preserve">
<style type="text/css">
	.st0{fill:#231F20;}
	.st1{clip-path:url(#SVGID_2_);fill:#231F20;}
	.st2{clip-path:url(#SVGID_4_);fill:#231F20;}
</style>
<polygon class="st0" points="0,0.4 0,10.8 6.1,10.8 6.1,10.5 0.4,10.5 0.4,0.4 "/>
<path class="st0" d="M14,1.5l0.2-0.6h0l0.2,0.6l2.2,5.9h-4.8L14,1.5z M13.9,0.4L10,10.8h0.4l1.2-3.1h5.1l1.2,3.1h0.4L14.4,0.4H13.9z
	"/>
<g>
	<defs>
		<rect id="SVGID_1_" y="0.2" width="125.5" height="10.8"/>
	</defs>
	<clipPath id="SVGID_2_">
		<use xlink:href="#SVGID_1_"  style="overflow:visible;"/>
	</clipPath>
	<path class="st1" d="M29.8,6h2.9c1,0,1.7-0.2,2.2-0.7c0.5-0.5,0.8-1.1,0.8-1.8c0-0.8-0.3-1.4-0.7-1.9c-0.5-0.5-1.2-0.7-2.2-0.7
		h-2.9V6z M29.8,6.3v4.5h-0.4V0.4h3.3c1.1,0,1.9,0.3,2.5,0.8c0.6,0.5,0.9,1.3,0.9,2.2c0,0.9-0.3,1.6-0.9,2.2
		c-0.6,0.5-1.4,0.8-2.5,0.8H29.8z"/>
</g>
<path class="st0" d="M43,1.5l0.2-0.6h0l0.2,0.6l2.2,5.9h-4.8L43,1.5z M43,0.4l-3.9,10.5h0.4l1.2-3.1h5.1l1.2,3.1h0.4L43.4,0.4H43z"
	/>
<polygon class="st0" points="59.2,0.4 59.2,10.1 59.1,10.1 52.4,0.4 52,0.4 52,10.8 52.4,10.8 52.4,1.1 52.4,1.1 59.2,10.8 
	59.6,10.8 59.6,0.4 "/>
<g>
	<defs>
		<rect id="SVGID_3_" y="0.2" width="125.5" height="10.8"/>
	</defs>
	<clipPath id="SVGID_4_">
		<use xlink:href="#SVGID_3_"  style="overflow:visible;"/>
	</clipPath>
	<path class="st2" d="M72.4,4.8c0-1.3-0.3-2.3-0.9-3.1C70.9,1,70,0.6,68.8,0.6c-1.1,0-2,0.4-2.6,1.1c-0.6,0.8-0.9,1.8-0.9,3.1v1.6
		c0,1.3,0.3,2.3,0.9,3.1c0.6,0.8,1.5,1.1,2.6,1.1c1.1,0,2-0.4,2.6-1.1c0.6-0.8,0.9-1.8,0.9-3.1V4.8z M72.8,6.4
		c0,1.4-0.4,2.5-1.1,3.4c-0.7,0.8-1.7,1.2-2.9,1.2c-1.2,0-2.2-0.4-2.9-1.2c-0.7-0.8-1.1-1.9-1.1-3.4V4.8c0-1.4,0.3-2.5,1-3.4
		c0.7-0.8,1.7-1.2,2.9-1.2c1.2,0,2.2,0.4,2.9,1.2c0.7,0.8,1.1,1.9,1.1,3.4V6.4z"/>
	<path class="st2" d="M78.5,5.5h3c1.1,0,1.9-0.2,2.4-0.7c0.5-0.5,0.8-1,0.8-1.7c0-0.8-0.3-1.4-0.8-1.8c-0.5-0.4-1.3-0.6-2.3-0.6h-3
		V5.5z M78.5,5.9v4.9h-0.4V0.4h3.4c1.1,0,2,0.2,2.5,0.7C84.7,1.6,85,2.3,85,3.2c0,0.6-0.2,1.1-0.6,1.6s-0.9,0.8-1.5,0.9
		c0.8,0.1,1.3,0.4,1.6,0.8C84.8,7,85,7.5,85,8.2v1c0,0.3,0,0.6,0.1,0.9c0.1,0.3,0.2,0.5,0.4,0.6v0.2h-0.4c-0.2-0.2-0.3-0.4-0.4-0.7
		c-0.1-0.3-0.1-0.6-0.1-1v-1c0-0.7-0.2-1.3-0.7-1.7c-0.5-0.4-1.2-0.6-2.1-0.6H78.5z"/>
</g>
<path class="st0" d="M93.7,1.5l0.2-0.6h0l0.2,0.6l2.2,5.9h-4.8L93.7,1.5z M93.6,0.4l-3.9,10.5h0.4l1.2-3.1h5.1l1.2,3.1H98L94.1,0.4
	H93.6z"/>
<polygon class="st0" points="112,0.4 107.6,10.2 107.6,10.2 103.2,0.4 102.7,0.4 102.7,10.8 103.1,10.8 103.1,1.1 103.1,1.1 
	107.4,10.8 107.7,10.8 112,1.3 112,1.3 112,10.8 112.4,10.8 112.4,0.4 "/>
<path class="st0" d="M121.1,1.5l0.2-0.6h0l0.2,0.6l2.2,5.9h-4.8L121.1,1.5z M121.1,0.4l-3.9,10.5h0.4l1.2-3.1h5.1l1.2,3.1h0.4
	l-3.9-10.5H121.1z"/>
</svg>
