<svg xmlns="http://www.w3.org/2000/svg" viewBox="0 0 405.79 101.02"><defs><style>.cls-1,.cls-2{fill:#f5f5f5;}.cls-1{fill-rule:evenodd;}.cls-2{font-size:47.28px;font-family:ErasITC-Bold, Eras Bold ITC;}</style></defs><title>Ресурс 2</title><g id="Слой_2" data-name="Слой 2"><g id="Слой_1-2" data-name="Слой 1"><path class="cls-1" d="M204.68,39.38c2.28,1.6,4.44,3.34,7.58,4A10.75,10.75,0,0,1,204.07,41,9.42,9.42,0,0,0,204.68,39.38Z"/><path class="cls-1" d="M210.42,47.56a9.46,9.46,0,0,1-8-.68,3.87,3.87,0,0,1,.31-1.59A16.73,16.73,0,0,0,210.42,47.56Z"/><path class="cls-1" d="M266.26,12.89a21.84,21.84,0,0,1-2.36-.79c1.41-.73,3.07-.75,4.2-2.16s1.78-5,.2-6.25-4.58-.45-6.76-.23a9.16,9.16,0,0,1-1,4.89c-.16-1.8-.24-3.67-1.33-4.43-21.2,5.2-40.1,13-51.13,29.44a18.85,18.85,0,0,0,7.17,6.14A12.76,12.76,0,0,1,207,35.06a28.41,28.41,0,0,0-2.25,4.21,32.33,32.33,0,0,1-4.61-5.11c.55,3.18,2.24,5.1,3.89,7a26,26,0,0,0-1.33,4A24.8,24.8,0,0,1,198.33,42a10.78,10.78,0,0,0,4,4.89c-1.89,13.06,2.4,24.88,9.53,30-5.46-1.94-9.32-6.64-13.12-10.8-6.83,3.39-12.47,7.86-18.14,12.62-1.82,1.53-3.49,3.5-5.74,4.43.46-3.54,2.17-6.4,3.58-9.21a89.54,89.54,0,0,1,9.63-15.69c1.76-2.21,4.42-4.7,5.33-7.16.56-1.53.34-4.3.62-6.25a79.3,79.3,0,0,1,1.74-8.52,23.07,23.07,0,0,0,1-4.09,31.27,31.27,0,0,0-.61-5.45c-.67-5.16-1.71-10.19-2.15-15.8,4.9,1,9.15,3.79,14.75,4.43a43.12,43.12,0,0,0-7.07,10.12c5.59-9.25,14.65-15,25.61-19.21a81.85,81.85,0,0,1,17.11-4.89A92.42,92.42,0,0,1,264.83.16c3.08.23,7.06,1.65,6,6.25-.93,4.23-4.49,7.41-6.66,10.8-.6.93-1,1.8-1.64,2.73-.1.15-.25.54-.51.45C263.47,17.9,264.72,15.24,266.26,12.89Zm-33.4-4.32c.39,2.47,4.87,1.7,4.82-1-.06-3.21-6.8-2.33-6.25,1.14.07.43.52,1,.82,1-1-1.44.36-3.09,1.64-3.41C233.14,7.26,232.67,7.39,232.86,8.57ZM207,34.94a12.4,12.4,0,0,1,.92-1.48c-1.27-2-2.51-4-3.69-6A13.28,13.28,0,0,0,207,34.94Z"/><path class="cls-1" d="M256.94,24.6a13.78,13.78,0,0,0-.82-4.21,33.66,33.66,0,0,1-2.67,4.66,4.33,4.33,0,0,0,3-.91c-.29,1.23-1.44,2.49-2.26,3.52.45.08.58-.19,1-.12-1.54,2.12-2.76,4.59-5.53,5.34-.1-.38.43-.78.72-1.14a12,12,0,0,0,2.36-4.32c-1.09.5-2.32,1.82-3.89,2.16-.07-.51.91-1.32,1.33-2a16,16,0,0,0,1.13-2.61,12.39,12.39,0,0,1-3.79,2.61A23.46,23.46,0,0,0,249,22.33a28.15,28.15,0,0,1-4.61,3.75c.14-1,.44-2.84.51-4.32a16.26,16.26,0,0,1-4,3.75c4.6.55,8.83,2.56,7.89,8.52-.07-5-4-7.17-8.4-7.5-9.75-.74-17.13,5.07-21.82,9.89,2.65-6.08,7.79-10.38,12.91-14.09a11.77,11.77,0,0,1,.21,2,9.35,9.35,0,0,0,2.87-3.52c-.61.06-1.58.87-1.74.68,4.32-2.51,10.13-6.7,17.62-6.14C255.06,15.73,258.6,18.68,256.94,24.6Zm-9.22-7.73a16.73,16.73,0,0,1-1.33,5.23,14.82,14.82,0,0,0,5.74-5A18.47,18.47,0,0,0,247.72,16.87Zm-5.74,5a25.54,25.54,0,0,0,4-3.64c.37-.41,1-.76.92-1.25a23.64,23.64,0,0,0-4.2.79A10.67,10.67,0,0,1,242,21.87Zm8.6,1.36a8.65,8.65,0,0,0,5.23-3.41,5.68,5.68,0,0,0-3.18-2.5A27,27,0,0,1,250.58,23.24ZM238.5,19.14a10.28,10.28,0,0,1-.1,3.64,12.67,12.67,0,0,0,4-4.89A38.62,38.62,0,0,0,238.5,19.14Zm-3.69,1.59c.39,1.41-.3,3.13-.41,4,1.56-1.38,3.44-3,3.69-5.46C237,19.79,235.81,20.15,234.81,20.73Zm3.18,5a22.73,22.73,0,0,1,2.66-.11,5.83,5.83,0,0,0,.31-3.18A9.17,9.17,0,0,1,238,25.74Zm-4.61,1.14a31.07,31.07,0,0,1,4.31-1,6.75,6.75,0,0,0-.1-3C236.59,24.69,234.92,25.71,233.37,26.87ZM230.6,28c.77-.51,1.86-.66,2.66-1.14-.3-.8-.18-2.07-.82-2.5C232.21,25.93,230.92,26.92,230.6,28Z"/><path class="cls-1" d="M243.41,39.6c-2,2.61-6.14,4.63-7.89,7.84-1.48,2.71,1.07,5.35,2.66,7.27,3.78,4.57,8.05,9.2,8.61,16.71A44,44,0,0,0,237,65.75c-4.64-1.77-10.37-1.94-12.81-6-.36,5,.73,9.84,3.18,12.84a10.45,10.45,0,0,0,11.27,3.64c-.26,1.06-1.44,1.54-1.43,2.61,0,1.3,2.68,3.33,4.61,3.07s3.91-2.66,5.43-4c4.85-4.21,11.08-8.76,17-11.14.09-.07.18-.14.2,0a119,119,0,0,0-14.24,17.17,15.19,15.19,0,0,0-3,7.61c-.21,3.1.52,5.9.41,9.43-.15.17-.63-.44-.92-.8a67.84,67.84,0,0,1-5.84-9.2,14.84,14.84,0,0,0-6.66-6.14c-.75-.35-2.32-1.21-3-1.13-1.42.17-2.56,3.77-2.15,6-.56.11-1-.62-1.54-1A26.52,26.52,0,0,1,223,84.39c1.35.7,2.86,2.21,4.61,2.84-1.66-5.88-4.4-11.59-4.81-19C221.82,50.45,233.6,45.8,243.41,39.6Z"/><text class="cls-2" transform="translate(0 70.55) scale(0.74 1)"><tspan xml:space="preserve">BUSINESS            SHARK</tspan></text></g></g></svg>