<svg xmlns="http://www.w3.org/2000/svg" viewBox="0 0 310 310"><path d="M225.247 110.343c-5.5-6.575-15.655-9.257-35.048-9.257h-70.4c-19.837 0-30.164 2.855-35.643 9.855-5.342 6.824-5.342 16.88-5.342 30.796v26.526c0 26.961 6.338 40.65 40.986 40.65h70.4c16.817 0 26.136-2.366 32.166-8.168 6.182-5.95 8.82-15.664 8.82-32.482v-26.526c0-14.676-.413-24.79-5.939-31.394zm-48.61 48.32l-31.967 16.8a4.89 4.89 0 0 1-4.824-.154 4.949 4.949 0 0 1-2.368-4.227V137.59c0-1.726.895-3.327 2.363-4.224a4.892 4.892 0 0 1 4.817-.162l31.968 16.691a4.946 4.946 0 0 1 2.65 4.38 4.947 4.947 0 0 1-2.639 4.387z"/><g transform="matrix(1.30713 0 0 1.27763 -38.94 -49.006)" stroke="#000" stroke-width="5.563" paint-order="stroke fill markers"><title>Layer 1</title><ellipse ry="118.5" rx="116" cy="159.68" cx="148.68" paint-order="stroke fill markers"/></g><path d="M115.23 208.752c-17.082-.766-26.632-5.087-31.782-14.38-1.443-2.602-2.754-6.666-3.478-10.783-.915-5.198-.946-6.057-1.024-28.549-.09-25.76.048-29.452 1.304-35.077 1.31-5.866 3.954-9.995 8.258-12.898 4.327-2.92 9.552-4.415 19.032-5.448 2.475-.27 6.834-.304 45.166-.364 29.55-.045 43.473-.006 45.874.13 13.285.753 20.698 3.05 25.5 7.901 4.008 4.047 5.817 9.059 6.69 18.532.299 3.237.44 41.62.17 46.67-.708 13.34-3.202 20.87-8.653 26.125-4.749 4.577-10.694 6.732-21.674 7.854-2.52.257-7.254.291-43.487.315-22.363.015-41.216.002-41.896-.028zm29.168-33.104c1.63-.716 32.58-17.06 33.145-17.505.34-.267.886-.995 1.211-1.617.552-1.055.588-1.223.516-2.458-.09-1.539-.477-2.42-1.49-3.387-.875-.835-33.156-17.715-34.419-17.998-.965-.216-2.397-.027-3.287.433-.745.385-1.7 1.38-2.172 2.262l-.399.747v36.416l.4.747c.473.885 1.427 1.877 2.18 2.267 1.256.649 2.965.686 4.315.093z" fill-rule="evenodd" stroke="#000" stroke-width="0" paint-order="stroke fill markers"/><path d="M113.815 208.757c-14.855-.806-24.085-4.713-29.16-12.346-2.94-4.42-4.45-9.477-5.422-18.164-.28-2.506-.42-43.145-.166-48.27.37-7.477 1.289-12.078 3.152-15.798 3.358-6.705 9.853-10.465 20.768-12.023 6.465-.923 4.919-.897 52.106-.897 41.386 0 44.307.02 47.376.324 10.961 1.082 17.285 3.317 21.593 7.63 3.343 3.347 5.167 7.5 6.152 14.009.765 5.051.804 6.52.803 30.07 0 20.254-.032 22.766-.313 25.397-1.172 10.968-3.434 16.993-8.149 21.697-.984.982-2.386 2.186-3.116 2.674-5.262 3.526-12.056 5.208-23.069 5.712-4.652.213-78.601.2-82.555-.015zm32.35-33.99c3.926-1.988 29.594-15.522 30.69-16.182 2.085-1.256 2.955-3.675 2.161-6.007-.462-1.36-1.536-2.263-4.662-3.921-7.22-3.83-23.82-12.489-27.136-14.154-3.597-1.808-3.758-1.87-4.861-1.86-.631.004-1.443.135-1.816.292-.884.373-2.174 1.575-2.655 2.474l-.383.716v18.23c0 20.54-.13 18.643 1.39 20.234.878.919 1.488 1.26 2.57 1.44 1.411.234 2.127.042 4.703-1.262z" fill="#fff" fill-rule="evenodd" stroke="#000" stroke-width="0" paint-order="stroke fill markers"/><path d="M140.673 175.877c-1.205-.445-2.39-1.532-2.853-2.617-.286-.67-.349-4.157-.349-19.202v-18.385l.697-1.08c.478-.74 1.116-1.285 2.033-1.735 2.327-1.143 1.135-1.64 20.962 8.747 16.337 8.558 16.587 8.7 17.381 9.798 1.37 1.895 1.176 4.313-.484 6.035-.697.723-4.717 2.96-15.883 8.834-18.5 9.733-18.377 9.671-19.557 9.833-.548.076-1.392-.023-1.947-.228z" fill-rule="evenodd" stroke="#000" stroke-width="0" paint-order="stroke fill markers"/></svg>