<svg id="Слой_1" xmlns="http://www.w3.org/2000/svg" xmlns:xlink="http://www.w3.org/1999/xlink" viewBox="0 0 126 11"><style>.st0{fill:#fff}.st1,.st2{clip-path:url(#SVGID_2_);fill:#fff}.st2{clip-path:url(#SVGID_4_)}</style><path class="st0" d="M0 .4v10.4h6.1v-.3H.4V.4zm14 1.1l.2-.6.2.6 2.2 5.9h-4.8L14 1.5zM13.9.4L10 10.8h.4l1.2-3.1h5.1l1.2 3.1h.4L14.4.4h-.5z"/><defs><path id="SVGID_1_" d="M0 .2h125.5V11H0z"/></defs><clipPath id="SVGID_2_"><use xlink:href="#SVGID_1_" overflow="visible"/></clipPath><path class="st1" d="M29.8 6h2.9c1 0 1.7-.2 2.2-.7.5-.5.8-1.1.8-1.8 0-.8-.3-1.4-.7-1.9-.5-.5-1.2-.7-2.2-.7h-2.9V6zm0 .3v4.5h-.4V.4h3.3c1.1 0 1.9.3 2.5.8.6.5.9 1.3.9 2.2 0 .9-.3 1.6-.9 2.2-.6.5-1.4.8-2.5.8h-2.9z"/><path class="st0" d="M43 1.5l.2-.6.2.6 2.2 5.9h-4.8L43 1.5zm0-1.1l-3.9 10.5h.4l1.2-3.1h5.1l1.2 3.1h.4L43.4.4H43zm16.2 0v9.7h-.1L52.4.4H52v10.4h.4V1.1l6.8 9.7h.4V.4z"/><defs><path id="SVGID_3_" d="M0 .2h125.5V11H0z"/></defs><clipPath id="SVGID_4_"><use xlink:href="#SVGID_3_" overflow="visible"/></clipPath><path class="st2" d="M72.4 4.8c0-1.3-.3-2.3-.9-3.1C70.9 1 70 .6 68.8.6c-1.1 0-2 .4-2.6 1.1-.6.8-.9 1.8-.9 3.1v1.6c0 1.3.3 2.3.9 3.1.6.8 1.5 1.1 2.6 1.1s2-.4 2.6-1.1c.6-.8.9-1.8.9-3.1V4.8zm.4 1.6c0 1.4-.4 2.5-1.1 3.4-.7.8-1.7 1.2-2.9 1.2s-2.2-.4-2.9-1.2c-.7-.8-1.1-1.9-1.1-3.4V4.8c0-1.4.3-2.5 1-3.4.7-.8 1.7-1.2 2.9-1.2s2.2.4 2.9 1.2c.7.8 1.1 1.9 1.1 3.4v1.6zm5.7-.9h3c1.1 0 1.9-.2 2.4-.7.5-.5.8-1 .8-1.7 0-.8-.3-1.4-.8-1.8-.5-.4-1.3-.6-2.3-.6h-3v4.8zm0 .4v4.9h-.4V.4h3.4c1.1 0 2 .2 2.5.7.7.5 1 1.2 1 2.1 0 .6-.2 1.1-.6 1.6s-.9.8-1.5.9c.8.1 1.3.4 1.6.8.3.5.5 1 .5 1.7v1c0 .3 0 .6.1.9.1.3.2.5.4.6v.2h-.4c-.2-.2-.3-.4-.4-.7-.1-.3-.1-.6-.1-1v-1c0-.7-.2-1.3-.7-1.7-.5-.4-1.2-.6-2.1-.6h-3.3z"/><path class="st0" d="M93.7 1.5l.2-.6.2.6 2.2 5.9h-4.8l2.2-5.9zM93.6.4l-3.9 10.5h.4l1.2-3.1h5.1l1.2 3.1h.4L94.1.4h-.5zm18.4 0l-4.4 9.8-4.4-9.8h-.5v10.4h.4V1.1l4.3 9.7h.3l4.3-9.5v9.5h.4V.4zm9.1 1.1l.2-.6.2.6 2.2 5.9h-4.8l2.2-5.9zm0-1.1l-3.9 10.5h.4l1.2-3.1h5.1l1.2 3.1h.4L121.6.4h-.5z"/></svg>