<svg id="Слой_1" xmlns="http://www.w3.org/2000/svg" xmlns:xlink="http://www.w3.org/1999/xlink" viewBox="0 0 171 21.9"><style>.st0,.st1{clip-path:url(#SVGID_2_);fill:#fff}.st1{fill:none;stroke:#fff;stroke-miterlimit:10}.st2{clip-path:url(#SVGID_4_);fill:#231f20}</style><defs><path id="SVGID_1_" d="M61 97.9h209.3v65H61z"/></defs><clipPath id="SVGID_2_"><use xlink:href="#SVGID_1_" overflow="visible"/></clipPath><path class="st0" d="M149.4 127.6c1.1-1.1 2.2-2.3 3.4-3.6 1.1-1.3 2.2-2.5 3.1-3.6.9-1.1 1.7-2.2 2.3-3.2.6-1 1-1.7 1.1-2.3.1-.3.1-.4-.1-.4h-.4c-.6 0-1.4.4-2.2 1.1-.8.7-1.7 1.6-2.6 2.8-.9 1.1-1.8 2.4-2.8 3.9-.9 1.4-1.8 2.8-2.6 4.2-.8 1.4-1.6 2.8-2.3 4.1-.1.1-.1.2-.2.3 1.1-1.1 2.2-2.1 3.3-3.3m-16.9-8.9c3.5-.1 6.8-.5 9.9-1.2 3.1-.8 6.1-1.8 9.1-3.3 1.3-.6 2.7-1.4 4-2.3 1.3-.9 2.5-1.8 3.5-2.8 1-1 1.8-2 2.3-3.1.6-1.1.8-2.1.6-3.2-.1-.9-.4-1.7-1-2.2-.6-.6-1.4-.9-2.5-.9-1.7 0-3.3.2-4.8.7-1.6.5-3.1 1.1-4.5 1.9-1.4.8-2.8 1.7-4 2.6-1.3.9-2.4 1.9-3.4 2.8-2.1 1.9-3.9 3.7-5.3 5.4-1.4 2-2.7 3.8-3.9 5.6m-.7 34c.3-.7.7-1.8 1.4-3.1s1.4-2.8 2.3-4.4c.9-1.6 1.8-3.3 2.8-5 .7-1.3 1.4-2.5 2.1-3.6-.5.5-1 .9-1.6 1.4-1.5 1.3-2.9 2.5-4.4 3.9-1.9 1.5-3.8 3.1-5.6 4.6-1.8 1.5-3.6 2.9-5.2 4.1-6.3 4.6-12.6 7.9-19 9.8-6.4 2-13.1 2.5-20.2 1.5h-.1c-3-.4-6-1.1-8.9-2.3-2.9-1.1-5.4-2.6-7.6-4.5-2.2-1.9-3.8-4.3-5-7.1-1.2-2.8-1.5-6.1-1-9.9.3-2.6 1-5.1 2.1-7.3s2.5-4.2 4.2-6c1.7-1.8 3.6-3.3 5.8-4.5 2.2-1.3 4.5-2.3 6.9-3 2.4-.8 4.9-1.2 7.5-1.5 2.6-.2 5.2-.1 7.7.2 2 .2 3.9.8 5.8 1.5 1.9.8 3.6 1.8 5 3.1 1.5 1.3 2.6 2.8 3.4 4.5.8 1.7 1.1 3.6.8 5.7-.3 2.7-1.2 5-2.8 7.1-1.5 2-3.4 3.7-5.6 5-2.2 1.3-4.6 2.2-7.1 2.8-2.5.6-4.9.7-7.2.4-1.2-.2-2.3-.5-3.5-1-1.1-.5-2.1-1.1-3-1.9-.9-.8-1.6-1.7-2-2.7-.5-1-.7-2.2-.5-3.4.1-.8.4-1.6.7-2.4.4-.8.8-1.5 1.2-2.1.5-.6.9-1.1 1.4-1.4.5-.3.9-.5 1.2-.4h.2s0 .1-.2.3c-.2.1-.4.2-.5.3-.9.8-1.6 1.5-2.1 2.4-.5.8-.8 1.9-.9 3.2-.2 1.1 0 2.2.4 3.1.4.9 1.1 1.7 1.9 2.4.8.7 1.8 1.2 2.9 1.6 1.1.4 2.2.7 3.3.8 2.2.3 4.5.2 7-.2 2.5-.5 4.7-1.3 6.8-2.5 2.1-1.2 3.9-2.7 5.4-4.6 1.5-1.9 2.4-4.1 2.7-6.6.2-2 0-3.8-.8-5.5-.8-1.6-1.9-3-3.3-4.3-1.4-1.2-3-2.2-4.9-3-1.8-.8-3.7-1.3-5.6-1.6-3.8-.5-7.4-.4-11.1.4-3.6.8-6.9 2.1-9.9 4s-5.5 4.3-7.5 7.3c-2 2.9-3.2 6.3-3.7 10.1-.4 3.5-.2 6.6.8 9.3.9 2.7 2.4 5 4.3 6.9 1.9 1.9 4.2 3.5 6.9 4.6 2.7 1.2 5.5 2 8.6 2.4 3.4.5 6.8.5 10 .2s6.5-1 9.6-2.1c3.2-1 6.3-2.4 9.4-4.1 3.1-1.7 6.2-3.6 9.3-5.7 2.1-1.4 4.2-2.9 6.2-4.5s4-3.3 5.9-4.9c1.5-1.3 3.1-2.6 4.6-3.9-.6.4-1.1.7-1.7 1-.9.6-1.9 1-2.9 1.3-1 .3-2 .5-3 .5-.9 0-1.7-.1-2.5-.4-.8-.2-1.5-.6-2.2-1.1-.7-.5-1.2-1.1-1.7-1.8-.5-.8-.7-1.6-.9-2.7-.2-1.3-.2-2.7 0-4 .2-1.3.5-2.6.9-3.8.4-1.2.9-2.4 1.5-3.5s1.1-2.1 1.7-3c-1.4-.2-2.9-.4-4.5-.9-1.6-.4-3.1-1-4.5-1.9-1.4-.8-2.7-1.9-3.7-3.3-1-1.3-1.7-3-2-4.9-.2-1.5-.1-2.9.5-4.1.6-1.2 1.3-2.2 2.4-3.1 1-.8 2.2-1.5 3.5-1.9 1.3-.5 2.7-.7 4.1-.7 1.1 0 2.1.1 3.1.4 1 .3 1.9.7 2.7 1.2.8.5 1.5 1.2 2 1.9.6.8.9 1.6 1.1 2.6 0 .3 0 .5-.1.5s-.1-.2-.2-.5c-.6-1.7-1.6-3-3.2-3.9-1.6-.9-3.4-1.4-5.3-1.4-1.3 0-2.5.2-3.7.7-1.2.4-2.1 1-2.9 1.8-.8.8-1.4 1.7-1.8 2.8-.4 1.1-.5 2.3-.3 3.7.2 1.8.8 3.3 1.6 4.5.9 1.2 1.9 2.3 3.1 3.1 1.2.8 2.5 1.4 4 1.9 1.4.5 2.9.8 4.3.9 1.5-2.4 3.1-4.5 5-6.4 1.9-1.9 4-3.7 6.2-5.4 1.2-.9 2.5-1.7 3.9-2.6 1.4-.9 2.9-1.7 4.5-2.4 1.5-.7 3.1-1.3 4.8-1.7 1.7-.4 3.4-.7 5.1-.7 1.2 0 2.4.3 3.6.9 1.1.6 1.8 1.5 2 2.7.2.9-.1 2-.8 3-.7 1.1-1.6 2.2-2.8 3.2-1.2 1-2.5 2-4.1 3-1.5.9-3.1 1.8-4.6 2.5-1.5.7-3.1 1.3-4.6 1.9-1.5.6-3.1 1-4.7 1.4-1.6.4-3.2.7-5 .9-1.7.2-3.6.3-5.5.4-.7 1.1-1.3 2.3-2 3.4-.7 1.2-1.2 2.4-1.7 3.6-.5 1.2-.8 2.5-1 3.9-.2 1.3-.2 2.7 0 4.2.2 1.3.6 2.3 1.3 3.1.7.8 1.8 1.2 3.4 1.2.9 0 1.9-.2 3-.6 1-.4 2-.9 3-1.5s1.9-1.3 2.8-2.1c.6-.5 1.1-1 1.6-1.5 1.2-1.9 2.4-3.7 3.5-5.5 1.6-2.5 3.2-4.7 4.7-6.7s3-3.6 4.3-4.8c1.4-1.2 2.6-1.9 3.8-2.1.1-.2.3-.1.5 0 .2.2.5.4.7.8.2.4-.1 1.3-1.1 2.7-1 1.4-2.3 3.1-3.9 5s-3.5 3.9-5.4 5.9c-1.7 1.9-3.4 3.5-4.9 5v.1c-.7 1-1.4 2.5-2.2 4.3s-1.8 4-3.2 6.5c-.4.7-.8 1.6-1.4 2.7-.6 1.1-1.1 2.2-1.7 3.4-.6 1.2-1 2.4-1.4 3.6-.4 1.2-.6 2.3-.6 3.2 0 .8.2 1.5.5 2.1.4.6.9.9 1.7.9 1.2 0 2.5-.4 3.9-1.2 1.4-.8 2.7-1.8 3.9-3.1 1.2-1.2 2.2-2.6 3-4.1.8-1.5 1.2-2.9 1.2-4.3 0-.8-.2-1.5-.5-2s-.8-.8-1.5-.8c-.6 0-1.2.2-1.8.5-.6.3-1.2.8-1.8 1.3-.6.5-1.1 1.1-1.5 1.8-.5.7-.8 1.3-1.1 2-.2.4-.3.7-.3.9 0 .2 0 .3-.1.3s-.1-.1-.1-.3c0-.3.1-.6.2-.9.3-.7.7-1.5 1.2-2.2.5-.7 1.1-1.4 1.7-2 .6-.6 1.3-1 2-1.4.7-.4 1.4-.5 2.2-.5.8 0 1.4.3 1.9.8s.8 1.3.8 2.4c0 1.2-.4 2.6-1.2 4.1-.8 1.5-1.8 2.9-3 4.2-1.2 1.3-2.6 2.5-4.1 3.4-1.5 1-2.9 1.5-4.4 1.7h-.1c-.2 0-.4.1-.5.1h-.5c-.6 0-1.2-.1-1.7-.3-.6-.2-1.1-.5-1.5-.9-.5-.4-.8-.9-1.1-1.6-.3-.7-.4-1.5-.4-2.4 0-.8.2-1.9.8-2.8"/><path class="st1" d="M149.4 127.6c1.1-1.1 2.2-2.3 3.4-3.6 1.1-1.3 2.2-2.5 3.1-3.6.9-1.1 1.7-2.2 2.3-3.2.6-1 1-1.7 1.1-2.3.1-.3.1-.4-.1-.4h-.4c-.6 0-1.4.4-2.2 1.1-.8.7-1.7 1.6-2.6 2.8-.9 1.1-1.8 2.4-2.8 3.9-.9 1.4-1.8 2.8-2.6 4.2-.8 1.4-1.6 2.8-2.3 4.1-.1.1-.1.2-.2.3 1.1-1.1 2.2-2.1 3.3-3.3zm-16.9-8.9c3.5-.1 6.8-.5 9.9-1.2 3.1-.8 6.1-1.8 9.1-3.3 1.3-.6 2.7-1.4 4-2.3 1.3-.9 2.5-1.8 3.5-2.8 1-1 1.8-2 2.3-3.1.6-1.1.8-2.1.6-3.2-.1-.9-.4-1.7-1-2.2-.6-.6-1.4-.9-2.5-.9-1.7 0-3.3.2-4.8.7-1.6.5-3.1 1.1-4.5 1.9-1.4.8-2.8 1.7-4 2.6-1.3.9-2.4 1.9-3.4 2.8-2.1 1.9-3.9 3.7-5.3 5.4-1.4 2-2.7 3.8-3.9 5.6zm-.7 34c.3-.7.7-1.8 1.4-3.1s1.4-2.8 2.3-4.4c.9-1.6 1.8-3.3 2.8-5 .7-1.3 1.4-2.5 2.1-3.6-.5.5-1 .9-1.6 1.4-1.5 1.3-2.9 2.5-4.4 3.9-1.9 1.5-3.8 3.1-5.6 4.6-1.8 1.5-3.6 2.9-5.2 4.1-6.3 4.6-12.6 7.9-19 9.8-6.4 2-13.1 2.5-20.2 1.5h-.1c-3-.4-6-1.1-8.9-2.3-2.9-1.1-5.4-2.6-7.6-4.5-2.2-1.9-3.8-4.3-5-7.1-1.2-2.8-1.5-6.1-1-9.9.3-2.6 1-5.1 2.1-7.3s2.5-4.2 4.2-6c1.7-1.8 3.6-3.3 5.8-4.5 2.2-1.3 4.5-2.3 6.9-3 2.4-.8 4.9-1.2 7.5-1.5 2.6-.2 5.2-.1 7.7.2 2 .2 3.9.8 5.8 1.5 1.9.8 3.6 1.8 5 3.1 1.5 1.3 2.6 2.8 3.4 4.5.8 1.7 1.1 3.6.8 5.7-.3 2.7-1.2 5-2.8 7.1-1.5 2-3.4 3.7-5.6 5-2.2 1.3-4.6 2.2-7.1 2.8-2.5.6-4.9.7-7.2.4-1.2-.2-2.3-.5-3.5-1-1.1-.5-2.1-1.1-3-1.9-.9-.8-1.6-1.7-2-2.7-.5-1-.7-2.2-.5-3.4.1-.8.4-1.6.7-2.4.4-.8.8-1.5 1.2-2.1.5-.6.9-1.1 1.4-1.4.5-.3.9-.5 1.2-.4h.2s0 .1-.2.3c-.2.1-.4.2-.5.3-.9.8-1.6 1.5-2.1 2.4-.5.8-.8 1.9-.9 3.2-.2 1.1 0 2.2.4 3.1.4.9 1.1 1.7 1.9 2.4.8.7 1.8 1.2 2.9 1.6 1.1.4 2.2.7 3.3.8 2.2.3 4.5.2 7-.2 2.5-.5 4.7-1.3 6.8-2.5 2.1-1.2 3.9-2.7 5.4-4.6 1.5-1.9 2.4-4.1 2.7-6.6.2-2 0-3.8-.8-5.5-.8-1.6-1.9-3-3.3-4.3-1.4-1.2-3-2.2-4.9-3-1.8-.8-3.7-1.3-5.6-1.6-3.8-.5-7.4-.4-11.1.4-3.6.8-6.9 2.1-9.9 4s-5.5 4.3-7.5 7.3c-2 2.9-3.2 6.3-3.7 10.1-.4 3.5-.2 6.6.8 9.3.9 2.7 2.4 5 4.3 6.9 1.9 1.9 4.2 3.5 6.9 4.6 2.7 1.2 5.5 2 8.6 2.4 3.4.5 6.8.5 10 .2s6.5-1 9.6-2.1c3.2-1 6.3-2.4 9.4-4.1 3.1-1.7 6.2-3.6 9.3-5.7 2.1-1.4 4.2-2.9 6.2-4.5s4-3.3 5.9-4.9c1.5-1.3 3.1-2.6 4.6-3.9-.6.4-1.1.7-1.7 1-.9.6-1.9 1-2.9 1.3-1 .3-2 .5-3 .5-.9 0-1.7-.1-2.5-.4-.8-.2-1.5-.6-2.2-1.1-.7-.5-1.2-1.1-1.7-1.8-.5-.8-.7-1.6-.9-2.7-.2-1.3-.2-2.7 0-4 .2-1.3.5-2.6.9-3.8.4-1.2.9-2.4 1.5-3.5s1.1-2.1 1.7-3c-1.4-.2-2.9-.4-4.5-.9-1.6-.4-3.1-1-4.5-1.9-1.4-.8-2.7-1.9-3.7-3.3-1-1.3-1.7-3-2-4.9-.2-1.5-.1-2.9.5-4.1.6-1.2 1.3-2.2 2.4-3.1 1-.8 2.2-1.5 3.5-1.9 1.3-.5 2.7-.7 4.1-.7 1.1 0 2.1.1 3.1.4 1 .3 1.9.7 2.7 1.2.8.5 1.5 1.2 2 1.9.6.8.9 1.6 1.1 2.6 0 .3 0 .5-.1.5s-.1-.2-.2-.5c-.6-1.7-1.6-3-3.2-3.9-1.6-.9-3.4-1.4-5.3-1.4-1.3 0-2.5.2-3.7.7-1.2.4-2.1 1-2.9 1.8-.8.8-1.4 1.7-1.8 2.8-.4 1.1-.5 2.3-.3 3.7.2 1.8.8 3.3 1.6 4.5.9 1.2 1.9 2.3 3.1 3.1 1.2.8 2.5 1.4 4 1.9 1.4.5 2.9.8 4.3.9 1.5-2.4 3.1-4.5 5-6.4 1.9-1.9 4-3.7 6.2-5.4 1.2-.9 2.5-1.7 3.9-2.6 1.4-.9 2.9-1.7 4.5-2.4 1.5-.7 3.1-1.3 4.8-1.7 1.7-.4 3.4-.7 5.1-.7 1.2 0 2.4.3 3.6.9 1.1.6 1.8 1.5 2 2.7.2.9-.1 2-.8 3-.7 1.1-1.6 2.2-2.8 3.2-1.2 1-2.5 2-4.1 3-1.5.9-3.1 1.8-4.6 2.5-1.5.7-3.1 1.3-4.6 1.9-1.5.6-3.1 1-4.7 1.4-1.6.4-3.2.7-5 .9-1.7.2-3.6.3-5.5.4-.7 1.1-1.3 2.3-2 3.4-.7 1.2-1.2 2.4-1.7 3.6-.5 1.2-.8 2.5-1 3.9-.2 1.3-.2 2.7 0 4.2.2 1.3.6 2.3 1.3 3.1.7.8 1.8 1.2 3.4 1.2.9 0 1.9-.2 3-.6 1-.4 2-.9 3-1.5s1.9-1.3 2.8-2.1c.6-.5 1.1-1 1.6-1.5 1.2-1.9 2.4-3.7 3.5-5.5 1.6-2.5 3.2-4.7 4.7-6.7s3-3.6 4.3-4.8c1.4-1.2 2.6-1.9 3.8-2.1.1-.2.3-.1.5 0 .2.2.5.4.7.8.2.4-.1 1.3-1.1 2.7-1 1.4-2.3 3.1-3.9 5s-3.5 3.9-5.4 5.9c-1.7 1.9-3.4 3.5-4.9 5v.1c-.7 1-1.4 2.5-2.2 4.3s-1.8 4-3.2 6.5c-.4.7-.8 1.6-1.4 2.7-.6 1.1-1.1 2.2-1.7 3.4-.6 1.2-1 2.4-1.4 3.6-.4 1.2-.6 2.3-.6 3.2 0 .8.2 1.5.5 2.1.4.6.9.9 1.7.9 1.2 0 2.5-.4 3.9-1.2 1.4-.8 2.7-1.8 3.9-3.1 1.2-1.2 2.2-2.6 3-4.1.8-1.5 1.2-2.9 1.2-4.3 0-.8-.2-1.5-.5-2s-.8-.8-1.5-.8c-.6 0-1.2.2-1.8.5-.6.3-1.2.8-1.8 1.3-.6.5-1.1 1.1-1.5 1.8-.5.7-.8 1.3-1.1 2-.2.4-.3.7-.3.9 0 .2 0 .3-.1.3s-.1-.1-.1-.3c0-.3.1-.6.2-.9.3-.7.7-1.5 1.2-2.2.5-.7 1.1-1.4 1.7-2 .6-.6 1.3-1 2-1.4.7-.4 1.4-.5 2.2-.5.8 0 1.4.3 1.9.8s.8 1.3.8 2.4c0 1.2-.4 2.6-1.2 4.1-.8 1.5-1.8 2.9-3 4.2-1.2 1.3-2.6 2.5-4.1 3.4-1.5 1-2.9 1.5-4.4 1.7h-.1c-.2 0-.4.1-.5.1h-.5c-.6 0-1.2-.1-1.7-.3-.6-.2-1.1-.5-1.5-.9-.5-.4-.8-.9-1.1-1.6-.3-.7-.4-1.5-.4-2.4 0-.8.2-1.9.8-2.8z"/><path class="st0" d="M176.4 153.1c-.1.6-1.4 1.8-3.9 3.7-2 1.5-3.6 2.3-5 2.3-1.1 0-1.7-.5-1.7-1.5 0-.7.7-2 2.1-3.9-2 1.8-3.3 2.9-4 3.4-1.8 1.3-3.3 2-4.5 2-1.1 0-1.7-.5-1.7-1.4 0-.2 0-.5.1-.7h.1c.3-1 1-1.5 2.1-1.5.7 0 1 .2 1 .6 0 .1 0 .3-.1.6s-.1.5-.1.7c0 0 0 .2.1.4.1 0 .2.1.4.1.8 0 2.6-1.3 5.6-3.8 1.9-1.6 3.7-3.3 5.6-4.9.3-.2.9-.4 1.9-.4.3 0 .5.1.5.2s-1 1.3-3 3.7c-2 2.4-3 3.9-3 4.6.1.4.3.5.4.5.7 0 1.9-.8 3.6-2.3 1.8-1.5 3-2.3 3.5-2.4"/><path class="st1" d="M176.4 153.1c-.1.6-1.4 1.8-3.9 3.7-2 1.5-3.6 2.3-5 2.3-1.1 0-1.7-.5-1.7-1.5 0-.7.7-2 2.1-3.9-2 1.8-3.3 2.9-4 3.4-1.8 1.3-3.3 2-4.5 2-1.1 0-1.7-.5-1.7-1.4 0-.2 0-.5.1-.7h.1c.3-1 1-1.5 2.1-1.5.7 0 1 .2 1 .6 0 .1 0 .3-.1.6s-.1.5-.1.7c0 0 0 .2.1.4.1 0 .2.1.4.1.8 0 2.6-1.3 5.6-3.8 1.9-1.6 3.7-3.3 5.6-4.9.3-.2.9-.4 1.9-.4.3 0 .5.1.5.2s-1 1.3-3 3.7c-2 2.4-3 3.9-3 4.6.1.4.3.5.4.5.7 0 1.9-.8 3.6-2.3 1.8-1.5 3-2.3 3.5-2.4z"/><path class="st0" d="M198.6 153.3c-.2.6-.9 1.3-2 2.2-1.1.9-2 1.3-2.6 1.3-.5 0-.8-.1-.9-.2-2.8 1.7-5.2 2.5-7.1 2.5-2 0-3-.7-3-2.1 0-.9.4-2 1.1-3-1.7.8-2.8 1.2-3.2 1.2-.5 0-.9-.1-1.2-.4l-1.8 2.4c-.9 1.2-1.6 1.8-2 1.8-.6 0-.9-.3-.9-1 0-1 1.1-3 3.3-5.8l-.9.7c-.8.4-1.2.6-1.2.4l3.6-2.4c0-.1.3-.3.7-.8 1.3-1.3 2.5-2 3.7-2 .5 0 .8.1.9.2v.1l-2 2.5c-1.5 1.8-2.3 2.8-2.4 3 .1.3.4.4.9.4.6 0 2.3-.9 5.1-2.8 2.8-1.8 5.2-2.8 7.3-2.8h.7c-.1.1-.3.2-.7.4-1.2.6-2.8 1.8-4.8 3.7-2.2 2.1-3.3 3.7-3.3 4.8 0 .5.3.8.9.8 1.6 0 3.5-1.1 5.8-3.4.1-.5.4-1.2.9-2s.9-1.4 1.3-1.6c.2-.1.5-.2.9-.5.1-.3.2-.7.2-1.4 0-.1 0-.2-.1-.3-.1-.1-.1-.2-.1-.3 0-.1.1-.2.2-.2.4 0 .8.2 1.1.7.3.4.5.9.5 1.4 0 1.5-1.2 3.3-3.6 5.4.2 0 .3.1.5.1.8 0 1.7-.5 2.8-1.6 1-1 1.6-1.6 1.8-1.6l-.4.2z"/><path class="st1" d="M198.6 153.3c-.2.6-.9 1.3-2 2.2-1.1.9-2 1.3-2.6 1.3-.5 0-.8-.1-.9-.2-2.8 1.7-5.2 2.5-7.1 2.5-2 0-3-.7-3-2.1 0-.9.4-2 1.1-3-1.7.8-2.8 1.2-3.2 1.2-.5 0-.9-.1-1.2-.4l-1.8 2.4c-.9 1.2-1.6 1.8-2 1.8-.6 0-.9-.3-.9-1 0-1 1.1-3 3.3-5.8l-.9.7c-.8.4-1.2.6-1.2.4l3.6-2.4c0-.1.3-.3.7-.8 1.3-1.3 2.5-2 3.7-2 .5 0 .8.1.9.2v.1l-2 2.5c-1.5 1.8-2.3 2.8-2.4 3 .1.3.4.4.9.4.6 0 2.3-.9 5.1-2.8 2.8-1.8 5.2-2.8 7.3-2.8h.7c-.1.1-.3.2-.7.4-1.2.6-2.8 1.8-4.8 3.7-2.2 2.1-3.3 3.7-3.3 4.8 0 .5.3.8.9.8 1.6 0 3.5-1.1 5.8-3.4.1-.5.4-1.2.9-2s.9-1.4 1.3-1.6c.2-.1.5-.2.9-.5.1-.3.2-.7.2-1.4 0-.1 0-.2-.1-.3-.1-.1-.1-.2-.1-.3 0-.1.1-.2.2-.2.4 0 .8.2 1.1.7.3.4.5.9.5 1.4 0 1.5-1.2 3.3-3.6 5.4.2 0 .3.1.5.1.8 0 1.7-.5 2.8-1.6 1-1 1.6-1.6 1.8-1.6l-.4.2z"/><path class="st0" d="M204.9 140.8c.1-1.1.5-2 1.2-2.9.7-.8 1.5-1.6 2.6-2.1 1.1-.6 2.3-1 3.7-1.3 1.4-.3 2.8-.4 4.4-.4 1.5 0 3.1.2 4.9.4 1.7.3 3.4.5 5 .8 1.4.2 2.9.5 4.6.7 1.7.2 3.5.4 5.4.5 2.6.1 4.8-.1 6.5-.8 1.7-.6 2.7-1.6 2.9-3 .2-1.3-.3-2.4-1.5-3.4-1.3-1-3.1-1.5-5.5-1.5-1.7 0-3.1.3-4.5.9-1.3.6-2.3 1.3-3.1 2.2-.4.4-.7 1-.9 1.6-.1.3-.1.5-.1.6 0 .1-.1.2-.1.2-.1 0-.2-.3-.1-.8.1-.7.4-1.4.9-2 .8-1 1.8-1.8 3.1-2.5s3-1 4.9-1c1.3 0 2.4.1 3.4.4 1 .3 1.9.7 2.6 1.2.7.6 1.2 1.2 1.5 2 .3.8.4 1.7.2 2.7-.2.8-.5 1.6-1.2 2.2-.6.6-1.4 1.1-2.3 1.5-.9.4-2.1.7-3.3.9-1.3.2-2.6.2-4 .2-1.8 0-3.5-.1-5-.4-1.6-.3-3.4-.6-5.4-1l-4.8-.9c-1.6-.3-3.2-.5-4.8-.5-1.3-.1-2.6 0-3.8.2-1.2.2-2.3.5-3.2 1-.9.5-1.7 1-2.3 1.8-.6.7-1 1.5-1.1 2.5-.1 1.1 0 2.2.3 3.4.3 1.2 1 2.3 2.2 3.3.6.5 1.1.9 1.6 1.3s.8.8 1 1.4c.2.9 0 1.9-.8 3.1-.8 1.2-1.8 2.2-3.2 3.2-2.6 1.9-4.8 2.9-6.6 2.9-1.9 0-2.9-.7-2.9-2.2 0-1.5.6-2.9 1.7-4.1v-.1c-1 1-1.7 1.5-1.9 1.5l-.1-.1v-.1l.1-.2c1.3-1.3 3-2.6 5.1-3.7 2.2-1.2 4.1-1.8 5.7-1.8.2 0 .3.1.4.3 0 0-.3.2-.7.4-.6.3-1.3.8-2.1 1.4-.8.6-1.6 1.4-2.6 2.3-2 2.1-3 3.7-3 4.9 0 .6.3.8.8.8 1.5 0 3.3-1.1 5.4-3.4 1.1-1.1 1.9-2.1 2.4-3 .5-.9.7-1.7.7-2.5 0-.5-.2-.9-.7-1.3-.5-.4-1-.9-1.5-1.5-.6-.6-1-1.4-1.5-2.4-.6-.8-.7-2.1-.6-3.8"/><path class="st1" d="M204.9 140.8c.1-1.1.5-2 1.2-2.9.7-.8 1.5-1.6 2.6-2.1 1.1-.6 2.3-1 3.7-1.3 1.4-.3 2.8-.4 4.4-.4 1.5 0 3.1.2 4.9.4 1.7.3 3.4.5 5 .8 1.4.2 2.9.5 4.6.7 1.7.2 3.5.4 5.4.5 2.6.1 4.8-.1 6.5-.8 1.7-.6 2.7-1.6 2.9-3 .2-1.3-.3-2.4-1.5-3.4-1.3-1-3.1-1.5-5.5-1.5-1.7 0-3.1.3-4.5.9-1.3.6-2.3 1.3-3.1 2.2-.4.4-.7 1-.9 1.6-.1.3-.1.5-.1.6 0 .1-.1.2-.1.2-.1 0-.2-.3-.1-.8.1-.7.4-1.4.9-2 .8-1 1.8-1.8 3.1-2.5s3-1 4.9-1c1.3 0 2.4.1 3.4.4 1 .3 1.9.7 2.6 1.2.7.6 1.2 1.2 1.5 2 .3.8.4 1.7.2 2.7-.2.8-.5 1.6-1.2 2.2-.6.6-1.4 1.1-2.3 1.5-.9.4-2.1.7-3.3.9-1.3.2-2.6.2-4 .2-1.8 0-3.5-.1-5-.4-1.6-.3-3.4-.6-5.4-1l-4.8-.9c-1.6-.3-3.2-.5-4.8-.5-1.3-.1-2.6 0-3.8.2-1.2.2-2.3.5-3.2 1-.9.5-1.7 1-2.3 1.8-.6.7-1 1.5-1.1 2.5-.1 1.1 0 2.2.3 3.4.3 1.2 1 2.3 2.2 3.3.6.5 1.1.9 1.6 1.3s.8.8 1 1.4c.2.9 0 1.9-.8 3.1-.8 1.2-1.8 2.2-3.2 3.2-2.6 1.9-4.8 2.9-6.6 2.9-1.9 0-2.9-.7-2.9-2.2 0-1.5.6-2.9 1.7-4.1v-.1c-1 1-1.7 1.5-1.9 1.5l-.1-.1v-.1l.1-.2c1.3-1.3 3-2.6 5.1-3.7 2.2-1.2 4.1-1.8 5.7-1.8.2 0 .3.1.4.3 0 0-.3.2-.7.4-.6.3-1.3.8-2.1 1.4-.8.6-1.6 1.4-2.6 2.3-2 2.1-3 3.7-3 4.9 0 .6.3.8.8.8 1.5 0 3.3-1.1 5.4-3.4 1.1-1.1 1.9-2.1 2.4-3 .5-.9.7-1.7.7-2.5 0-.5-.2-.9-.7-1.3-.5-.4-1-.9-1.5-1.5-.6-.6-1-1.4-1.5-2.4-.6-.8-.7-2.1-.6-3.8z"/><path class="st0" d="M228.9 153.1c-.1.6-1.4 1.8-3.9 3.7-2 1.5-3.6 2.3-5 2.3-1.1 0-1.7-.5-1.7-1.5 0-.7.7-2 2.1-3.9-2 1.8-3.3 2.9-4 3.4-1.8 1.3-3.3 2-4.5 2-1.1 0-1.7-.5-1.7-1.4 0-.2 0-.5.1-.7h.1c.3-1 1-1.5 2.1-1.5.7 0 1 .2 1 .6 0 .1 0 .3-.1.6s-.1.5-.1.7c0 0 0 .2.1.4.1 0 .2.1.4.1.8 0 2.6-1.3 5.6-3.8 1.9-1.6 3.7-3.3 5.6-4.9.3-.2.9-.4 1.9-.4.3 0 .5.1.5.2s-1 1.3-3 3.7c-2 2.4-3 3.9-3 4.6.1.4.3.5.4.5.7 0 1.9-.8 3.6-2.3 1.8-1.5 3-2.3 3.5-2.4"/><path class="st1" d="M228.9 153.1c-.1.6-1.4 1.8-3.9 3.7-2 1.5-3.6 2.3-5 2.3-1.1 0-1.7-.5-1.7-1.5 0-.7.7-2 2.1-3.9-2 1.8-3.3 2.9-4 3.4-1.8 1.3-3.3 2-4.5 2-1.1 0-1.7-.5-1.7-1.4 0-.2 0-.5.1-.7h.1c.3-1 1-1.5 2.1-1.5.7 0 1 .2 1 .6 0 .1 0 .3-.1.6s-.1.5-.1.7c0 0 0 .2.1.4.1 0 .2.1.4.1.8 0 2.6-1.3 5.6-3.8 1.9-1.6 3.7-3.3 5.6-4.9.3-.2.9-.4 1.9-.4.3 0 .5.1.5.2s-1 1.3-3 3.7c-2 2.4-3 3.9-3 4.6.1.4.3.5.4.5.7 0 1.9-.8 3.6-2.3 1.8-1.5 3-2.3 3.5-2.4z"/><path class="st0" d="M251.1 153.3c-.2.6-.9 1.3-2 2.2-1.1.9-2 1.3-2.6 1.3-.5 0-.8-.1-.9-.2-2.8 1.7-5.2 2.5-7.1 2.5-2 0-3-.7-3-2.1 0-.9.4-2 1.1-3-1.7.8-2.8 1.2-3.2 1.2-.5 0-.9-.1-1.2-.4l-1.8 2.4c-.9 1.2-1.6 1.8-2 1.8-.6 0-1-.3-1-1 0-1 1.1-3 3.3-5.8l-.9.7c-.8.4-1.2.6-1.2.4l3.6-2.4c0-.1.3-.3.7-.8 1.3-1.3 2.5-2 3.7-2 .5 0 .8.1.9.2v.1l-2 2.5c-1.5 1.8-2.3 2.8-2.4 3 .1.3.4.4.9.4.6 0 2.3-.9 5.1-2.8 2.8-1.8 5.2-2.8 7.3-2.8h.7c-.1.1-.3.2-.7.4-1.2.6-2.8 1.8-4.8 3.7-2.2 2.1-3.3 3.7-3.3 4.8 0 .5.3.8.9.8 1.6 0 3.5-1.1 5.8-3.4.1-.5.4-1.2.9-2s.9-1.4 1.3-1.6c.2-.1.5-.2.9-.5.1-.3.2-.7.2-1.4 0-.1 0-.2-.1-.3-.1-.1-.1-.2-.1-.3 0-.1.1-.2.2-.2.4 0 .8.2 1.1.7.3.4.5.9.5 1.4 0 1.5-1.2 3.3-3.6 5.4.2 0 .3.1.5.1.8 0 1.7-.5 2.8-1.6 1-1 1.6-1.6 1.8-1.6l-.3.2z"/><path class="st1" d="M251.1 153.3c-.2.6-.9 1.3-2 2.2-1.1.9-2 1.3-2.6 1.3-.5 0-.8-.1-.9-.2-2.8 1.7-5.2 2.5-7.1 2.5-2 0-3-.7-3-2.1 0-.9.4-2 1.1-3-1.7.8-2.8 1.2-3.2 1.2-.5 0-.9-.1-1.2-.4l-1.8 2.4c-.9 1.2-1.6 1.8-2 1.8-.6 0-1-.3-1-1 0-1 1.1-3 3.3-5.8l-.9.7c-.8.4-1.2.6-1.2.4l3.6-2.4c0-.1.3-.3.7-.8 1.3-1.3 2.5-2 3.7-2 .5 0 .8.1.9.2v.1l-2 2.5c-1.5 1.8-2.3 2.8-2.4 3 .1.3.4.4.9.4.6 0 2.3-.9 5.1-2.8 2.8-1.8 5.2-2.8 7.3-2.8h.7c-.1.1-.3.2-.7.4-1.2.6-2.8 1.8-4.8 3.7-2.2 2.1-3.3 3.7-3.3 4.8 0 .5.3.8.9.8 1.6 0 3.5-1.1 5.8-3.4.1-.5.4-1.2.9-2s.9-1.4 1.3-1.6c.2-.1.5-.2.9-.5.1-.3.2-.7.2-1.4 0-.1 0-.2-.1-.3-.1-.1-.1-.2-.1-.3 0-.1.1-.2.2-.2.4 0 .8.2 1.1.7.3.4.5.9.5 1.4 0 1.5-1.2 3.3-3.6 5.4.2 0 .3.1.5.1.8 0 1.7-.5 2.8-1.6 1-1 1.6-1.6 1.8-1.6l-.3.2z"/><path class="st0" d="M254.9 156.9c0 .6-.4 1.1-1.2 1.7-.8.6-1.5.8-2 .8-.2-.2-.2-.5-.2-.9 0-1.5.8-2.3 2.6-2.3.5 0 .8.3.8.7"/><path class="st1" d="M254.9 156.9c0 .6-.4 1.1-1.2 1.7-.8.6-1.5.8-2 .8-.2-.2-.2-.5-.2-.9 0-1.5.8-2.3 2.6-2.3.5 0 .8.3.8.7z"/><path class="st0" d="M262.4 156.9c0 .6-.4 1.1-1.2 1.7-.8.6-1.5.8-2 .8-.2-.2-.2-.5-.2-.9 0-1.5.9-2.3 2.6-2.3.5 0 .8.3.8.7"/><path class="st1" d="M262.4 156.9c0 .6-.4 1.1-1.2 1.7-.8.6-1.5.8-2 .8-.2-.2-.2-.5-.2-.9 0-1.5.9-2.3 2.6-2.3.5 0 .8.3.8.7z"/><path class="st0" d="M269.8 156.9c0 .6-.4 1.1-1.2 1.7-.8.6-1.5.8-2 .8-.2-.2-.2-.5-.2-.9 0-1.5.8-2.3 2.6-2.3.5 0 .8.3.8.7"/><path class="st1" d="M269.8 156.9c0 .6-.4 1.1-1.2 1.7-.8.6-1.5.8-2 .8-.2-.2-.2-.5-.2-.9 0-1.5.8-2.3 2.6-2.3.5 0 .8.3.8.7z"/><defs><path id="SVGID_3_" d="M0 .1h170.5v21.8H0z"/></defs><clipPath id="SVGID_4_"><use xlink:href="#SVGID_3_" overflow="visible"/></clipPath><path class="st2" d="M86.8 4.4c.4-.5.7-1.1 1.2-1.5.5-.4 1.1-.8 1.7-1 .7-.2 1.4-.3 2-.2.7 0 1.4.2 2 .5 1.3.6 2.4 1.6 3 2.9.3.7.5 1.4.6 2.1v1.1c0 .4 0 .7-.1 1.1-.1.7-.3 1.5-.6 2.2-.4.7-.8 1.3-1.3 1.8l-1.4 1.4c-.5.5-.9.8-1.5 1.3-.5.4-1 .8-1.6 1.2-.5.4-1 .7-1.5 1.1-.9.8-1.8 1.6-2.6 2.5l-.9 1.1-1-1.1c-.3-.4-.8-.8-1.3-1.3L82 18.4c-1-.8-2.1-1.5-3.2-2.2l-.8-.5c-.3-.2-.5-.3-.8-.6-.6-.4-1.2-.9-1.7-1.4-1-1-2-2.3-2.3-3.9-.2-.8-.1-1.5-.1-2.2v-.5l.1-.6c.1-.4.2-.7.4-1.1 1-1.4 2.1-2.5 3.4-3.1.7-.3 1.4-.5 2.1-.5h1.1c.3 0 .7.1 1 .2.7.2 1.3.5 1.9.9.5.4 1 .9 1.3 1.5-.9-1-2.1-1.6-3.3-1.7-.3 0-.6-.1-.9 0h-.4c-.2 0-.3 0-.5.1-.6.1-1.2.3-1.7.6-1 .6-1.8 1.6-2.1 2.6-.1.3-.2.5-.2.8v.9c0 .6 0 1.2.2 1.7.3 1 1 1.9 1.9 2.7.4.4 1 .7 1.4 1.1l1.7 1c1.2.7 2.3 1.4 3.4 2.3.6.4 1.1.8 1.6 1.3s1 .9 1.6 1.5h-1.9c.9-1 1.9-2 2.9-2.8.5-.4 1.1-.8 1.6-1.2.5-.4 1-.7 1.5-1.1l1.4-1.2c.5-.4.9-.8 1.4-1.2.8-.8 1.4-1.6 1.6-2.7.1-.3.1-.5.1-.8v-.9c0-.5-.1-1.1-.3-1.6-.4-1-1.1-1.9-2.1-2.5-.5-.3-1-.5-1.6-.6-.6-.1-1.2-.1-1.8-.1-.6.1-1.1.3-1.7.7-.5.2-.9.7-1.4 1.1"/><path class="st2" d="M0 .1S1 1 2.9 2.3c.5.3 1 .7 1.6 1 .6.4 1.3.7 2 1.1 1.4.7 3.1 1.4 4.9 2 .9.3 1.9.5 2.9.8 1 .3 2.1.4 3.2.7 1.1.2 2.2.3 3.4.4 1.2.1 2.4.1 3.6.2 2.4 0 4.9-.1 7.5-.3 1.3-.1 2.6-.3 3.8-.5 1.3-.2 2.6-.4 3.9-.7l7.8-1.5c2.5-.5 5-.9 7.4-1.4 4.9-.9 9.5-1.6 13.4-2.1 4-.5 7.3-.6 9.7-.4 1.2.1 2.1.3 2.7.5l.9.3s-.3-.1-.9-.2c-.6-.1-1.5-.2-2.7-.2-1.1 0-2.5.1-4.1.4-1.6.2-3.4.6-5.3 1-3.9.8-8.4 1.8-13.2 2.8-2.4.5-4.9 1.1-7.5 1.6-2.6.5-5.2 1-7.8 1.6-1.3.3-2.6.4-4 .7-1.3.2-2.6.4-4 .5-2.6.3-5.3.2-7.8.1-1.3-.1-2.5-.2-3.7-.4-1.2-.2-2.4-.4-3.5-.7-1.1-.3-2.2-.5-3.3-.9-1-.4-2-.7-3-1.1C9 6.9 7.4 6 6 5.1c-.7-.4-1.3-.8-1.9-1.2C3.5 3.5 3 3 2.6 2.7 1.7 2 1.1 1.3.6.8.2.3 0 .1 0 .1m170.5 0s-.2.3-.6.7c-.4.5-1.1 1.1-2 1.9-.4.4-.9.8-1.5 1.2-.6.4-1.2.8-1.9 1.3-1.4.9-3 1.7-4.9 2.5-.9.4-1.9.7-3 1.1-1 .3-2.1.6-3.3.9-1.1.3-2.3.4-3.5.7-1.2.2-2.5.2-3.7.4-2.5.1-5.2.1-7.8-.1-1.3-.1-2.6-.3-4-.5-1.3-.2-2.7-.4-4-.7-2.6-.5-5.2-1-7.8-1.6-2.6-.5-5.1-1.1-7.5-1.6-4.9-1-9.4-2.1-13.2-2.8-1.9-.4-3.7-.7-5.3-1-1.6-.3-3-.4-4.1-.4-1.1 0-2 .1-2.7.2-.6.1-.9.2-.9.2l.9-.3c.6-.2 1.5-.4 2.7-.5 2.3-.2 5.7-.1 9.7.4 4 .5 8.5 1.2 13.4 2.1 2.4.5 5 .9 7.5 1.4l7.8 1.5c1.3.3 2.6.5 3.9.7 1.3.2 2.6.4 3.8.5 2.5.3 5.1.4 7.5.3 1.2-.1 2.4-.1 3.6-.2 1.2-.2 2.3-.3 3.4-.4 1.1-.2 2.2-.4 3.2-.7 1-.3 2-.5 2.9-.8 1.8-.6 3.5-1.3 4.9-2 .7-.4 1.4-.7 2-1.1.6-.3 1.1-.7 1.6-1 2-1.4 2.9-2.3 2.9-2.3"/></svg>