<svg xmlns="http://www.w3.org/2000/svg" width="304.36" height="304.36"><g transform="matrix(1.28068 0 0 1.25327 -38.137 -47.744)" stroke="#000" stroke-width="5.563" paint-order="stroke fill markers"><title>Layer 1</title><ellipse ry="118.5" rx="116" cy="159.68" cx="148.68" paint-order="stroke fill markers"/></g><path d="M-295.486 175.886c10.096 9.857 20.752 19.131 29.807 29.982 4 4.822 7.787 9.798 10.684 15.394 4.105 7.955.387 16.71-6.746 17.184l-44.34-.02c-11.436.95-20.56-3.655-28.23-11.474-6.14-6.253-11.824-12.908-17.727-19.372-2.42-2.642-4.953-5.128-7.98-7.093-6.052-3.929-11.306-2.726-14.765 3.587-3.523 6.421-4.322 13.531-4.668 20.687-.475 10.441-3.631 13.186-14.12 13.664-22.413 1.057-43.685-2.334-63.446-13.64-17.422-9.969-30.932-24.04-42.691-39.972-22.895-31.02-40.428-65.108-56.186-100.15-3.547-7.895-.953-12.133 7.758-12.283 14.465-.28 28.928-.26 43.41-.02 5.879.086 9.77 3.458 12.04 9.012 7.827 19.243 17.403 37.551 29.423 54.521 3.2 4.518 6.465 9.036 11.113 12.216 5.142 3.521 9.057 2.354 11.476-3.374 1.535-3.632 2.207-7.544 2.553-11.434 1.146-13.383 1.297-26.743-.713-40.079-1.234-8.323-5.922-13.71-14.227-15.286-4.238-.803-3.607-2.38-1.555-4.799 3.564-4.172 6.916-6.769 13.598-6.769h50.11c7.89 1.557 9.642 5.101 10.722 13.04l.043 55.662c-.086 3.073 1.535 12.192 7.07 14.226 4.43 1.448 7.35-2.096 10.008-4.905 11.998-12.734 20.56-27.783 28.21-43.366 3.396-6.852 6.315-13.968 9.144-21.078 2.096-5.276 5.385-7.872 11.328-7.757l48.229.043c1.43 0 2.877.021 4.262.258 8.127 1.385 10.354 4.881 7.844 12.817-3.955 12.451-11.65 22.827-19.174 33.251-8.043 11.13-16.645 21.877-24.621 33.072-7.328 10.223-6.746 15.376 2.357 24.255zm0 0" clip-rule="evenodd" fill="#fff" fill-rule="evenodd" transform="matrix(.47458 0 0 .50582 337.891 83.588)" stroke="#000" stroke-width="0" stroke-opacity="0"/><path d="M403.742 203.273c-19.692-3.068-33.978-16.314-50.461-46.787-5.36-9.91-14.321-29.476-14.779-32.271-.582-3.555.46-3.84 14.074-3.84 12.098 0 12.143.006 13.708 1.613.863.887 2.782 4.514 4.263 8.06 4.895 11.717 12.762 25.04 16.545 28.014 2.456 1.932 4.7 1.511 6.263-1.176 1.024-1.76 1.325-3.763 1.565-10.403.631-17.473-.844-21.97-7.929-24.182-1.178-.368-1.081-.594 1.12-2.615l2.408-2.212h13.902c13.901 0 13.903 0 15.486 1.583l1.582 1.583.004 15.666c.004 15.759.441 19.73 2.418 21.954 1.678 1.887 3.658 1.35 6.537-1.773 5.231-5.675 11.479-16.81 16.693-29.754 1.684-4.179 2.485-5.403 3.932-6.002 1.244-.515 6.021-.69 15.118-.554 12.625.189 13.371.27 14.69 1.59 1.097 1.098 1.303 1.849.98 3.572-.78 4.155-4.804 11.215-13.824 24.25-4.983 7.202-9.237 13.898-9.452 14.88-.642 2.923.676 5.116 7.096 11.805 12.274 12.788 16.984 19.718 16.108 23.703-.795 3.622-1.909 3.904-15.39 3.904-7.483 0-13.174-.293-14.727-.758-3.222-.965-6.972-4.278-13.738-12.137-3.039-3.53-6.26-6.615-7.396-7.086-4.429-1.834-7.266 2.112-8.325 11.576-.834 7.453-1.51 8.05-9.284 8.192-3.271.06-7.405-.118-9.187-.395z" fill-opacity="0" stroke="#000" stroke-width="0" stroke-opacity="0" paint-order="stroke fill markers"/><path d="M403.742 203.273c-19.692-3.068-33.978-16.314-50.461-46.787-5.36-9.91-14.321-29.476-14.779-32.271-.582-3.555.46-3.84 14.074-3.84 12.098 0 12.143.006 13.708 1.613.863.887 2.782 4.514 4.263 8.06 4.895 11.717 12.762 25.04 16.545 28.014 2.456 1.932 4.7 1.511 6.263-1.176 1.024-1.76 1.325-3.763 1.565-10.403.631-17.473-.844-21.97-7.929-24.182-1.178-.368-1.081-.594 1.12-2.615l2.408-2.212h13.902c13.901 0 13.903 0 15.486 1.583l1.582 1.583.004 15.666c.004 15.759.441 19.73 2.418 21.954 1.678 1.887 3.658 1.35 6.537-1.773 5.231-5.675 11.479-16.81 16.693-29.754 1.684-4.179 2.485-5.403 3.932-6.002 1.244-.515 6.021-.69 15.118-.554 12.625.189 13.371.27 14.69 1.59 1.097 1.098 1.303 1.849.98 3.572-.78 4.155-4.804 11.215-13.824 24.25-4.983 7.202-9.237 13.898-9.452 14.88-.642 2.923.676 5.116 7.096 11.805 12.274 12.788 16.984 19.718 16.108 23.703-.795 3.622-1.909 3.904-15.39 3.904-7.483 0-13.174-.293-14.727-.758-3.222-.965-6.972-4.278-13.738-12.137-3.039-3.53-6.26-6.615-7.396-7.086-4.429-1.834-7.266 2.112-8.325 11.576-.834 7.453-1.51 8.05-9.284 8.192-3.271.06-7.405-.118-9.187-.395z" fill-opacity="0" stroke="#000" stroke-width="0" stroke-opacity="0" paint-order="stroke fill markers"/><path d="M403.742 203.273c-19.692-3.068-33.978-16.314-50.461-46.787-5.36-9.91-14.321-29.476-14.779-32.271-.582-3.555.46-3.84 14.074-3.84 12.098 0 12.143.006 13.708 1.613.863.887 2.782 4.514 4.263 8.06 4.895 11.717 12.762 25.04 16.545 28.014 2.456 1.932 4.7 1.511 6.263-1.176 1.024-1.76 1.325-3.763 1.565-10.403.631-17.473-.844-21.97-7.929-24.182-1.178-.368-1.081-.594 1.12-2.615l2.408-2.212h13.902c13.901 0 13.903 0 15.486 1.583l1.582 1.583.004 15.666c.004 15.759.441 19.73 2.418 21.954 1.678 1.887 3.658 1.35 6.537-1.773 5.231-5.675 11.479-16.81 16.693-29.754 1.684-4.179 2.485-5.403 3.932-6.002 1.244-.515 6.021-.69 15.118-.554 12.625.189 13.371.27 14.69 1.59 1.097 1.098 1.303 1.849.98 3.572-.754 4.02-4.692 11.073-12.249 21.939-4.124 5.93-7.498 11.08-7.498 11.446 0 .365-.264.664-.587.664-.323 0-1.218 1.302-1.988 2.893-2.152 4.445-1.507 5.93 5.992 13.816 12.699 13.352 17.138 19.873 16.258 23.88-.795 3.622-1.91 3.904-15.391 3.904-7.482 0-13.173-.293-14.726-.758-3.222-.965-6.972-4.278-13.738-12.137-3.04-3.53-6.26-6.615-7.396-7.086-4.429-1.834-7.267 2.112-8.326 11.576-.833 7.453-1.51 8.05-9.283 8.192-3.272.06-7.406-.118-9.187-.395z" fill-opacity="0" stroke="#000" stroke-width="0" stroke-opacity="0" paint-order="stroke fill markers"/><path d="M403.742 203.273c-19.692-3.068-33.978-16.314-50.461-46.787-5.36-9.91-14.321-29.476-14.779-32.271-.582-3.555.46-3.84 14.074-3.84 12.098 0 12.143.006 13.708 1.613.863.887 2.782 4.514 4.263 8.06 4.895 11.717 12.762 25.04 16.545 28.014 2.456 1.932 4.7 1.511 6.263-1.176 1.024-1.76 1.325-3.763 1.565-10.403.631-17.473-.844-21.97-7.929-24.182-1.178-.368-1.081-.594 1.12-2.615l2.408-2.212h13.902c13.901 0 13.903 0 15.486 1.583l1.582 1.583.004 15.666c.004 15.759.441 19.73 2.418 21.954 1.678 1.887 3.658 1.35 6.537-1.773 5.231-5.675 11.479-16.81 16.693-29.754 1.684-4.179 2.485-5.403 3.932-6.002 1.244-.515 6.021-.69 15.118-.554 12.625.189 13.371.27 14.69 1.59 1.097 1.098 1.303 1.849.98 3.572-.78 4.155-4.804 11.215-13.824 24.25-4.983 7.202-9.237 13.898-9.452 14.88-.642 2.923.676 5.116 7.096 11.805 12.274 12.788 16.984 19.718 16.108 23.703-.795 3.622-1.909 3.904-15.39 3.904-7.483 0-13.174-.293-14.727-.758-3.222-.965-6.972-4.278-13.738-12.137-3.039-3.53-6.26-6.615-7.396-7.086-4.429-1.834-7.266 2.112-8.325 11.576-.834 7.453-1.51 8.05-9.284 8.192-3.271.06-7.405-.118-9.187-.395z" fill-opacity="0" stroke="#000" stroke-width="0" stroke-opacity="0" paint-order="stroke fill markers"/><path d="M403.742 203.273c-19.692-3.068-33.978-16.314-50.461-46.787-5.36-9.91-14.321-29.476-14.779-32.271-.582-3.555.46-3.84 14.074-3.84 12.098 0 12.143.006 13.708 1.613.863.887 2.782 4.514 4.263 8.06 4.895 11.717 12.762 25.04 16.545 28.014 2.456 1.932 4.7 1.511 6.263-1.176 1.024-1.76 1.325-3.763 1.565-10.403.631-17.473-.844-21.97-7.929-24.182-1.178-.368-1.081-.594 1.12-2.615l2.408-2.212h13.902c13.901 0 13.903 0 15.486 1.583l1.582 1.583.004 15.666c.004 15.759.441 19.73 2.418 21.954 1.678 1.887 3.658 1.35 6.537-1.773 5.231-5.675 11.479-16.81 16.693-29.754 1.684-4.179 2.485-5.403 3.932-6.002 1.244-.515 6.021-.69 15.118-.554 12.625.189 13.371.27 14.69 1.59 1.097 1.098 1.303 1.849.98 3.572-.78 4.155-4.804 11.215-13.824 24.25-4.983 7.202-9.237 13.898-9.452 14.88-.642 2.923.676 5.116 7.096 11.805 12.274 12.788 16.984 19.718 16.108 23.703-.795 3.622-1.909 3.904-15.39 3.904-7.483 0-13.174-.293-14.727-.758-3.222-.965-6.972-4.278-13.738-12.137-3.039-3.53-6.26-6.615-7.396-7.086-4.429-1.834-7.266 2.112-8.325 11.576-.834 7.453-1.51 8.05-9.284 8.192-3.271.06-7.405-.118-9.187-.395z" fill-opacity="0" stroke="#000" stroke-width="0" stroke-opacity="0" paint-order="stroke fill markers"/><path fill="none" fill-rule="evenodd" stroke="#000" stroke-width="0" stroke-opacity="0" paint-order="stroke fill markers" d="M337.643 117.153H482.07v87.328H337.643z"/></svg>