<?xml version="1.0" encoding="iso-8859-1"?>
<!-- Generator: Adobe Illustrator 19.0.0, SVG Export Plug-In . SVG Version: 6.00 Build 0)  -->
<svg xmlns="http://www.w3.org/2000/svg" xmlns:xlink="http://www.w3.org/1999/xlink" version="1.1" id="Capa_1" x="0px" y="0px" viewBox="0 0 469.338 469.338" style="enable-background:new 0 0 469.338 469.338;" xml:space="preserve" width="512px" height="512px">
<g>
	<g>
		<path d="M466.628,216.885c-2.042-2.26-4.917-3.552-7.958-3.552c-49.217,0-165.559,33.044-213.363,129.901l-0.023-88.257    c52.803-5.152,95.57-47.629,99.262-101.561c4.604-67.51,12.208-87.979,16.333-94.177c2.083-3.125,2.375-7.125,0.75-10.51    c-1.625-3.396-4.917-5.677-8.667-6.021c-1.621-0.121-27.78-2.27-56.176,5.246L241.44,2.427c-3.979-3.281-9.771-3.219-13.708,0.135    l-53.479,45.846c-29.048-8.074-56.221-5.844-57.875-5.701c-3.75,0.344-7.042,2.625-8.667,6.021    c-1.625,3.385-1.333,7.385,0.75,10.51c4.125,6.198,11.729,26.667,16.333,94.177c3.686,53.849,46.327,96.276,99.155,101.538    l0.023,88.16C176.13,246.35,59.867,213.333,10.669,213.333c-3.042,0-5.917,1.292-7.958,3.552c-2.021,2.26-2.979,5.281-2.646,8.292    c21.313,191.771,157.458,243.708,234.542,244.156c0.021,0,0.042,0,0.063,0s0.042,0,0.063,0    c77.083-0.448,213.229-52.385,234.542-244.156C469.607,222.166,468.648,219.145,466.628,216.885z M22.857,235.281    c64.277,6.02,201.078,57.366,201.141,201.958L224,447.496C154.543,442.63,45.6,393.626,22.857,235.281z M223.919,138.666    l0.025,94.966c-41.574-5.089-74.939-38.926-77.858-81.674c-3.313-48.469-8.313-74.146-12.604-88.188    c18.521,0.667,49.875,4.76,70.25,23.427c13.458,12.313,20.271,29.635,20.271,51.469H223.919z M234.669,92.572    c-4.271-7.896-9.813-14.969-16.604-21.188c-6.457-5.892-13.663-10.543-21.142-14.316l37.892-32.475l38.745,31.874    c-7.897,3.863-15.499,8.727-22.286,14.918C244.482,77.604,238.94,84.677,234.669,92.572z M245.253,139.079    c0.005-0.145,0.083-0.266,0.083-0.413c0-21.833,6.813-39.156,20.271-51.469c20.375-18.667,51.729-22.76,70.25-23.427    c-4.292,14.042-9.292,39.719-12.604,88.188c-2.919,42.743-36.279,76.577-77.975,81.673L245.253,139.079z M245.333,447.496    l-0.003-10.135l0.005-0.027c0-144.667,136.854-196.031,201.146-202.052C423.737,393.63,314.79,442.632,245.333,447.496z" fill="#ffaf60"/>
	</g>
</g>
<g>
</g>
<g>
</g>
<g>
</g>
<g>
</g>
<g>
</g>
<g>
</g>
<g>
</g>
<g>
</g>
<g>
</g>
<g>
</g>
<g>
</g>
<g>
</g>
<g>
</g>
<g>
</g>
<g>
</g>
</svg>
