<?xml version="1.0" encoding="utf-8"?>
<!-- Generator: Adobe Illustrator 21.0.2, SVG Export Plug-In . SVG Version: 6.00 Build 0)  -->
<svg version="1.1" id="Слой_1" xmlns="http://www.w3.org/2000/svg" xmlns:xlink="http://www.w3.org/1999/xlink" x="0px" y="0px"
	 viewBox="0 0 171 21.9" style="enable-background:new 0 0 171 21.9;" xml:space="preserve">
<style type="text/css">
	.st0{clip-path:url(#SVGID_2_);fill:white;}
	.st1{clip-path:url(#SVGID_2_);fill:none;stroke:white;stroke-miterlimit:10;}
	.st2{clip-path:url(#SVGID_4_);fill:white;}
</style>
<g>
	<defs>
		<rect id="SVGID_1_" x="61" y="97.9" width="209.3" height="65"/>
	</defs>
	<clipPath id="SVGID_2_">
		<use xlink:href="#SVGID_1_"  style="overflow:visible;"/>
	</clipPath>
	<path class="st0" d="M149.4,127.6c1.1-1.1,2.2-2.3,3.4-3.6c1.1-1.3,2.2-2.5,3.1-3.6c0.9-1.1,1.7-2.2,2.3-3.2c0.6-1,1-1.7,1.1-2.3
		c0.1-0.3,0.1-0.4-0.1-0.4h-0.4c-0.6,0-1.4,0.4-2.2,1.1c-0.8,0.7-1.7,1.6-2.6,2.8c-0.9,1.1-1.8,2.4-2.8,3.9
		c-0.9,1.4-1.8,2.8-2.6,4.2c-0.8,1.4-1.6,2.8-2.3,4.1c-0.1,0.1-0.1,0.2-0.2,0.3C147.2,129.8,148.3,128.8,149.4,127.6 M132.5,118.7
		c3.5-0.1,6.8-0.5,9.9-1.2c3.1-0.8,6.1-1.8,9.1-3.3c1.3-0.6,2.7-1.4,4-2.3c1.3-0.9,2.5-1.8,3.5-2.8c1-1,1.8-2,2.3-3.1
		c0.6-1.1,0.8-2.1,0.6-3.2c-0.1-0.9-0.4-1.7-1-2.2c-0.6-0.6-1.4-0.9-2.5-0.9c-1.7,0-3.3,0.2-4.8,0.7c-1.6,0.5-3.1,1.1-4.5,1.9
		c-1.4,0.8-2.8,1.7-4,2.6c-1.3,0.9-2.4,1.9-3.4,2.8c-2.1,1.9-3.9,3.7-5.3,5.4C135,115.1,133.7,116.9,132.5,118.7 M131.8,152.7
		c0.3-0.7,0.7-1.8,1.4-3.1c0.7-1.3,1.4-2.8,2.3-4.4c0.9-1.6,1.8-3.3,2.8-5c0.7-1.3,1.4-2.5,2.1-3.6c-0.5,0.5-1,0.9-1.6,1.4
		c-1.5,1.3-2.9,2.5-4.4,3.9c-1.9,1.5-3.8,3.1-5.6,4.6c-1.8,1.5-3.6,2.9-5.2,4.1c-6.3,4.6-12.6,7.9-19,9.8c-6.4,2-13.1,2.5-20.2,1.5
		h-0.1c-3-0.4-6-1.1-8.9-2.3c-2.9-1.1-5.4-2.6-7.6-4.5c-2.2-1.9-3.8-4.3-5-7.1c-1.2-2.8-1.5-6.1-1-9.9c0.3-2.6,1-5.1,2.1-7.3
		c1.1-2.2,2.5-4.2,4.2-6c1.7-1.8,3.6-3.3,5.8-4.5c2.2-1.3,4.5-2.3,6.9-3c2.4-0.8,4.9-1.2,7.5-1.5c2.6-0.2,5.2-0.1,7.7,0.2
		c2,0.2,3.9,0.8,5.8,1.5c1.9,0.8,3.6,1.8,5,3.1c1.5,1.3,2.6,2.8,3.4,4.5c0.8,1.7,1.1,3.6,0.8,5.7c-0.3,2.7-1.2,5-2.8,7.1
		c-1.5,2-3.4,3.7-5.6,5c-2.2,1.3-4.6,2.2-7.1,2.8c-2.5,0.6-4.9,0.7-7.2,0.4c-1.2-0.2-2.3-0.5-3.5-1c-1.1-0.5-2.1-1.1-3-1.9
		c-0.9-0.8-1.6-1.7-2-2.7c-0.5-1-0.7-2.2-0.5-3.4c0.1-0.8,0.4-1.6,0.7-2.4c0.4-0.8,0.8-1.5,1.2-2.1c0.5-0.6,0.9-1.1,1.4-1.4
		c0.5-0.3,0.9-0.5,1.2-0.4H84c0,0,0,0.1-0.2,0.3c-0.2,0.1-0.4,0.2-0.5,0.3c-0.9,0.8-1.6,1.5-2.1,2.4c-0.5,0.8-0.8,1.9-0.9,3.2
		c-0.2,1.1,0,2.2,0.4,3.1c0.4,0.9,1.1,1.7,1.9,2.4c0.8,0.7,1.8,1.2,2.9,1.6c1.1,0.4,2.2,0.7,3.3,0.8c2.2,0.3,4.5,0.2,7-0.2
		c2.5-0.5,4.7-1.3,6.8-2.5c2.1-1.2,3.9-2.7,5.4-4.6c1.5-1.9,2.4-4.1,2.7-6.6c0.2-2,0-3.8-0.8-5.5c-0.8-1.6-1.9-3-3.3-4.3
		c-1.4-1.2-3-2.2-4.9-3c-1.8-0.8-3.7-1.3-5.6-1.6c-3.8-0.5-7.4-0.4-11.1,0.4c-3.6,0.8-6.9,2.1-9.9,4s-5.5,4.3-7.5,7.3
		c-2,2.9-3.2,6.3-3.7,10.1c-0.4,3.5-0.2,6.6,0.8,9.3c0.9,2.7,2.4,5,4.3,6.9c1.9,1.9,4.2,3.5,6.9,4.6c2.7,1.2,5.5,2,8.6,2.4
		c3.4,0.5,6.8,0.5,10,0.2c3.2-0.3,6.5-1,9.6-2.1c3.2-1,6.3-2.4,9.4-4.1c3.1-1.7,6.2-3.6,9.3-5.7c2.1-1.4,4.2-2.9,6.2-4.5
		c2-1.6,4-3.3,5.9-4.9c1.5-1.3,3.1-2.6,4.6-3.9c-0.6,0.4-1.1,0.7-1.7,1c-0.9,0.6-1.9,1-2.9,1.3c-1,0.3-2,0.5-3,0.5
		c-0.9,0-1.7-0.1-2.5-0.4c-0.8-0.2-1.5-0.6-2.2-1.1c-0.7-0.5-1.2-1.1-1.7-1.8c-0.5-0.8-0.7-1.6-0.9-2.7c-0.2-1.3-0.2-2.7,0-4
		c0.2-1.3,0.5-2.6,0.9-3.8c0.4-1.2,0.9-2.4,1.5-3.5c0.6-1.1,1.1-2.1,1.7-3c-1.4-0.2-2.9-0.4-4.5-0.9c-1.6-0.4-3.1-1-4.5-1.9
		c-1.4-0.8-2.7-1.9-3.7-3.3c-1-1.3-1.7-3-2-4.9c-0.2-1.5-0.1-2.9,0.5-4.1c0.6-1.2,1.3-2.2,2.4-3.1c1-0.8,2.2-1.5,3.5-1.9
		c1.3-0.5,2.7-0.7,4.1-0.7c1.1,0,2.1,0.1,3.1,0.4c1,0.3,1.9,0.7,2.7,1.2c0.8,0.5,1.5,1.2,2,1.9c0.6,0.8,0.9,1.6,1.1,2.6
		c0,0.3,0,0.5-0.1,0.5s-0.1-0.2-0.2-0.5c-0.6-1.7-1.6-3-3.2-3.9c-1.6-0.9-3.4-1.4-5.3-1.4c-1.3,0-2.5,0.2-3.7,0.7
		c-1.2,0.4-2.1,1-2.9,1.8c-0.8,0.8-1.4,1.7-1.8,2.8c-0.4,1.1-0.5,2.3-0.3,3.7c0.2,1.8,0.8,3.3,1.6,4.5c0.9,1.2,1.9,2.3,3.1,3.1
		c1.2,0.8,2.5,1.4,4,1.9c1.4,0.5,2.9,0.8,4.3,0.9c1.5-2.4,3.1-4.5,5-6.4c1.9-1.9,4-3.7,6.2-5.4c1.2-0.9,2.5-1.7,3.9-2.6
		c1.4-0.9,2.9-1.7,4.5-2.4c1.5-0.7,3.1-1.3,4.8-1.7c1.7-0.4,3.4-0.7,5.1-0.7c1.2,0,2.4,0.3,3.6,0.9c1.1,0.6,1.8,1.5,2,2.7
		c0.2,0.9-0.1,2-0.8,3c-0.7,1.1-1.6,2.2-2.8,3.2c-1.2,1-2.5,2-4.1,3c-1.5,0.9-3.1,1.8-4.6,2.5c-1.5,0.7-3.1,1.3-4.6,1.9
		c-1.5,0.6-3.1,1-4.7,1.4c-1.6,0.4-3.2,0.7-5,0.9c-1.7,0.2-3.6,0.3-5.5,0.4c-0.7,1.1-1.3,2.3-2,3.4c-0.7,1.2-1.2,2.4-1.7,3.6
		c-0.5,1.2-0.8,2.5-1,3.9c-0.2,1.3-0.2,2.7,0,4.2c0.2,1.3,0.6,2.3,1.3,3.1c0.7,0.8,1.8,1.2,3.4,1.2c0.9,0,1.9-0.2,3-0.6
		c1-0.4,2-0.9,3-1.5c1-0.6,1.9-1.3,2.8-2.1c0.6-0.5,1.1-1,1.6-1.5c1.2-1.9,2.4-3.7,3.5-5.5c1.6-2.5,3.2-4.7,4.7-6.7
		c1.5-2,3-3.6,4.3-4.8c1.4-1.2,2.6-1.9,3.8-2.1c0.1-0.2,0.3-0.1,0.5,0c0.2,0.2,0.5,0.4,0.7,0.8c0.2,0.4-0.1,1.3-1.1,2.7
		c-1,1.4-2.3,3.1-3.9,5c-1.6,1.9-3.5,3.9-5.4,5.9c-1.7,1.9-3.4,3.5-4.9,5v0.1c-0.7,1-1.4,2.5-2.2,4.3s-1.8,4-3.2,6.5
		c-0.4,0.7-0.8,1.6-1.4,2.7c-0.6,1.1-1.1,2.2-1.7,3.4c-0.6,1.2-1,2.4-1.4,3.6c-0.4,1.2-0.6,2.3-0.6,3.2c0,0.8,0.2,1.5,0.5,2.1
		c0.4,0.6,0.9,0.9,1.7,0.9c1.2,0,2.5-0.4,3.9-1.2c1.4-0.8,2.7-1.8,3.9-3.1c1.2-1.2,2.2-2.6,3-4.1c0.8-1.5,1.2-2.9,1.2-4.3
		c0-0.8-0.2-1.5-0.5-2c-0.3-0.5-0.8-0.8-1.5-0.8c-0.6,0-1.2,0.2-1.8,0.5c-0.6,0.3-1.2,0.8-1.8,1.3c-0.6,0.5-1.1,1.1-1.5,1.8
		c-0.5,0.7-0.8,1.3-1.1,2c-0.2,0.4-0.3,0.7-0.3,0.9c0,0.2,0,0.3-0.1,0.3c-0.1,0-0.1-0.1-0.1-0.3c0-0.3,0.1-0.6,0.2-0.9
		c0.3-0.7,0.7-1.5,1.2-2.2c0.5-0.7,1.1-1.4,1.7-2c0.6-0.6,1.3-1,2-1.4c0.7-0.4,1.4-0.5,2.2-0.5c0.8,0,1.4,0.3,1.9,0.8
		c0.5,0.5,0.8,1.3,0.8,2.4c0,1.2-0.4,2.6-1.2,4.1c-0.8,1.5-1.8,2.9-3,4.2c-1.2,1.3-2.6,2.5-4.1,3.4c-1.5,1-2.9,1.5-4.4,1.7h-0.1
		c-0.2,0-0.4,0.1-0.5,0.1h-0.5c-0.6,0-1.2-0.1-1.7-0.3c-0.6-0.2-1.1-0.5-1.5-0.9c-0.5-0.4-0.8-0.9-1.1-1.6c-0.3-0.7-0.4-1.5-0.4-2.4
		C131,154.7,131.2,153.6,131.8,152.7"/>
	<path class="st1" d="M149.4,127.6c1.1-1.1,2.2-2.3,3.4-3.6c1.1-1.3,2.2-2.5,3.1-3.6c0.9-1.1,1.7-2.2,2.3-3.2c0.6-1,1-1.7,1.1-2.3
		c0.1-0.3,0.1-0.4-0.1-0.4h-0.4c-0.6,0-1.4,0.4-2.2,1.1c-0.8,0.7-1.7,1.6-2.6,2.8c-0.9,1.1-1.8,2.4-2.8,3.9
		c-0.9,1.4-1.8,2.8-2.6,4.2c-0.8,1.4-1.6,2.8-2.3,4.1c-0.1,0.1-0.1,0.2-0.2,0.3C147.2,129.8,148.3,128.8,149.4,127.6z M132.5,118.7
		c3.5-0.1,6.8-0.5,9.9-1.2c3.1-0.8,6.1-1.8,9.1-3.3c1.3-0.6,2.7-1.4,4-2.3c1.3-0.9,2.5-1.8,3.5-2.8c1-1,1.8-2,2.3-3.1
		c0.6-1.1,0.8-2.1,0.6-3.2c-0.1-0.9-0.4-1.7-1-2.2c-0.6-0.6-1.4-0.9-2.5-0.9c-1.7,0-3.3,0.2-4.8,0.7c-1.6,0.5-3.1,1.1-4.5,1.9
		c-1.4,0.8-2.8,1.7-4,2.6c-1.3,0.9-2.4,1.9-3.4,2.8c-2.1,1.9-3.9,3.7-5.3,5.4C135,115.1,133.7,116.9,132.5,118.7z M131.8,152.7
		c0.3-0.7,0.7-1.8,1.4-3.1c0.7-1.3,1.4-2.8,2.3-4.4c0.9-1.6,1.8-3.3,2.8-5c0.7-1.3,1.4-2.5,2.1-3.6c-0.5,0.5-1,0.9-1.6,1.4
		c-1.5,1.3-2.9,2.5-4.4,3.9c-1.9,1.5-3.8,3.1-5.6,4.6c-1.8,1.5-3.6,2.9-5.2,4.1c-6.3,4.6-12.6,7.9-19,9.8c-6.4,2-13.1,2.5-20.2,1.5
		h-0.1c-3-0.4-6-1.1-8.9-2.3c-2.9-1.1-5.4-2.6-7.6-4.5c-2.2-1.9-3.8-4.3-5-7.1c-1.2-2.8-1.5-6.1-1-9.9c0.3-2.6,1-5.1,2.1-7.3
		c1.1-2.2,2.5-4.2,4.2-6c1.7-1.8,3.6-3.3,5.8-4.5c2.2-1.3,4.5-2.3,6.9-3c2.4-0.8,4.9-1.2,7.5-1.5c2.6-0.2,5.2-0.1,7.7,0.2
		c2,0.2,3.9,0.8,5.8,1.5c1.9,0.8,3.6,1.8,5,3.1c1.5,1.3,2.6,2.8,3.4,4.5c0.8,1.7,1.1,3.6,0.8,5.7c-0.3,2.7-1.2,5-2.8,7.1
		c-1.5,2-3.4,3.7-5.6,5c-2.2,1.3-4.6,2.2-7.1,2.8c-2.5,0.6-4.9,0.7-7.2,0.4c-1.2-0.2-2.3-0.5-3.5-1c-1.1-0.5-2.1-1.1-3-1.9
		c-0.9-0.8-1.6-1.7-2-2.7c-0.5-1-0.7-2.2-0.5-3.4c0.1-0.8,0.4-1.6,0.7-2.4c0.4-0.8,0.8-1.5,1.2-2.1c0.5-0.6,0.9-1.1,1.4-1.4
		c0.5-0.3,0.9-0.5,1.2-0.4H84c0,0,0,0.1-0.2,0.3c-0.2,0.1-0.4,0.2-0.5,0.3c-0.9,0.8-1.6,1.5-2.1,2.4c-0.5,0.8-0.8,1.9-0.9,3.2
		c-0.2,1.1,0,2.2,0.4,3.1c0.4,0.9,1.1,1.7,1.9,2.4c0.8,0.7,1.8,1.2,2.9,1.6c1.1,0.4,2.2,0.7,3.3,0.8c2.2,0.3,4.5,0.2,7-0.2
		c2.5-0.5,4.7-1.3,6.8-2.5c2.1-1.2,3.9-2.7,5.4-4.6c1.5-1.9,2.4-4.1,2.7-6.6c0.2-2,0-3.8-0.8-5.5c-0.8-1.6-1.9-3-3.3-4.3
		c-1.4-1.2-3-2.2-4.9-3c-1.8-0.8-3.7-1.3-5.6-1.6c-3.8-0.5-7.4-0.4-11.1,0.4c-3.6,0.8-6.9,2.1-9.9,4s-5.5,4.3-7.5,7.3
		c-2,2.9-3.2,6.3-3.7,10.1c-0.4,3.5-0.2,6.6,0.8,9.3c0.9,2.7,2.4,5,4.3,6.9c1.9,1.9,4.2,3.5,6.9,4.6c2.7,1.2,5.5,2,8.6,2.4
		c3.4,0.5,6.8,0.5,10,0.2c3.2-0.3,6.5-1,9.6-2.1c3.2-1,6.3-2.4,9.4-4.1c3.1-1.7,6.2-3.6,9.3-5.7c2.1-1.4,4.2-2.9,6.2-4.5
		c2-1.6,4-3.3,5.9-4.9c1.5-1.3,3.1-2.6,4.6-3.9c-0.6,0.4-1.1,0.7-1.7,1c-0.9,0.6-1.9,1-2.9,1.3c-1,0.3-2,0.5-3,0.5
		c-0.9,0-1.7-0.1-2.5-0.4c-0.8-0.2-1.5-0.6-2.2-1.1c-0.7-0.5-1.2-1.1-1.7-1.8c-0.5-0.8-0.7-1.6-0.9-2.7c-0.2-1.3-0.2-2.7,0-4
		c0.2-1.3,0.5-2.6,0.9-3.8c0.4-1.2,0.9-2.4,1.5-3.5c0.6-1.1,1.1-2.1,1.7-3c-1.4-0.2-2.9-0.4-4.5-0.9c-1.6-0.4-3.1-1-4.5-1.9
		c-1.4-0.8-2.7-1.9-3.7-3.3c-1-1.3-1.7-3-2-4.9c-0.2-1.5-0.1-2.9,0.5-4.1c0.6-1.2,1.3-2.2,2.4-3.1c1-0.8,2.2-1.5,3.5-1.9
		c1.3-0.5,2.7-0.7,4.1-0.7c1.1,0,2.1,0.1,3.1,0.4c1,0.3,1.9,0.7,2.7,1.2c0.8,0.5,1.5,1.2,2,1.9c0.6,0.8,0.9,1.6,1.1,2.6
		c0,0.3,0,0.5-0.1,0.5s-0.1-0.2-0.2-0.5c-0.6-1.7-1.6-3-3.2-3.9c-1.6-0.9-3.4-1.4-5.3-1.4c-1.3,0-2.5,0.2-3.7,0.7
		c-1.2,0.4-2.1,1-2.9,1.8c-0.8,0.8-1.4,1.7-1.8,2.8c-0.4,1.1-0.5,2.3-0.3,3.7c0.2,1.8,0.8,3.3,1.6,4.5c0.9,1.2,1.9,2.3,3.1,3.1
		c1.2,0.8,2.5,1.4,4,1.9c1.4,0.5,2.9,0.8,4.3,0.9c1.5-2.4,3.1-4.5,5-6.4c1.9-1.9,4-3.7,6.2-5.4c1.2-0.9,2.5-1.7,3.9-2.6
		c1.4-0.9,2.9-1.7,4.5-2.4c1.5-0.7,3.1-1.3,4.8-1.7c1.7-0.4,3.4-0.7,5.1-0.7c1.2,0,2.4,0.3,3.6,0.9c1.1,0.6,1.8,1.5,2,2.7
		c0.2,0.9-0.1,2-0.8,3c-0.7,1.1-1.6,2.2-2.8,3.2c-1.2,1-2.5,2-4.1,3c-1.5,0.9-3.1,1.8-4.6,2.5c-1.5,0.7-3.1,1.3-4.6,1.9
		c-1.5,0.6-3.1,1-4.7,1.4c-1.6,0.4-3.2,0.7-5,0.9c-1.7,0.2-3.6,0.3-5.5,0.4c-0.7,1.1-1.3,2.3-2,3.4c-0.7,1.2-1.2,2.4-1.7,3.6
		c-0.5,1.2-0.8,2.5-1,3.9c-0.2,1.3-0.2,2.7,0,4.2c0.2,1.3,0.6,2.3,1.3,3.1c0.7,0.8,1.8,1.2,3.4,1.2c0.9,0,1.9-0.2,3-0.6
		c1-0.4,2-0.9,3-1.5c1-0.6,1.9-1.3,2.8-2.1c0.6-0.5,1.1-1,1.6-1.5c1.2-1.9,2.4-3.7,3.5-5.5c1.6-2.5,3.2-4.7,4.7-6.7
		c1.5-2,3-3.6,4.3-4.8c1.4-1.2,2.6-1.9,3.8-2.1c0.1-0.2,0.3-0.1,0.5,0c0.2,0.2,0.5,0.4,0.7,0.8c0.2,0.4-0.1,1.3-1.1,2.7
		c-1,1.4-2.3,3.1-3.9,5c-1.6,1.9-3.5,3.9-5.4,5.9c-1.7,1.9-3.4,3.5-4.9,5v0.1c-0.7,1-1.4,2.5-2.2,4.3s-1.8,4-3.2,6.5
		c-0.4,0.7-0.8,1.6-1.4,2.7c-0.6,1.1-1.1,2.2-1.7,3.4c-0.6,1.2-1,2.4-1.4,3.6c-0.4,1.2-0.6,2.3-0.6,3.2c0,0.8,0.2,1.5,0.5,2.1
		c0.4,0.6,0.9,0.9,1.7,0.9c1.2,0,2.5-0.4,3.9-1.2c1.4-0.8,2.7-1.8,3.9-3.1c1.2-1.2,2.2-2.6,3-4.1c0.8-1.5,1.2-2.9,1.2-4.3
		c0-0.8-0.2-1.5-0.5-2c-0.3-0.5-0.8-0.8-1.5-0.8c-0.6,0-1.2,0.2-1.8,0.5c-0.6,0.3-1.2,0.8-1.8,1.3c-0.6,0.5-1.1,1.1-1.5,1.8
		c-0.5,0.7-0.8,1.3-1.1,2c-0.2,0.4-0.3,0.7-0.3,0.9c0,0.2,0,0.3-0.1,0.3c-0.1,0-0.1-0.1-0.1-0.3c0-0.3,0.1-0.6,0.2-0.9
		c0.3-0.7,0.7-1.5,1.2-2.2c0.5-0.7,1.1-1.4,1.7-2c0.6-0.6,1.3-1,2-1.4c0.7-0.4,1.4-0.5,2.2-0.5c0.8,0,1.4,0.3,1.9,0.8
		c0.5,0.5,0.8,1.3,0.8,2.4c0,1.2-0.4,2.6-1.2,4.1c-0.8,1.5-1.8,2.9-3,4.2c-1.2,1.3-2.6,2.5-4.1,3.4c-1.5,1-2.9,1.5-4.4,1.7h-0.1
		c-0.2,0-0.4,0.1-0.5,0.1h-0.5c-0.6,0-1.2-0.1-1.7-0.3c-0.6-0.2-1.1-0.5-1.5-0.9c-0.5-0.4-0.8-0.9-1.1-1.6c-0.3-0.7-0.4-1.5-0.4-2.4
		C131,154.7,131.2,153.6,131.8,152.7z"/>
	<path class="st0" d="M176.4,153.1c-0.1,0.6-1.4,1.8-3.9,3.7c-2,1.5-3.6,2.3-5,2.3c-1.1,0-1.7-0.5-1.7-1.5c0-0.7,0.7-2,2.1-3.9
		c-2,1.8-3.3,2.9-4,3.4c-1.8,1.3-3.3,2-4.5,2c-1.1,0-1.7-0.5-1.7-1.4c0-0.2,0-0.5,0.1-0.7h0.1c0.3-1,1-1.5,2.1-1.5
		c0.7,0,1,0.2,1,0.6c0,0.1,0,0.3-0.1,0.6c-0.1,0.3-0.1,0.5-0.1,0.7c0,0,0,0.2,0.1,0.4c0.1,0,0.2,0.1,0.4,0.1c0.8,0,2.6-1.3,5.6-3.8
		c1.9-1.6,3.7-3.3,5.6-4.9c0.3-0.2,0.9-0.4,1.9-0.4c0.3,0,0.5,0.1,0.5,0.2c0,0.1-1,1.3-3,3.7c-2,2.4-3,3.9-3,4.6
		c0.1,0.4,0.3,0.5,0.4,0.5c0.7,0,1.9-0.8,3.6-2.3C174.7,154,175.9,153.2,176.4,153.1"/>
	<path class="st1" d="M176.4,153.1c-0.1,0.6-1.4,1.8-3.9,3.7c-2,1.5-3.6,2.3-5,2.3c-1.1,0-1.7-0.5-1.7-1.5c0-0.7,0.7-2,2.1-3.9
		c-2,1.8-3.3,2.9-4,3.4c-1.8,1.3-3.3,2-4.5,2c-1.1,0-1.7-0.5-1.7-1.4c0-0.2,0-0.5,0.1-0.7h0.1c0.3-1,1-1.5,2.1-1.5
		c0.7,0,1,0.2,1,0.6c0,0.1,0,0.3-0.1,0.6c-0.1,0.3-0.1,0.5-0.1,0.7c0,0,0,0.2,0.1,0.4c0.1,0,0.2,0.1,0.4,0.1c0.8,0,2.6-1.3,5.6-3.8
		c1.9-1.6,3.7-3.3,5.6-4.9c0.3-0.2,0.9-0.4,1.9-0.4c0.3,0,0.5,0.1,0.5,0.2c0,0.1-1,1.3-3,3.7c-2,2.4-3,3.9-3,4.6
		c0.1,0.4,0.3,0.5,0.4,0.5c0.7,0,1.9-0.8,3.6-2.3C174.7,154,175.9,153.2,176.4,153.1z"/>
	<path class="st0" d="M198.6,153.3c-0.2,0.6-0.9,1.3-2,2.2c-1.1,0.9-2,1.3-2.6,1.3c-0.5,0-0.8-0.1-0.9-0.2c-2.8,1.7-5.2,2.5-7.1,2.5
		c-2,0-3-0.7-3-2.1c0-0.9,0.4-2,1.1-3c-1.7,0.8-2.8,1.2-3.2,1.2c-0.5,0-0.9-0.1-1.2-0.4c-0.6,0.8-1.2,1.6-1.8,2.4
		c-0.9,1.2-1.6,1.8-2,1.8c-0.6,0-0.9-0.3-0.9-1c0-1,1.1-3,3.3-5.8l-0.9,0.7c-0.8,0.4-1.2,0.6-1.2,0.4l3.6-2.4c0-0.1,0.3-0.3,0.7-0.8
		c1.3-1.3,2.5-2,3.7-2c0.5,0,0.8,0.1,0.9,0.2v0.1l-2,2.5c-1.5,1.8-2.3,2.8-2.4,3c0.1,0.3,0.4,0.4,0.9,0.4c0.6,0,2.3-0.9,5.1-2.8
		c2.8-1.8,5.2-2.8,7.3-2.8h0.3h0.4c-0.1,0.1-0.3,0.2-0.7,0.4c-1.2,0.6-2.8,1.8-4.8,3.7c-2.2,2.1-3.3,3.7-3.3,4.8
		c0,0.5,0.3,0.8,0.9,0.8c1.6,0,3.5-1.1,5.8-3.4c0.1-0.5,0.4-1.2,0.9-2c0.5-0.8,0.9-1.4,1.3-1.6c0.2-0.1,0.5-0.2,0.9-0.5
		c0.1-0.3,0.2-0.7,0.2-1.4c0-0.1,0-0.2-0.1-0.3c-0.1-0.1-0.1-0.2-0.1-0.3c0-0.1,0.1-0.2,0.2-0.2c0.4,0,0.8,0.2,1.1,0.7
		c0.3,0.4,0.5,0.9,0.5,1.4c0,1.5-1.2,3.3-3.6,5.4c0.2,0,0.3,0.1,0.5,0.1c0.8,0,1.7-0.5,2.8-1.6c1-1,1.6-1.6,1.8-1.6L198.6,153.3z"/>
	<path class="st1" d="M198.6,153.3c-0.2,0.6-0.9,1.3-2,2.2c-1.1,0.9-2,1.3-2.6,1.3c-0.5,0-0.8-0.1-0.9-0.2c-2.8,1.7-5.2,2.5-7.1,2.5
		c-2,0-3-0.7-3-2.1c0-0.9,0.4-2,1.1-3c-1.7,0.8-2.8,1.2-3.2,1.2c-0.5,0-0.9-0.1-1.2-0.4c-0.6,0.8-1.2,1.6-1.8,2.4
		c-0.9,1.2-1.6,1.8-2,1.8c-0.6,0-0.9-0.3-0.9-1c0-1,1.1-3,3.3-5.8l-0.9,0.7c-0.8,0.4-1.2,0.6-1.2,0.4l3.6-2.4c0-0.1,0.3-0.3,0.7-0.8
		c1.3-1.3,2.5-2,3.7-2c0.5,0,0.8,0.1,0.9,0.2v0.1l-2,2.5c-1.5,1.8-2.3,2.8-2.4,3c0.1,0.3,0.4,0.4,0.9,0.4c0.6,0,2.3-0.9,5.1-2.8
		c2.8-1.8,5.2-2.8,7.3-2.8h0.3h0.4c-0.1,0.1-0.3,0.2-0.7,0.4c-1.2,0.6-2.8,1.8-4.8,3.7c-2.2,2.1-3.3,3.7-3.3,4.8
		c0,0.5,0.3,0.8,0.9,0.8c1.6,0,3.5-1.1,5.8-3.4c0.1-0.5,0.4-1.2,0.9-2c0.5-0.8,0.9-1.4,1.3-1.6c0.2-0.1,0.5-0.2,0.9-0.5
		c0.1-0.3,0.2-0.7,0.2-1.4c0-0.1,0-0.2-0.1-0.3c-0.1-0.1-0.1-0.2-0.1-0.3c0-0.1,0.1-0.2,0.2-0.2c0.4,0,0.8,0.2,1.1,0.7
		c0.3,0.4,0.5,0.9,0.5,1.4c0,1.5-1.2,3.3-3.6,5.4c0.2,0,0.3,0.1,0.5,0.1c0.8,0,1.7-0.5,2.8-1.6c1-1,1.6-1.6,1.8-1.6L198.6,153.3z"/>
	<path class="st0" d="M204.9,140.8c0.1-1.1,0.5-2,1.2-2.9c0.7-0.8,1.5-1.6,2.6-2.1c1.1-0.6,2.3-1,3.7-1.3c1.4-0.3,2.8-0.4,4.4-0.4
		c1.5,0,3.1,0.2,4.9,0.4c1.7,0.3,3.4,0.5,5,0.8c1.4,0.2,2.9,0.5,4.6,0.7c1.7,0.2,3.5,0.4,5.4,0.5c2.6,0.1,4.8-0.1,6.5-0.8
		c1.7-0.6,2.7-1.6,2.9-3c0.2-1.3-0.3-2.4-1.5-3.4c-1.3-1-3.1-1.5-5.5-1.5c-1.7,0-3.1,0.3-4.5,0.9c-1.3,0.6-2.3,1.3-3.1,2.2
		c-0.4,0.4-0.7,1-0.9,1.6c-0.1,0.3-0.1,0.5-0.1,0.6c0,0.1-0.1,0.2-0.1,0.2c-0.1,0-0.2-0.3-0.1-0.8c0.1-0.7,0.4-1.4,0.9-2
		c0.8-1,1.8-1.8,3.1-2.5c1.3-0.7,3-1,4.9-1c1.3,0,2.4,0.1,3.4,0.4c1,0.3,1.9,0.7,2.6,1.2c0.7,0.6,1.2,1.2,1.5,2
		c0.3,0.8,0.4,1.7,0.2,2.7c-0.2,0.8-0.5,1.6-1.2,2.2c-0.6,0.6-1.4,1.1-2.3,1.5c-0.9,0.4-2.1,0.7-3.3,0.9c-1.3,0.2-2.6,0.2-4,0.2
		c-1.8,0-3.5-0.1-5-0.4c-1.6-0.3-3.4-0.6-5.4-1c-1.6-0.3-3.2-0.6-4.8-0.9c-1.6-0.3-3.2-0.5-4.8-0.5c-1.3-0.1-2.6,0-3.8,0.2
		c-1.2,0.2-2.3,0.5-3.2,1c-0.9,0.5-1.7,1-2.3,1.8c-0.6,0.7-1,1.5-1.1,2.5c-0.1,1.1,0,2.2,0.3,3.4c0.3,1.2,1,2.3,2.2,3.3
		c0.6,0.5,1.1,0.9,1.6,1.3c0.5,0.4,0.8,0.8,1,1.4c0.2,0.9,0,1.9-0.8,3.1c-0.8,1.2-1.8,2.2-3.2,3.2c-2.6,1.9-4.8,2.9-6.6,2.9
		c-1.9,0-2.9-0.7-2.9-2.2c0-1.5,0.6-2.9,1.7-4.1V153c-1,1-1.7,1.5-1.9,1.5l-0.1-0.1v-0.1l0.1-0.2c1.3-1.3,3-2.6,5.1-3.7
		c2.2-1.2,4.1-1.8,5.7-1.8c0.2,0,0.3,0.1,0.4,0.3c0,0-0.3,0.2-0.7,0.4c-0.6,0.3-1.3,0.8-2.1,1.4c-0.8,0.6-1.6,1.4-2.6,2.3
		c-2,2.1-3,3.7-3,4.9c0,0.6,0.3,0.8,0.8,0.8c1.5,0,3.3-1.1,5.4-3.4c1.1-1.1,1.9-2.1,2.4-3c0.5-0.9,0.7-1.7,0.7-2.5
		c0-0.5-0.2-0.9-0.7-1.3c-0.5-0.4-1-0.9-1.5-1.5c-0.6-0.6-1-1.4-1.5-2.4C204.9,143.8,204.8,142.5,204.9,140.8"/>
	<path class="st1" d="M204.9,140.8c0.1-1.1,0.5-2,1.2-2.9c0.7-0.8,1.5-1.6,2.6-2.1c1.1-0.6,2.3-1,3.7-1.3c1.4-0.3,2.8-0.4,4.4-0.4
		c1.5,0,3.1,0.2,4.9,0.4c1.7,0.3,3.4,0.5,5,0.8c1.4,0.2,2.9,0.5,4.6,0.7c1.7,0.2,3.5,0.4,5.4,0.5c2.6,0.1,4.8-0.1,6.5-0.8
		c1.7-0.6,2.7-1.6,2.9-3c0.2-1.3-0.3-2.4-1.5-3.4c-1.3-1-3.1-1.5-5.5-1.5c-1.7,0-3.1,0.3-4.5,0.9c-1.3,0.6-2.3,1.3-3.1,2.2
		c-0.4,0.4-0.7,1-0.9,1.6c-0.1,0.3-0.1,0.5-0.1,0.6c0,0.1-0.1,0.2-0.1,0.2c-0.1,0-0.2-0.3-0.1-0.8c0.1-0.7,0.4-1.4,0.9-2
		c0.8-1,1.8-1.8,3.1-2.5c1.3-0.7,3-1,4.9-1c1.3,0,2.4,0.1,3.4,0.4c1,0.3,1.9,0.7,2.6,1.2c0.7,0.6,1.2,1.2,1.5,2
		c0.3,0.8,0.4,1.7,0.2,2.7c-0.2,0.8-0.5,1.6-1.2,2.2c-0.6,0.6-1.4,1.1-2.3,1.5c-0.9,0.4-2.1,0.7-3.3,0.9c-1.3,0.2-2.6,0.2-4,0.2
		c-1.8,0-3.5-0.1-5-0.4c-1.6-0.3-3.4-0.6-5.4-1c-1.6-0.3-3.2-0.6-4.8-0.9c-1.6-0.3-3.2-0.5-4.8-0.5c-1.3-0.1-2.6,0-3.8,0.2
		c-1.2,0.2-2.3,0.5-3.2,1c-0.9,0.5-1.7,1-2.3,1.8c-0.6,0.7-1,1.5-1.1,2.5c-0.1,1.1,0,2.2,0.3,3.4c0.3,1.2,1,2.3,2.2,3.3
		c0.6,0.5,1.1,0.9,1.6,1.3c0.5,0.4,0.8,0.8,1,1.4c0.2,0.9,0,1.9-0.8,3.1c-0.8,1.2-1.8,2.2-3.2,3.2c-2.6,1.9-4.8,2.9-6.6,2.9
		c-1.9,0-2.9-0.7-2.9-2.2c0-1.5,0.6-2.9,1.7-4.1V153c-1,1-1.7,1.5-1.9,1.5l-0.1-0.1v-0.1l0.1-0.2c1.3-1.3,3-2.6,5.1-3.7
		c2.2-1.2,4.1-1.8,5.7-1.8c0.2,0,0.3,0.1,0.4,0.3c0,0-0.3,0.2-0.7,0.4c-0.6,0.3-1.3,0.8-2.1,1.4c-0.8,0.6-1.6,1.4-2.6,2.3
		c-2,2.1-3,3.7-3,4.9c0,0.6,0.3,0.8,0.8,0.8c1.5,0,3.3-1.1,5.4-3.4c1.1-1.1,1.9-2.1,2.4-3c0.5-0.9,0.7-1.7,0.7-2.5
		c0-0.5-0.2-0.9-0.7-1.3c-0.5-0.4-1-0.9-1.5-1.5c-0.6-0.6-1-1.4-1.5-2.4C204.9,143.8,204.8,142.5,204.9,140.8z"/>
	<path class="st0" d="M228.9,153.1c-0.1,0.6-1.4,1.8-3.9,3.7c-2,1.5-3.6,2.3-5,2.3c-1.1,0-1.7-0.5-1.7-1.5c0-0.7,0.7-2,2.1-3.9
		c-2,1.8-3.3,2.9-4,3.4c-1.8,1.3-3.3,2-4.5,2c-1.1,0-1.7-0.5-1.7-1.4c0-0.2,0-0.5,0.1-0.7h0.1c0.3-1,1-1.5,2.1-1.5
		c0.7,0,1,0.2,1,0.6c0,0.1,0,0.3-0.1,0.6c-0.1,0.3-0.1,0.5-0.1,0.7c0,0,0,0.2,0.1,0.4c0.1,0,0.2,0.1,0.4,0.1c0.8,0,2.6-1.3,5.6-3.8
		c1.9-1.6,3.7-3.3,5.6-4.9c0.3-0.2,0.9-0.4,1.9-0.4c0.3,0,0.5,0.1,0.5,0.2c0,0.1-1,1.3-3,3.7c-2,2.4-3,3.9-3,4.6
		c0.1,0.4,0.3,0.5,0.4,0.5c0.7,0,1.9-0.8,3.6-2.3C227.2,154,228.4,153.2,228.9,153.1"/>
	<path class="st1" d="M228.9,153.1c-0.1,0.6-1.4,1.8-3.9,3.7c-2,1.5-3.6,2.3-5,2.3c-1.1,0-1.7-0.5-1.7-1.5c0-0.7,0.7-2,2.1-3.9
		c-2,1.8-3.3,2.9-4,3.4c-1.8,1.3-3.3,2-4.5,2c-1.1,0-1.7-0.5-1.7-1.4c0-0.2,0-0.5,0.1-0.7h0.1c0.3-1,1-1.5,2.1-1.5
		c0.7,0,1,0.2,1,0.6c0,0.1,0,0.3-0.1,0.6c-0.1,0.3-0.1,0.5-0.1,0.7c0,0,0,0.2,0.1,0.4c0.1,0,0.2,0.1,0.4,0.1c0.8,0,2.6-1.3,5.6-3.8
		c1.9-1.6,3.7-3.3,5.6-4.9c0.3-0.2,0.9-0.4,1.9-0.4c0.3,0,0.5,0.1,0.5,0.2c0,0.1-1,1.3-3,3.7c-2,2.4-3,3.9-3,4.6
		c0.1,0.4,0.3,0.5,0.4,0.5c0.7,0,1.9-0.8,3.6-2.3C227.2,154,228.4,153.2,228.9,153.1z"/>
	<path class="st0" d="M251.1,153.3c-0.2,0.6-0.9,1.3-2,2.2c-1.1,0.9-2,1.3-2.6,1.3c-0.5,0-0.8-0.1-0.9-0.2c-2.8,1.7-5.2,2.5-7.1,2.5
		c-2,0-3-0.7-3-2.1c0-0.9,0.4-2,1.1-3c-1.7,0.8-2.8,1.2-3.2,1.2c-0.5,0-0.9-0.1-1.2-0.4c-0.6,0.8-1.2,1.6-1.8,2.4
		c-0.9,1.2-1.6,1.8-2,1.8c-0.6,0-1-0.3-1-1c0-1,1.1-3,3.3-5.8l-0.9,0.7c-0.8,0.4-1.2,0.6-1.2,0.4l3.6-2.4c0-0.1,0.3-0.3,0.7-0.8
		c1.3-1.3,2.5-2,3.7-2c0.5,0,0.8,0.1,0.9,0.2v0.1l-2,2.5c-1.5,1.8-2.3,2.8-2.4,3c0.1,0.3,0.4,0.4,0.9,0.4c0.6,0,2.3-0.9,5.1-2.8
		c2.8-1.8,5.2-2.8,7.3-2.8h0.3h0.4c-0.1,0.1-0.3,0.2-0.7,0.4c-1.2,0.6-2.8,1.8-4.8,3.7c-2.2,2.1-3.3,3.7-3.3,4.8
		c0,0.5,0.3,0.8,0.9,0.8c1.6,0,3.5-1.1,5.8-3.4c0.1-0.5,0.4-1.2,0.9-2c0.5-0.8,0.9-1.4,1.3-1.6c0.2-0.1,0.5-0.2,0.9-0.5
		c0.1-0.3,0.2-0.7,0.2-1.4c0-0.1,0-0.2-0.1-0.3c-0.1-0.1-0.1-0.2-0.1-0.3c0-0.1,0.1-0.2,0.2-0.2c0.4,0,0.8,0.2,1.1,0.7
		c0.3,0.4,0.5,0.9,0.5,1.4c0,1.5-1.2,3.3-3.6,5.4c0.2,0,0.3,0.1,0.5,0.1c0.8,0,1.7-0.5,2.8-1.6c1-1,1.6-1.6,1.8-1.6L251.1,153.3z"/>
	<path class="st1" d="M251.1,153.3c-0.2,0.6-0.9,1.3-2,2.2c-1.1,0.9-2,1.3-2.6,1.3c-0.5,0-0.8-0.1-0.9-0.2c-2.8,1.7-5.2,2.5-7.1,2.5
		c-2,0-3-0.7-3-2.1c0-0.9,0.4-2,1.1-3c-1.7,0.8-2.8,1.2-3.2,1.2c-0.5,0-0.9-0.1-1.2-0.4c-0.6,0.8-1.2,1.6-1.8,2.4
		c-0.9,1.2-1.6,1.8-2,1.8c-0.6,0-1-0.3-1-1c0-1,1.1-3,3.3-5.8l-0.9,0.7c-0.8,0.4-1.2,0.6-1.2,0.4l3.6-2.4c0-0.1,0.3-0.3,0.7-0.8
		c1.3-1.3,2.5-2,3.7-2c0.5,0,0.8,0.1,0.9,0.2v0.1l-2,2.5c-1.5,1.8-2.3,2.8-2.4,3c0.1,0.3,0.4,0.4,0.9,0.4c0.6,0,2.3-0.9,5.1-2.8
		c2.8-1.8,5.2-2.8,7.3-2.8h0.3h0.4c-0.1,0.1-0.3,0.2-0.7,0.4c-1.2,0.6-2.8,1.8-4.8,3.7c-2.2,2.1-3.3,3.7-3.3,4.8
		c0,0.5,0.3,0.8,0.9,0.8c1.6,0,3.5-1.1,5.8-3.4c0.1-0.5,0.4-1.2,0.9-2c0.5-0.8,0.9-1.4,1.3-1.6c0.2-0.1,0.5-0.2,0.9-0.5
		c0.1-0.3,0.2-0.7,0.2-1.4c0-0.1,0-0.2-0.1-0.3c-0.1-0.1-0.1-0.2-0.1-0.3c0-0.1,0.1-0.2,0.2-0.2c0.4,0,0.8,0.2,1.1,0.7
		c0.3,0.4,0.5,0.9,0.5,1.4c0,1.5-1.2,3.3-3.6,5.4c0.2,0,0.3,0.1,0.5,0.1c0.8,0,1.7-0.5,2.8-1.6c1-1,1.6-1.6,1.8-1.6L251.1,153.3z"/>
	<path class="st0" d="M254.9,156.9c0,0.6-0.4,1.1-1.2,1.7c-0.8,0.6-1.5,0.8-2,0.8c-0.2-0.2-0.2-0.5-0.2-0.9c0-1.5,0.8-2.3,2.6-2.3
		C254.6,156.2,254.9,156.5,254.9,156.9"/>
	<path class="st1" d="M254.9,156.9c0,0.6-0.4,1.1-1.2,1.7c-0.8,0.6-1.5,0.8-2,0.8c-0.2-0.2-0.2-0.5-0.2-0.9c0-1.5,0.8-2.3,2.6-2.3
		C254.6,156.2,254.9,156.5,254.9,156.9z"/>
	<path class="st0" d="M262.4,156.9c0,0.6-0.4,1.1-1.2,1.7c-0.8,0.6-1.5,0.8-2,0.8c-0.2-0.2-0.2-0.5-0.2-0.9c0-1.5,0.9-2.3,2.6-2.3
		C262.1,156.2,262.4,156.5,262.4,156.9"/>
	<path class="st1" d="M262.4,156.9c0,0.6-0.4,1.1-1.2,1.7c-0.8,0.6-1.5,0.8-2,0.8c-0.2-0.2-0.2-0.5-0.2-0.9c0-1.5,0.9-2.3,2.6-2.3
		C262.1,156.2,262.4,156.5,262.4,156.9z"/>
	<path class="st0" d="M269.8,156.9c0,0.6-0.4,1.1-1.2,1.7c-0.8,0.6-1.5,0.8-2,0.8c-0.2-0.2-0.2-0.5-0.2-0.9c0-1.5,0.8-2.3,2.6-2.3
		C269.5,156.2,269.8,156.5,269.8,156.9"/>
	<path class="st1" d="M269.8,156.9c0,0.6-0.4,1.1-1.2,1.7c-0.8,0.6-1.5,0.8-2,0.8c-0.2-0.2-0.2-0.5-0.2-0.9c0-1.5,0.8-2.3,2.6-2.3
		C269.5,156.2,269.8,156.5,269.8,156.9z"/>
</g>
<g>
	<defs>
		<rect id="SVGID_3_" x="0" y="0.1" width="170.5" height="21.8"/>
	</defs>
	<clipPath id="SVGID_4_">
		<use xlink:href="#SVGID_3_"  style="overflow:visible;"/>
	</clipPath>
	<path class="st2" d="M86.8,4.4c0.4-0.5,0.7-1.1,1.2-1.5c0.5-0.4,1.1-0.8,1.7-1c0.7-0.2,1.4-0.3,2-0.2c0.7,0,1.4,0.2,2,0.5
		c1.3,0.6,2.4,1.6,3,2.9c0.3,0.7,0.5,1.4,0.6,2.1c0,0.2,0,0.4,0,0.6l0,0.5c0,0.4,0,0.7-0.1,1.1c-0.1,0.7-0.3,1.5-0.6,2.2
		c-0.4,0.7-0.8,1.3-1.3,1.8c-0.5,0.5-1,1-1.4,1.4c-0.5,0.5-0.9,0.8-1.5,1.3c-0.5,0.4-1,0.8-1.6,1.2c-0.5,0.4-1,0.7-1.5,1.1
		c-0.9,0.8-1.8,1.6-2.6,2.5l-0.9,1.1l-1-1.1c-0.3-0.4-0.8-0.8-1.3-1.3c-0.5-0.4-1-0.8-1.5-1.2c-1-0.8-2.1-1.5-3.2-2.2l-0.8-0.5
		c-0.3-0.2-0.5-0.3-0.8-0.6c-0.6-0.4-1.2-0.9-1.7-1.4c-1-1-2-2.3-2.3-3.9c-0.2-0.8-0.1-1.5-0.1-2.2l0-0.5l0.1-0.6
		c0.1-0.4,0.2-0.7,0.4-1.1C74.6,4,75.7,2.9,77,2.3c0.7-0.3,1.4-0.5,2.1-0.5c0.3,0,0.8,0,1.1,0c0.3,0,0.7,0.1,1,0.2
		c0.7,0.2,1.3,0.5,1.9,0.9c0.5,0.4,1,0.9,1.3,1.5c-0.9-1-2.1-1.6-3.3-1.7c-0.3,0-0.6-0.1-0.9,0l-0.2,0c0,0-0.1,0-0.2,0
		c-0.2,0-0.3,0-0.5,0.1c-0.6,0.1-1.2,0.3-1.7,0.6c-1,0.6-1.8,1.6-2.1,2.6c-0.1,0.3-0.2,0.5-0.2,0.8l0,0.4c0,0.1,0,0.3,0,0.5
		c0,0.6,0,1.2,0.2,1.7c0.3,1,1,1.9,1.9,2.7c0.4,0.4,1,0.7,1.4,1.1l1.7,1c1.2,0.7,2.3,1.4,3.4,2.3c0.6,0.4,1.1,0.8,1.6,1.3
		c0.5,0.5,1,0.9,1.6,1.5l-1.9,0c0.9-1,1.9-2,2.9-2.8c0.5-0.4,1.1-0.8,1.6-1.2c0.5-0.4,1-0.7,1.5-1.1l1.4-1.2
		c0.5-0.4,0.9-0.8,1.4-1.2c0.8-0.8,1.4-1.6,1.6-2.7c0.1-0.3,0.1-0.5,0.1-0.8l0-0.5c0-0.1,0-0.3,0-0.4c0-0.5-0.1-1.1-0.3-1.6
		c-0.4-1-1.1-1.9-2.1-2.5c-0.5-0.3-1-0.5-1.6-0.6c-0.6-0.1-1.2-0.1-1.8-0.1c-0.6,0.1-1.1,0.3-1.7,0.7C87.7,3.5,87.3,4,86.8,4.4"/>
	<path class="st2" d="M0,0.1C0,0.1,1,1,2.9,2.3c0.5,0.3,1,0.7,1.6,1c0.6,0.4,1.3,0.7,2,1.1c1.4,0.7,3.1,1.4,4.9,2
		c0.9,0.3,1.9,0.5,2.9,0.8c1,0.3,2.1,0.4,3.2,0.7c1.1,0.2,2.2,0.3,3.4,0.4c1.2,0.1,2.4,0.1,3.6,0.2c2.4,0,4.9-0.1,7.5-0.3
		c1.3-0.1,2.6-0.3,3.8-0.5c1.3-0.2,2.6-0.4,3.9-0.7c2.6-0.5,5.2-1,7.8-1.5C50,5,52.5,4.6,54.9,4.1c4.9-0.9,9.5-1.6,13.4-2.1
		c4-0.5,7.3-0.6,9.7-0.4c1.2,0.1,2.1,0.3,2.7,0.5c0.6,0.2,0.9,0.3,0.9,0.3s-0.3-0.1-0.9-0.2c-0.6-0.1-1.5-0.2-2.7-0.2
		c-1.1,0-2.5,0.1-4.1,0.4c-1.6,0.2-3.4,0.6-5.3,1c-3.9,0.8-8.4,1.8-13.2,2.8c-2.4,0.5-4.9,1.1-7.5,1.6c-2.6,0.5-5.2,1-7.8,1.6
		c-1.3,0.3-2.6,0.4-4,0.7c-1.3,0.2-2.6,0.4-4,0.5c-2.6,0.3-5.3,0.2-7.8,0.1c-1.3-0.1-2.5-0.2-3.7-0.4c-1.2-0.2-2.4-0.4-3.5-0.7
		c-1.1-0.3-2.2-0.5-3.3-0.9c-1-0.4-2-0.7-3-1.1C9,6.9,7.4,6,6,5.1C5.3,4.7,4.7,4.3,4.1,3.9C3.5,3.5,3,3,2.6,2.7
		c-0.9-0.7-1.5-1.4-2-1.9C0.2,0.3,0,0.1,0,0.1"/>
	<path class="st2" d="M170.5,0.1c0,0-0.2,0.3-0.6,0.7c-0.4,0.5-1.1,1.1-2,1.9c-0.4,0.4-0.9,0.8-1.5,1.2c-0.6,0.4-1.2,0.8-1.9,1.3
		c-1.4,0.9-3,1.7-4.9,2.5c-0.9,0.4-1.9,0.7-3,1.1c-1,0.3-2.1,0.6-3.3,0.9c-1.1,0.3-2.3,0.4-3.5,0.7c-1.2,0.2-2.5,0.2-3.7,0.4
		c-2.5,0.1-5.2,0.1-7.8-0.1c-1.3-0.1-2.6-0.3-4-0.5c-1.3-0.2-2.7-0.4-4-0.7c-2.6-0.5-5.2-1-7.8-1.6c-2.6-0.5-5.1-1.1-7.5-1.6
		c-4.9-1-9.4-2.1-13.2-2.8c-1.9-0.4-3.7-0.7-5.3-1c-1.6-0.3-3-0.4-4.1-0.4c-1.1,0-2,0.1-2.7,0.2c-0.6,0.1-0.9,0.2-0.9,0.2
		s0.3-0.1,0.9-0.3c0.6-0.2,1.5-0.4,2.7-0.5c2.3-0.2,5.7-0.1,9.7,0.4c4,0.5,8.5,1.2,13.4,2.1c2.4,0.5,5,0.9,7.5,1.4
		c2.6,0.5,5.2,1,7.8,1.5c1.3,0.3,2.6,0.5,3.9,0.7c1.3,0.2,2.6,0.4,3.8,0.5c2.5,0.3,5.1,0.4,7.5,0.3c1.2-0.1,2.4-0.1,3.6-0.2
		c1.2-0.2,2.3-0.3,3.4-0.4c1.1-0.2,2.2-0.4,3.2-0.7c1-0.3,2-0.5,2.9-0.8c1.8-0.6,3.5-1.3,4.9-2c0.7-0.4,1.4-0.7,2-1.1
		c0.6-0.3,1.1-0.7,1.6-1C169.6,1,170.5,0.1,170.5,0.1"/>
</g>
</svg>
