<?xml version="1.0" encoding="UTF-8" standalone="no"?>
<svg
   xmlns:osb="http://www.openswatchbook.org/uri/2009/osb"
   xmlns:dc="http://purl.org/dc/elements/1.1/"
   xmlns:cc="http://creativecommons.org/ns#"
   xmlns:rdf="http://www.w3.org/1999/02/22-rdf-syntax-ns#"
   xmlns:svg="http://www.w3.org/2000/svg"
   xmlns="http://www.w3.org/2000/svg"
   xmlns:xlink="http://www.w3.org/1999/xlink"
   xmlns:sodipodi="http://sodipodi.sourceforge.net/DTD/sodipodi-0.dtd"
   xmlns:inkscape="http://www.inkscape.org/namespaces/inkscape"
   width="304.36"
   height="304.36"
   version="1.1"
   id="svg3813"
   sodipodi:docname="instagramhover.svg"
   inkscape:version="0.92.1 r15371">
  <metadata
     id="metadata3819">
    <rdf:RDF>
      <cc:Work
         rdf:about="">
        <dc:format>image/svg+xml</dc:format>
        <dc:type
           rdf:resource="http://purl.org/dc/dcmitype/StillImage" />
        <dc:title></dc:title>
      </cc:Work>
    </rdf:RDF>
  </metadata>
  <defs
     id="defs3817">
    <linearGradient
       id="linearGradient6338"
       osb:paint="solid">
      <stop
         style="stop-color:#000000;stop-opacity:1;"
         offset="0"
         id="stop6336" />
    </linearGradient>
    <linearGradient
       inkscape:collect="always"
       id="linearGradient4744">
      <stop
         style="stop-color:#000000;stop-opacity:1;"
         offset="0"
         id="stop4740" />
      <stop
         style="stop-color:#000000;stop-opacity:0;"
         offset="1"
         id="stop4742" />
    </linearGradient>
    <linearGradient
       inkscape:collect="always"
       xlink:href="#linearGradient4744"
       id="linearGradient4746"
       x1="31.929993"
       y1="159.67999"
       x2="265.42999"
       y2="159.67999"
       gradientUnits="userSpaceOnUse" />
  </defs>
  <sodipodi:namedview
     pagecolor="#ffffff"
     bordercolor="#666666"
     borderopacity="1"
     objecttolerance="10"
     gridtolerance="10"
     guidetolerance="10"
     inkscape:pageopacity="0"
     inkscape:pageshadow="2"
     inkscape:window-width="1920"
     inkscape:window-height="1017"
     id="namedview3815"
     showgrid="false"
     inkscape:zoom="2"
     inkscape:cx="174.42403"
     inkscape:cy="175.82062"
     inkscape:window-x="-8"
     inkscape:window-y="-8"
     inkscape:window-maximized="1"
     inkscape:current-layer="svg3813"
     inkscape:snap-bbox="true"
     inkscape:snap-bbox-midpoints="true" />
  <!-- Created with Method Draw - http://github.com/duopixel/Method-Draw/ -->
  <g
     id="g3811"
     transform="matrix(1.2806768,0,0,1.2532709,-38.222994,-47.915425)"
     style="fill:#000000;fill-opacity:1;fill-rule:nonzero;stroke:#000000;stroke-width:5.56275558;stroke-miterlimit:4;stroke-dasharray:none;stroke-dashoffset:0;stroke-opacity:1;paint-order:stroke fill markers">
    <title
       id="title3808"
       style="stroke:url(#linearGradient4746)">Layer 1</title>
    <ellipse
       ry="118.5"
       rx="116"
       id="svg_1"
       cy="159.67999"
       cx="148.67999"
       style="fill:#000000;fill-opacity:1;fill-rule:nonzero;stroke:#000000;stroke-width:5.56275558;stroke-miterlimit:4;stroke-dasharray:none;stroke-dashoffset:0;stroke-opacity:1;paint-order:stroke fill markers" />
    <path
       style="fill:#ffffff;fill-opacity:1;fill-rule:evenodd;stroke:#000000;stroke-width:0;stroke-miterlimit:4;stroke-dasharray:none;stroke-dashoffset:0;stroke-opacity:0;paint-order:stroke fill markers"
       d="m -103.08953,248.34452 c -8.12484,-1.29756 -15.51893,-5.39501 -21.58837,-11.96323 -3.93616,-4.25963 -6.54733,-8.63702 -8.22705,-13.79192 -1.12229,-3.44421 -1.30757,-4.90317 -1.33343,-10.5 -0.0345,-7.4742 0.60807,-10.29543 3.7013,-16.25 3.89386,-7.49583 9.19239,-12.58054 17.23434,-16.53887 6.64309,-3.26981 10.78382,-4.13345 18.226774,-3.80163 7.079191,0.3156 10.39667,1.1617 16.49046,4.20576 7.95293,3.97277 14.0093,10.74778 17.79782,19.90968 1.33386,3.22572 1.449935,4.03812 1.61778,11.32268 0.20259,8.79251 -0.22286,11.07782 -3.141145,16.87276 -4.68084,9.29491 -12.106555,15.65295 -22.25081,19.05159 -3.865196,1.29496 -5.648076,1.59956 -10.222895,1.74652 -3.047665,0.0979 -6.784814,-0.0206 -8.304774,-0.26334 z"
       id="path8598"
       inkscape:connector-curvature="0"
       transform="matrix(0.78083713,0,0,0.79791209,29.845933,38.232297)" />
    <path
       style="fill:#ffffff;fill-opacity:1;fill-rule:evenodd;stroke:#000000;stroke-width:0;stroke-miterlimit:4;stroke-dasharray:none;stroke-dashoffset:0;stroke-opacity:0;paint-order:stroke fill markers"
       d="m -103.08953,248.34452 c -8.12484,-1.29756 -15.51893,-5.39501 -21.58837,-11.96323 -3.93616,-4.25963 -6.54733,-8.63702 -8.22705,-13.79192 -1.12229,-3.44421 -1.30757,-4.90317 -1.33343,-10.5 -0.0345,-7.4742 0.60807,-10.29543 3.7013,-16.25 3.89386,-7.49583 9.19239,-12.58054 17.23434,-16.53887 6.64309,-3.26981 10.78382,-4.13345 18.226774,-3.80163 7.079191,0.3156 10.39667,1.1617 16.49046,4.20576 7.95293,3.97277 14.0093,10.74778 17.79782,19.90968 1.33386,3.22572 1.449935,4.03812 1.61778,11.32268 0.20259,8.79251 -0.22286,11.07782 -3.141145,16.87276 -4.68084,9.29491 -12.106555,15.65295 -22.25081,19.05159 -3.865196,1.29496 -5.648076,1.59956 -10.222895,1.74652 -3.047665,0.0979 -6.784814,-0.0206 -8.304774,-0.26334 z"
       id="path8600"
       inkscape:connector-curvature="0"
       transform="matrix(0.78083713,0,0,0.79791209,29.845933,38.232297)" />
    <path
       style="fill:#ffffff;fill-opacity:1;fill-rule:evenodd;stroke:#000000;stroke-width:0;stroke-miterlimit:4;stroke-dasharray:none;stroke-dashoffset:0;stroke-opacity:0;paint-order:stroke fill markers"
       d="m 143.6777,188.64981 c -6.34417,-1.03534 -12.11775,-4.30474 -16.857,-9.5456 -3.0735,-3.39881 -5.1124,-6.89158 -6.42398,-11.00474 -0.87633,-2.74818 -1.021,-3.9123 -1.04119,-8.37808 -0.0269,-5.96375 0.4748,-8.21485 2.89011,-12.96607 3.04047,-5.98101 7.17776,-10.03817 13.45721,-13.19656 5.18717,-2.60903 8.42041,-3.29813 14.23214,-3.03337 5.5277,0.25182 8.11811,0.92693 12.87637,3.35583 6.20994,3.16992 10.93898,8.57578 13.89719,15.88617 1.04153,2.57384 1.13217,3.22206 1.26323,9.0345 0.15819,7.01565 -0.17402,8.83913 -2.45273,13.46298 -3.65497,7.41652 -9.45324,12.48968 -17.37425,15.2015 -3.01809,1.03326 -4.41023,1.2763 -7.98242,1.39357 -2.37973,0.0781 -5.29783,-0.0164 -6.48468,-0.21013 z"
       id="path8602"
       inkscape:connector-curvature="0" />
    <path
       style="fill:#ffffff;fill-opacity:1;fill-rule:evenodd;stroke:#000000;stroke-width:0;stroke-miterlimit:4;stroke-dasharray:none;stroke-dashoffset:0;stroke-opacity:0;paint-order:stroke fill markers"
       d="m 178.58346,135.40712 c -4.9031,-2.55208 -5.3166,-9.39449 -0.75858,-12.55264 1.41418,-0.97986 2.07673,-1.16906 4.09374,-1.16906 2.04512,0 2.65548,0.17973 4.06462,1.19687 3.0617,2.20997 4.08447,6.00807 2.47095,9.17599 -1.83017,3.59328 -6.41359,5.14829 -9.87073,3.34884 z"
       id="path8604"
       inkscape:connector-curvature="0" />
  </g>
  <path
     style="fill:#000000;fill-opacity:0;fill-rule:nonzero;stroke:#000000;stroke-width:0;stroke-miterlimit:4;stroke-dasharray:none;stroke-dashoffset:0;stroke-opacity:0;paint-order:stroke fill markers"
     d="m 403.74153,203.27289 c -19.69193,-3.06801 -33.97788,-16.31374 -50.46075,-46.78651 -5.36046,-9.91018 -14.32075,-29.47626 -14.77871,-32.27143 -0.58236,-3.55453 0.46074,-3.83907 14.07364,-3.83907 12.09854,0 12.14302,0.005 13.70801,1.61207 0.86355,0.88664 2.78218,4.51382 4.26363,8.06038 4.89419,11.71662 12.76187,25.03879 16.54424,28.014 2.45629,1.93212 4.69976,1.51083 6.26337,-1.17618 1.02404,-1.75977 1.3255,-3.76333 1.56525,-10.40279 0.63097,-17.47371 -0.84371,-21.97119 -7.92915,-24.18229 -1.17801,-0.36761 -1.08113,-0.59398 1.11899,-2.61469 l 2.40864,-2.21224 h 13.90264 c 13.90105,0 13.90281,1.8e-4 15.48539,1.58276 l 1.58277,1.58277 0.004,15.66645 c 0.004,15.75844 0.44095,19.73017 2.41734,21.95355 1.6777,1.88736 3.65863,1.3503 6.53693,-1.77229 5.2317,-5.67573 11.47915,-16.81119 16.69324,-29.75409 1.68356,-4.17907 2.48544,-5.40305 3.93243,-6.00241 1.24324,-0.51497 6.02071,-0.69002 15.11795,-0.55395 12.62507,0.18885 13.37084,0.26955 14.68951,1.58958 1.09722,1.09836 1.30315,1.8493 0.97979,3.57295 -0.77945,4.15483 -4.80414,11.21502 -13.82383,24.25004 -4.98284,7.20107 -9.23637,13.8972 -9.4523,14.88029 -0.64181,2.92214 0.6768,5.11538 7.09686,11.80416 12.27396,12.78772 16.98327,19.7176 16.10788,23.70322 -0.79546,3.62169 -1.90934,3.90425 -15.39114,3.90425 -7.48188,0 -13.17287,-0.29307 -14.72578,-0.75833 -3.22216,-0.96538 -6.97228,-4.27844 -13.73843,-12.13728 -3.03875,-3.52947 -6.25907,-6.61475 -7.39572,-7.08556 -4.42876,-1.83445 -7.26663,2.1114 -8.32552,11.57604 -0.83378,7.4524 -1.51007,8.04917 -9.28369,8.192 -3.27128,0.0601 -7.40547,-0.11783 -9.18708,-0.3954 z"
     id="path4750"
     inkscape:connector-curvature="0" />
  <path
     style="fill:#000000;fill-opacity:0;fill-rule:nonzero;stroke:#000000;stroke-width:0;stroke-miterlimit:4;stroke-dasharray:none;stroke-dashoffset:0;stroke-opacity:0;paint-order:stroke fill markers"
     d="m 403.74153,203.27289 c -19.69193,-3.06801 -33.97788,-16.31374 -50.46075,-46.78651 -5.36046,-9.91018 -14.32075,-29.47626 -14.77871,-32.27143 -0.58236,-3.55453 0.46074,-3.83907 14.07364,-3.83907 12.09854,0 12.14302,0.005 13.70801,1.61207 0.86355,0.88664 2.78218,4.51382 4.26363,8.06038 4.89419,11.71662 12.76187,25.03879 16.54424,28.014 2.45629,1.93212 4.69976,1.51083 6.26337,-1.17618 1.02404,-1.75977 1.3255,-3.76333 1.56525,-10.40279 0.63097,-17.47371 -0.84371,-21.97119 -7.92915,-24.18229 -1.17801,-0.36761 -1.08113,-0.59398 1.11899,-2.61469 l 2.40864,-2.21224 h 13.90264 c 13.90105,0 13.90281,1.8e-4 15.48539,1.58276 l 1.58277,1.58277 0.004,15.66645 c 0.004,15.75844 0.44095,19.73017 2.41734,21.95355 1.6777,1.88736 3.65863,1.3503 6.53693,-1.77229 5.2317,-5.67573 11.47915,-16.81119 16.69324,-29.75409 1.68356,-4.17907 2.48544,-5.40305 3.93243,-6.00241 1.24324,-0.51497 6.02071,-0.69002 15.11795,-0.55395 12.62507,0.18885 13.37084,0.26955 14.68951,1.58958 1.09722,1.09836 1.30315,1.8493 0.97979,3.57295 -0.77945,4.15483 -4.80414,11.21502 -13.82383,24.25004 -4.98284,7.20107 -9.23637,13.8972 -9.4523,14.88029 -0.64181,2.92214 0.6768,5.11538 7.09686,11.80416 12.27396,12.78772 16.98327,19.7176 16.10788,23.70322 -0.79546,3.62169 -1.90934,3.90425 -15.39114,3.90425 -7.48188,0 -13.17287,-0.29307 -14.72578,-0.75833 -3.22216,-0.96538 -6.97228,-4.27844 -13.73843,-12.13728 -3.03875,-3.52947 -6.25907,-6.61475 -7.39572,-7.08556 -4.42876,-1.83445 -7.26663,2.1114 -8.32552,11.57604 -0.83378,7.4524 -1.51007,8.04917 -9.28369,8.192 -3.27128,0.0601 -7.40547,-0.11783 -9.18708,-0.3954 z"
     id="path4752"
     inkscape:connector-curvature="0" />
  <path
     style="fill:#000000;fill-opacity:0;fill-rule:nonzero;stroke:#000000;stroke-width:0;stroke-miterlimit:4;stroke-dasharray:none;stroke-dashoffset:0;stroke-opacity:0;paint-order:stroke fill markers"
     d="m 403.74153,203.27289 c -19.69193,-3.06801 -33.97788,-16.31374 -50.46075,-46.78651 -5.36046,-9.91018 -14.32075,-29.47626 -14.77871,-32.27143 -0.58236,-3.55453 0.46074,-3.83907 14.07364,-3.83907 12.09854,0 12.14302,0.005 13.70801,1.61207 0.86355,0.88664 2.78218,4.51382 4.26363,8.06038 4.89419,11.71662 12.76187,25.03879 16.54424,28.014 2.45629,1.93212 4.69976,1.51083 6.26337,-1.17618 1.02404,-1.75977 1.3255,-3.76333 1.56525,-10.40279 0.63097,-17.47371 -0.84371,-21.97119 -7.92915,-24.18229 -1.17801,-0.36761 -1.08113,-0.59398 1.11899,-2.61469 l 2.40864,-2.21224 h 13.90264 c 13.90105,0 13.90281,1.8e-4 15.48539,1.58276 l 1.58277,1.58277 0.004,15.66645 c 0.004,15.75844 0.44095,19.73017 2.41734,21.95355 1.6777,1.88736 3.65863,1.3503 6.53693,-1.77229 5.2317,-5.67573 11.47915,-16.81119 16.69324,-29.75409 1.68356,-4.17907 2.48544,-5.40305 3.93243,-6.00241 1.24324,-0.51497 6.02071,-0.69002 15.11795,-0.55395 12.62507,0.18885 13.37084,0.26955 14.68951,1.58958 1.09722,1.09836 1.30315,1.8493 0.97979,3.57295 -0.75411,4.01974 -4.69195,11.07288 -12.24852,21.93854 -4.12414,5.92975 -7.49822,11.08033 -7.49822,11.44574 0,0.36541 -0.26429,0.66438 -0.5873,0.66438 -0.32302,0 -1.21748,1.30176 -1.98769,2.8928 -2.15175,4.44492 -1.50738,5.93066 5.99207,13.81623 12.69851,13.35229 17.13806,19.87316 16.258,23.88002 -0.79546,3.62169 -1.90934,3.90425 -15.39114,3.90425 -7.48188,0 -13.17287,-0.29307 -14.72578,-0.75833 -3.22216,-0.96538 -6.97228,-4.27844 -13.73844,-12.13728 -3.03874,-3.52947 -6.25906,-6.61475 -7.39571,-7.08556 -4.42876,-1.83445 -7.26663,2.1114 -8.32552,11.57604 -0.83378,7.4524 -1.51007,8.04917 -9.28369,8.192 -3.27129,0.0601 -7.40547,-0.11783 -9.18708,-0.3954 z"
     id="path4856"
     inkscape:connector-curvature="0" />
  <path
     style="fill:#000000;fill-opacity:0;fill-rule:nonzero;stroke:#000000;stroke-width:0;stroke-miterlimit:4;stroke-dasharray:none;stroke-dashoffset:0;stroke-opacity:0;paint-order:stroke fill markers"
     d="m 403.74153,203.27289 c -19.69193,-3.06801 -33.97788,-16.31374 -50.46075,-46.78651 -5.36046,-9.91018 -14.32075,-29.47626 -14.77871,-32.27143 -0.58236,-3.55453 0.46074,-3.83907 14.07364,-3.83907 12.09854,0 12.14302,0.005 13.70801,1.61207 0.86355,0.88664 2.78218,4.51382 4.26363,8.06038 4.89419,11.71662 12.76187,25.03879 16.54424,28.014 2.45629,1.93212 4.69976,1.51083 6.26337,-1.17618 1.02404,-1.75977 1.3255,-3.76333 1.56525,-10.40279 0.63097,-17.47371 -0.84371,-21.97119 -7.92915,-24.18229 -1.17801,-0.36761 -1.08113,-0.59398 1.11899,-2.61469 l 2.40864,-2.21224 h 13.90264 c 13.90105,0 13.90281,1.8e-4 15.48539,1.58276 l 1.58277,1.58277 0.004,15.66645 c 0.004,15.75844 0.44095,19.73017 2.41734,21.95355 1.6777,1.88736 3.65863,1.3503 6.53693,-1.77229 5.2317,-5.67573 11.47915,-16.81119 16.69324,-29.75409 1.68356,-4.17907 2.48544,-5.40305 3.93243,-6.00241 1.24324,-0.51497 6.02071,-0.69002 15.11795,-0.55395 12.62507,0.18885 13.37084,0.26955 14.68951,1.58958 1.09722,1.09836 1.30315,1.8493 0.97979,3.57295 -0.77945,4.15483 -4.80414,11.21502 -13.82383,24.25004 -4.98284,7.20107 -9.23637,13.8972 -9.4523,14.88029 -0.64181,2.92214 0.6768,5.11538 7.09686,11.80416 12.27396,12.78772 16.98327,19.7176 16.10788,23.70322 -0.79546,3.62169 -1.90934,3.90425 -15.39114,3.90425 -7.48188,0 -13.17287,-0.29307 -14.72578,-0.75833 -3.22216,-0.96538 -6.97228,-4.27844 -13.73843,-12.13728 -3.03875,-3.52947 -6.25907,-6.61475 -7.39572,-7.08556 -4.42876,-1.83445 -7.26663,2.1114 -8.32552,11.57604 -0.83378,7.4524 -1.51007,8.04917 -9.28369,8.192 -3.27128,0.0601 -7.40547,-0.11783 -9.18708,-0.3954 z"
     id="path4858"
     inkscape:connector-curvature="0" />
  <path
     style="fill:#000000;fill-opacity:0;fill-rule:nonzero;stroke:#000000;stroke-width:0;stroke-miterlimit:4;stroke-dasharray:none;stroke-dashoffset:0;stroke-opacity:0;paint-order:stroke fill markers"
     d="m 403.74153,203.27289 c -19.69193,-3.06801 -33.97788,-16.31374 -50.46075,-46.78651 -5.36046,-9.91018 -14.32075,-29.47626 -14.77871,-32.27143 -0.58236,-3.55453 0.46074,-3.83907 14.07364,-3.83907 12.09854,0 12.14302,0.005 13.70801,1.61207 0.86355,0.88664 2.78218,4.51382 4.26363,8.06038 4.89419,11.71662 12.76187,25.03879 16.54424,28.014 2.45629,1.93212 4.69976,1.51083 6.26337,-1.17618 1.02404,-1.75977 1.3255,-3.76333 1.56525,-10.40279 0.63097,-17.47371 -0.84371,-21.97119 -7.92915,-24.18229 -1.17801,-0.36761 -1.08113,-0.59398 1.11899,-2.61469 l 2.40864,-2.21224 h 13.90264 c 13.90105,0 13.90281,1.8e-4 15.48539,1.58276 l 1.58277,1.58277 0.004,15.66645 c 0.004,15.75844 0.44095,19.73017 2.41734,21.95355 1.6777,1.88736 3.65863,1.3503 6.53693,-1.77229 5.2317,-5.67573 11.47915,-16.81119 16.69324,-29.75409 1.68356,-4.17907 2.48544,-5.40305 3.93243,-6.00241 1.24324,-0.51497 6.02071,-0.69002 15.11795,-0.55395 12.62507,0.18885 13.37084,0.26955 14.68951,1.58958 1.09722,1.09836 1.30315,1.8493 0.97979,3.57295 -0.77945,4.15483 -4.80414,11.21502 -13.82383,24.25004 -4.98284,7.20107 -9.23637,13.8972 -9.4523,14.88029 -0.64181,2.92214 0.6768,5.11538 7.09686,11.80416 12.27396,12.78772 16.98327,19.7176 16.10788,23.70322 -0.79546,3.62169 -1.90934,3.90425 -15.39114,3.90425 -7.48188,0 -13.17287,-0.29307 -14.72578,-0.75833 -3.22216,-0.96538 -6.97228,-4.27844 -13.73843,-12.13728 -3.03875,-3.52947 -6.25907,-6.61475 -7.39572,-7.08556 -4.42876,-1.83445 -7.26663,2.1114 -8.32552,11.57604 -0.83378,7.4524 -1.51007,8.04917 -9.28369,8.192 -3.27128,0.0601 -7.40547,-0.11783 -9.18708,-0.3954 z"
     id="path4860"
     inkscape:connector-curvature="0" />
  <rect
     style="fill:none;fill-opacity:1;fill-rule:evenodd;stroke:#000000;stroke-width:0;stroke-miterlimit:4;stroke-dasharray:none;stroke-dashoffset:0;stroke-opacity:0;paint-order:stroke fill markers"
     id="rect6342"
     width="144.42656"
     height="87.32769"
     x="337.64349"
     y="117.15347" />
  <path
     style="fill:#ffffff;fill-opacity:1;fill-rule:evenodd;stroke:#000000;stroke-width:0;stroke-miterlimit:4;stroke-dasharray:none;stroke-dashoffset:0;stroke-opacity:0;paint-order:stroke fill markers"
     d="m 339.25522,453.17887 c -10.69291,-1.61752 -19.78543,-9.63791 -22.428,-19.78342 -1.14525,-4.39689 -1.14525,-73.06155 0,-77.45844 2.25904,-8.67307 9.50362,-16.09398 18.46364,-18.91305 3.505,-1.10277 3.68977,-1.10773 41.27076,-1.10773 h 37.75 l 3.91392,1.38453 c 5.03871,1.78242 8.43162,3.97975 11.74044,7.60339 3.12219,3.41925 5.31693,7.53062 6.34286,11.88195 1.0944,4.64176 1.0944,71.1185 0,75.76026 -1.02593,4.35133 -3.22067,8.4627 -6.34286,11.88194 -3.30882,3.62365 -6.70173,5.82098 -11.74044,7.6034 l -3.91392,1.38453 -36.25,0.0747 c -19.9375,0.0411 -37.40038,-0.0993 -38.8064,-0.31204 z m 45.9577,-22.30229 c 1.97929,-0.43431 5.95223,-1.9239 8.82877,-3.31019 4.60531,-2.21946 5.7732,-3.06583 9.77691,-7.08535 3.81882,-3.8339 4.92067,-5.32538 6.88142,-9.31481 1.284,-2.6125 2.67481,-6.2125 3.09069,-8 0.96437,-4.14503 0.97476,-12.82276 0.0202,-16.87125 -2.48797,-10.55205 -10.01044,-19.82648 -19.98283,-24.63678 -6.86884,-3.31326 -11.19006,-4.18569 -19.204,-3.87716 -5.09841,0.19628 -7.08176,0.50265 -10.31246,1.59299 -12.35162,4.16857 -21.73028,14.00933 -25.05759,26.2922 -1.19973,4.42885 -1.19973,13.57114 0,18 3.59178,13.25915 13.94965,23.41423 27.55759,27.01803 4.51317,1.19522 13.40709,1.28818 18.4013,0.19232 z m 35.24362,-66.16169 c 4.8433,-2.48379 6.79358,-7.63383 4.66525,-12.31934 -1.77783,-3.91389 -5.74398,-6.08371 -10.16347,-5.56029 -5.00463,0.59273 -8.3967,4.33751 -8.3967,9.26982 0,4.19944 2.20519,7.47719 6.07258,9.02617 2.01006,0.80508 5.83786,0.60134 7.82234,-0.41636 z"
     id="path8586"
     inkscape:connector-curvature="0" />
  <path
     style="fill:#ffffff;fill-opacity:1;fill-rule:evenodd;stroke:#000000;stroke-width:0;stroke-miterlimit:4;stroke-dasharray:none;stroke-dashoffset:0;stroke-opacity:0;paint-order:stroke fill markers"
     d="m 113.01605,223.42613 c -8.63549,-1.2444 -17.615226,-5.9399 -23.732795,-12.40989 -4.57736,-4.84104 -7.80164,-10.59943 -9.60395,-17.15218 l -0.95079,-3.45681 -0.11029,-36.76955 c -0.0994,-33.15139 -0.0519,-37.10006 0.48262,-40.12831 2.91524,-16.51464 16.132009,-29.36242 33.282355,-32.3532 2.54839,-0.4444 8.76311,-0.52726 39.54445,-0.52726 24.06098,0 37.45092,0.12936 39.24691,0.37916 16.06619,2.2346 29.34051,13.90193 33.67707,29.60011 l 0.94795,3.43152 v 38.18376 38.18377 l -0.97223,3.52723 c -3.59387,13.03859 -13.47128,23.44017 -26.3592,27.75802 -6.37041,2.13428 -6.20235,2.12677 -46.56123,2.08101 -20.22326,-0.0229 -37.72415,-0.17925 -38.89087,-0.34738 z m 79.54951,-12.81356 c 7.9558,-2.35172 14.54315,-7.72017 17.85166,-14.54847 2.82749,-5.83553 2.65443,-2.97734 2.65443,-43.84062 0,-40.85524 0.17291,-37.99394 -2.64923,-43.84061 -3.30143,-6.83963 -9.75729,-12.14099 -17.52332,-14.38963 l -2.80842,-0.81317 h -37.83021 -37.83021 l -2.75743,0.79918 c -10.42156,3.02048 -17.950905,11.03307 -19.889705,21.16626 -0.75715,3.95725 -0.75715,70.1987 0,74.15595 2.13308,11.1486 11.162435,19.78995 22.764115,21.78591 0.90793,0.1562 18.35618,0.25436 38.77389,0.21813 34.39496,-0.061 37.279,-0.11195 39.24443,-0.69293 z"
     id="path8592"
     inkscape:connector-curvature="0" />
  <path
     style="fill:#ffffff;fill-opacity:1;fill-rule:evenodd;stroke:#000000;stroke-width:0;stroke-miterlimit:4;stroke-dasharray:none;stroke-dashoffset:0;stroke-opacity:0;paint-order:stroke fill markers"
     d="m -174.01818,133.32207 c -6.14387,-1.94836 -12.67303,-7.33083 -15.61165,-12.86984 -3.38983,-6.38947 -3.29276,-5.08434 -3.29946,-44.36286 -0.005,-27.58143 0.14028,-36.11341 0.64996,-38.25 2.16979,-9.09585 8.85462,-16.29847 18.20319,-19.61319 l 3.91124,-1.38681 h 37.92752 37.92752 l 3.911241,1.38681 c 7.67896,2.72273 12.85736,7.3478 16.36146,14.61319 l 2.04978,4.25 v 38.77603 38.77604 l -1.91374,3.87208 c -3.37319,6.82499 -9.67327,12.44743 -16.62934,14.84067 -2.75594,0.94818 -4.320441,0.98412 -41.660201,0.95709 -36.8456,-0.0267 -38.94914,-0.0764 -41.82752,-0.98921 z"
     id="path8596"
     inkscape:connector-curvature="0" />
</svg>
