<?xml version="1.0" encoding="UTF-8" standalone="no"?>
<svg
   xmlns:dc="http://purl.org/dc/elements/1.1/"
   xmlns:cc="http://creativecommons.org/ns#"
   xmlns:rdf="http://www.w3.org/1999/02/22-rdf-syntax-ns#"
   xmlns:svg="http://www.w3.org/2000/svg"
   xmlns="http://www.w3.org/2000/svg"
   xmlns:xlink="http://www.w3.org/1999/xlink"
   xmlns:sodipodi="http://sodipodi.sourceforge.net/DTD/sodipodi-0.dtd"
   xmlns:inkscape="http://www.inkscape.org/namespaces/inkscape"
   width="304.36"
   height="304.36"
   version="1.1"
   id="svg3813"
   sodipodi:docname="vknohover.svg"
   inkscape:version="0.92.1 r15371">
  <metadata
     id="metadata3819">
    <rdf:RDF>
      <cc:Work
         rdf:about="">
        <dc:format>image/svg+xml</dc:format>
        <dc:type
           rdf:resource="http://purl.org/dc/dcmitype/StillImage" />
        <dc:title />
      </cc:Work>
    </rdf:RDF>
  </metadata>
  <defs
     id="defs3817">
    <linearGradient
       inkscape:collect="always"
       id="linearGradient4744">
      <stop
         style="stop-color:#000000;stop-opacity:1;"
         offset="0"
         id="stop4740" />
      <stop
         style="stop-color:#000000;stop-opacity:0;"
         offset="1"
         id="stop4742" />
    </linearGradient>
    <linearGradient
       inkscape:collect="always"
       xlink:href="#linearGradient4744"
       id="linearGradient4746"
       x1="31.929993"
       y1="159.67999"
       x2="265.42999"
       y2="159.67999"
       gradientUnits="userSpaceOnUse" />
  </defs>
  <sodipodi:namedview
     pagecolor="#ffffff"
     bordercolor="#666666"
     borderopacity="1"
     objecttolerance="10"
     gridtolerance="10"
     guidetolerance="10"
     inkscape:pageopacity="0"
     inkscape:pageshadow="2"
     inkscape:window-width="1920"
     inkscape:window-height="1017"
     id="namedview3815"
     showgrid="false"
     inkscape:zoom="1.5507952"
     inkscape:cx="86.822475"
     inkscape:cy="159.54503"
     inkscape:window-x="-8"
     inkscape:window-y="-8"
     inkscape:window-maximized="1"
     inkscape:current-layer="svg3813" />
  <!-- Created with Method Draw - http://github.com/duopixel/Method-Draw/ -->
  <g
     id="g3811"
     transform="matrix(1.2806768,0,0,1.2532709,-38.137208,-47.743852)"
     style="fill-rule:nonzero;stroke:#000000;stroke-width:5.56275558;stroke-miterlimit:4;stroke-dasharray:none;stroke-dashoffset:0;stroke-opacity:1;paint-order:stroke fill markers">
    <title
       id="title3808"
       style="stroke:url(#linearGradient4746)">Layer 1</title>
    <ellipse
       ry="118.5"
       rx="116"
       id="svg_1"
       cy="159.67999"
       cx="148.67999"
       style="fill:none;fill-rule:nonzero;stroke:#000000;stroke-width:5.56275558;stroke-miterlimit:4;stroke-dasharray:none;stroke-dashoffset:0;stroke-opacity:1;paint-order:stroke fill markers" />
  </g>
  <g
     id="XMLID_1_"
     transform="matrix(0.47457624,0,0,0.50581948,74.800402,79.074393)"
     inkscape:transform-center-x="4.5138132"
     inkscape:transform-center-y="5.8034742">
    <path
       id="XMLID_807_"
       style="clip-rule:evenodd;fill-rule:evenodd"
       d="m 261.945,175.576 c 10.096,9.857 20.752,19.131 29.807,29.982 4,4.822 7.787,9.798 10.684,15.394 4.105,7.955 0.387,16.709 -6.746,17.184 l -44.34,-0.02 c -11.436,0.949 -20.559,-3.655 -28.23,-11.474 -6.139,-6.253 -11.824,-12.908 -17.727,-19.372 -2.42,-2.642 -4.953,-5.128 -7.979,-7.093 -6.053,-3.929 -11.307,-2.726 -14.766,3.587 -3.523,6.421 -4.322,13.531 -4.668,20.687 -0.475,10.441 -3.631,13.186 -14.119,13.664 -22.414,1.057 -43.686,-2.334 -63.447,-13.641 C 82.992,214.506 69.482,200.434 57.723,184.503 34.828,153.482 17.295,119.395 1.537,84.353 -2.01,76.458 0.584,72.22 9.295,72.07 c 14.465,-0.281 28.928,-0.261 43.41,-0.02 5.879,0.086 9.771,3.458 12.041,9.012 7.826,19.243 17.402,37.551 29.422,54.521 3.201,4.518 6.465,9.036 11.113,12.216 5.142,3.521 9.057,2.354 11.476,-3.374 1.535,-3.632 2.207,-7.544 2.553,-11.434 1.146,-13.383 1.297,-26.743 -0.713,-40.079 -1.234,-8.323 -5.922,-13.711 -14.227,-15.286 -4.238,-0.803 -3.607,-2.38 -1.555,-4.799 3.564,-4.172 6.916,-6.769 13.598,-6.769 h 50.111 c 7.889,1.557 9.641,5.101 10.721,13.039 l 0.043,55.663 c -0.086,3.073 1.535,12.192 7.07,14.226 4.43,1.448 7.35,-2.096 10.008,-4.905 11.998,-12.734 20.561,-27.783 28.211,-43.366 3.395,-6.852 6.314,-13.968 9.143,-21.078 2.096,-5.276 5.385,-7.872 11.328,-7.757 l 48.229,0.043 c 1.43,0 2.877,0.021 4.262,0.258 8.127,1.385 10.354,4.881 7.844,12.817 -3.955,12.451 -11.65,22.827 -19.174,33.251 -8.043,11.129 -16.645,21.877 -24.621,33.072 -7.328,10.223 -6.746,15.376 2.357,24.255 z m 0,0"
       inkscape:connector-curvature="0" />
  </g>
</svg>
