<?xml version="1.0" encoding="UTF-8" standalone="no"?>
<svg
   xmlns:osb="http://www.openswatchbook.org/uri/2009/osb"
   xmlns:dc="http://purl.org/dc/elements/1.1/"
   xmlns:cc="http://creativecommons.org/ns#"
   xmlns:rdf="http://www.w3.org/1999/02/22-rdf-syntax-ns#"
   xmlns:svg="http://www.w3.org/2000/svg"
   xmlns="http://www.w3.org/2000/svg"
   xmlns:xlink="http://www.w3.org/1999/xlink"
   xmlns:sodipodi="http://sodipodi.sourceforge.net/DTD/sodipodi-0.dtd"
   xmlns:inkscape="http://www.inkscape.org/namespaces/inkscape"
   width="304.36"
   height="304.36"
   version="1.1"
   id="svg3813"
   sodipodi:docname="vkhover.svg"
   inkscape:version="0.92.1 r15371">
  <metadata
     id="metadata3819">
    <rdf:RDF>
      <cc:Work
         rdf:about="">
        <dc:format>image/svg+xml</dc:format>
        <dc:type
           rdf:resource="http://purl.org/dc/dcmitype/StillImage" />
        <dc:title></dc:title>
      </cc:Work>
    </rdf:RDF>
  </metadata>
  <defs
     id="defs3817">
    <linearGradient
       id="linearGradient6338"
       osb:paint="solid">
      <stop
         style="stop-color:#000000;stop-opacity:1;"
         offset="0"
         id="stop6336" />
    </linearGradient>
    <linearGradient
       inkscape:collect="always"
       id="linearGradient4744">
      <stop
         style="stop-color:#000000;stop-opacity:1;"
         offset="0"
         id="stop4740" />
      <stop
         style="stop-color:#000000;stop-opacity:0;"
         offset="1"
         id="stop4742" />
    </linearGradient>
    <linearGradient
       inkscape:collect="always"
       xlink:href="#linearGradient4744"
       id="linearGradient4746"
       x1="31.929993"
       y1="159.67999"
       x2="265.42999"
       y2="159.67999"
       gradientUnits="userSpaceOnUse" />
  </defs>
  <sodipodi:namedview
     pagecolor="#ffffff"
     bordercolor="#666666"
     borderopacity="1"
     objecttolerance="10"
     gridtolerance="10"
     guidetolerance="10"
     inkscape:pageopacity="0"
     inkscape:pageshadow="2"
     inkscape:window-width="1920"
     inkscape:window-height="1017"
     id="namedview3815"
     showgrid="false"
     inkscape:zoom="2"
     inkscape:cx="174.58366"
     inkscape:cy="190.80365"
     inkscape:window-x="-8"
     inkscape:window-y="-8"
     inkscape:window-maximized="1"
     inkscape:current-layer="svg3813" />
  <!-- Created with Method Draw - http://github.com/duopixel/Method-Draw/ -->
  <g
     id="g3811"
     transform="matrix(1.2806768,0,0,1.2532709,-38.137208,-47.743852)"
     style="fill-rule:nonzero;stroke:#000000;stroke-width:5.56275558;stroke-miterlimit:4;stroke-dasharray:none;stroke-dashoffset:0;stroke-opacity:1;paint-order:stroke fill markers;fill:#000000;fill-opacity:1">
    <title
       id="title3808"
       style="stroke:url(#linearGradient4746)">Layer 1</title>
    <ellipse
       ry="118.5"
       rx="116"
       id="svg_1"
       cy="159.67999"
       cx="148.67999"
       style="fill:#000000;fill-rule:nonzero;stroke:#000000;stroke-width:5.56275558;stroke-miterlimit:4;stroke-dasharray:none;stroke-dashoffset:0;stroke-opacity:1;paint-order:stroke fill markers;fill-opacity:1" />
  </g>
  <g
     id="XMLID_1_"
     transform="matrix(0.47457624,0,0,0.50581948,337.89124,83.588207)"
     style="fill:#000000;fill-opacity:1;stroke:#000000;stroke-width:0;stroke-miterlimit:4;stroke-dasharray:none;stroke-opacity:0">
    <path
       id="XMLID_807_"
       style="clip-rule:evenodd;fill:#ffffff;fill-opacity:1;fill-rule:evenodd;stroke:#000000;stroke-width:0;stroke-miterlimit:4;stroke-dasharray:none;stroke-opacity:0"
       d="m -295.48644,175.8861 c 10.096,9.857 20.752,19.131 29.807,29.982 4,4.822 7.787,9.798 10.684,15.394 4.105,7.955 0.387,16.709 -6.746,17.184 l -44.34,-0.02 c -11.436,0.949 -20.559,-3.655 -28.23,-11.474 -6.139,-6.253 -11.824,-12.908 -17.727,-19.372 -2.42,-2.642 -4.953,-5.128 -7.979,-7.093 -6.053,-3.929 -11.307,-2.726 -14.766,3.587 -3.523,6.421 -4.322,13.531 -4.668,20.687 -0.475,10.441 -3.631,13.186 -14.119,13.664 -22.414,1.057 -43.686,-2.334 -63.447,-13.641 -17.422,-9.968 -30.932,-24.04 -42.691,-39.971 -22.895,-31.021 -40.428,-65.108 -56.186,-100.15 -3.547,-7.895 -0.953,-12.133 7.758,-12.283 14.465,-0.281 28.928,-0.261 43.41,-0.02 5.879,0.086 9.771,3.458 12.041,9.012 7.826,19.243 17.402,37.551 29.422,54.521 3.201,4.518 6.465,9.036 11.113,12.216 5.142,3.521 9.057,2.354 11.476,-3.374 1.535,-3.632 2.207,-7.544 2.553,-11.434 1.146,-13.383 1.297,-26.743 -0.713,-40.079004 -1.234,-8.322996 -5.922,-13.710996 -14.227,-15.285996 -4.238,-0.803 -3.607,-2.38 -1.555,-4.799 3.564,-4.172 6.916,-6.769 13.598,-6.769 h 50.111 c 7.889,1.557 9.641,5.101 10.721,13.039 l 0.043,55.663 c -0.086,3.073 1.535,12.192 7.07,14.226 4.43,1.448 7.35,-2.096 10.008,-4.905 11.998,-12.734 20.561,-27.783 28.211,-43.366 3.395,-6.852004 6.314,-13.968 9.143,-21.078 2.096,-5.276 5.385,-7.872 11.328,-7.757 l 48.229,0.043 c 1.43,0 2.877,0.021 4.262,0.258 8.127,1.385 10.354,4.881 7.844,12.817 -3.955,12.450996 -11.65,22.827 -19.174,33.251 -8.043,11.129 -16.645,21.877 -24.621,33.072 -7.328,10.223 -6.746,15.376 2.357,24.255 z m 0,0"
       inkscape:connector-curvature="0" />
  </g>
  <path
     style="fill:#000000;fill-opacity:0;fill-rule:nonzero;stroke:#000000;stroke-width:0;stroke-miterlimit:4;stroke-dasharray:none;stroke-dashoffset:0;stroke-opacity:0;paint-order:stroke fill markers"
     d="m 403.74153,203.27289 c -19.69193,-3.06801 -33.97788,-16.31374 -50.46075,-46.78651 -5.36046,-9.91018 -14.32075,-29.47626 -14.77871,-32.27143 -0.58236,-3.55453 0.46074,-3.83907 14.07364,-3.83907 12.09854,0 12.14302,0.005 13.70801,1.61207 0.86355,0.88664 2.78218,4.51382 4.26363,8.06038 4.89419,11.71662 12.76187,25.03879 16.54424,28.014 2.45629,1.93212 4.69976,1.51083 6.26337,-1.17618 1.02404,-1.75977 1.3255,-3.76333 1.56525,-10.40279 0.63097,-17.47371 -0.84371,-21.97119 -7.92915,-24.18229 -1.17801,-0.36761 -1.08113,-0.59398 1.11899,-2.61469 l 2.40864,-2.21224 h 13.90264 c 13.90105,0 13.90281,1.8e-4 15.48539,1.58276 l 1.58277,1.58277 0.004,15.66645 c 0.004,15.75844 0.44095,19.73017 2.41734,21.95355 1.6777,1.88736 3.65863,1.3503 6.53693,-1.77229 5.2317,-5.67573 11.47915,-16.81119 16.69324,-29.75409 1.68356,-4.17907 2.48544,-5.40305 3.93243,-6.00241 1.24324,-0.51497 6.02071,-0.69002 15.11795,-0.55395 12.62507,0.18885 13.37084,0.26955 14.68951,1.58958 1.09722,1.09836 1.30315,1.8493 0.97979,3.57295 -0.77945,4.15483 -4.80414,11.21502 -13.82383,24.25004 -4.98284,7.20107 -9.23637,13.8972 -9.4523,14.88029 -0.64181,2.92214 0.6768,5.11538 7.09686,11.80416 12.27396,12.78772 16.98327,19.7176 16.10788,23.70322 -0.79546,3.62169 -1.90934,3.90425 -15.39114,3.90425 -7.48188,0 -13.17287,-0.29307 -14.72578,-0.75833 -3.22216,-0.96538 -6.97228,-4.27844 -13.73843,-12.13728 -3.03875,-3.52947 -6.25907,-6.61475 -7.39572,-7.08556 -4.42876,-1.83445 -7.26663,2.1114 -8.32552,11.57604 -0.83378,7.4524 -1.51007,8.04917 -9.28369,8.192 -3.27128,0.0601 -7.40547,-0.11783 -9.18708,-0.3954 z"
     id="path4750"
     inkscape:connector-curvature="0" />
  <path
     style="fill:#000000;fill-opacity:0;fill-rule:nonzero;stroke:#000000;stroke-width:0;stroke-miterlimit:4;stroke-dasharray:none;stroke-dashoffset:0;stroke-opacity:0;paint-order:stroke fill markers"
     d="m 403.74153,203.27289 c -19.69193,-3.06801 -33.97788,-16.31374 -50.46075,-46.78651 -5.36046,-9.91018 -14.32075,-29.47626 -14.77871,-32.27143 -0.58236,-3.55453 0.46074,-3.83907 14.07364,-3.83907 12.09854,0 12.14302,0.005 13.70801,1.61207 0.86355,0.88664 2.78218,4.51382 4.26363,8.06038 4.89419,11.71662 12.76187,25.03879 16.54424,28.014 2.45629,1.93212 4.69976,1.51083 6.26337,-1.17618 1.02404,-1.75977 1.3255,-3.76333 1.56525,-10.40279 0.63097,-17.47371 -0.84371,-21.97119 -7.92915,-24.18229 -1.17801,-0.36761 -1.08113,-0.59398 1.11899,-2.61469 l 2.40864,-2.21224 h 13.90264 c 13.90105,0 13.90281,1.8e-4 15.48539,1.58276 l 1.58277,1.58277 0.004,15.66645 c 0.004,15.75844 0.44095,19.73017 2.41734,21.95355 1.6777,1.88736 3.65863,1.3503 6.53693,-1.77229 5.2317,-5.67573 11.47915,-16.81119 16.69324,-29.75409 1.68356,-4.17907 2.48544,-5.40305 3.93243,-6.00241 1.24324,-0.51497 6.02071,-0.69002 15.11795,-0.55395 12.62507,0.18885 13.37084,0.26955 14.68951,1.58958 1.09722,1.09836 1.30315,1.8493 0.97979,3.57295 -0.77945,4.15483 -4.80414,11.21502 -13.82383,24.25004 -4.98284,7.20107 -9.23637,13.8972 -9.4523,14.88029 -0.64181,2.92214 0.6768,5.11538 7.09686,11.80416 12.27396,12.78772 16.98327,19.7176 16.10788,23.70322 -0.79546,3.62169 -1.90934,3.90425 -15.39114,3.90425 -7.48188,0 -13.17287,-0.29307 -14.72578,-0.75833 -3.22216,-0.96538 -6.97228,-4.27844 -13.73843,-12.13728 -3.03875,-3.52947 -6.25907,-6.61475 -7.39572,-7.08556 -4.42876,-1.83445 -7.26663,2.1114 -8.32552,11.57604 -0.83378,7.4524 -1.51007,8.04917 -9.28369,8.192 -3.27128,0.0601 -7.40547,-0.11783 -9.18708,-0.3954 z"
     id="path4752"
     inkscape:connector-curvature="0" />
  <path
     style="fill:#000000;fill-opacity:0;fill-rule:nonzero;stroke:#000000;stroke-width:0;stroke-miterlimit:4;stroke-dasharray:none;stroke-dashoffset:0;stroke-opacity:0;paint-order:stroke fill markers"
     d="m 403.74153,203.27289 c -19.69193,-3.06801 -33.97788,-16.31374 -50.46075,-46.78651 -5.36046,-9.91018 -14.32075,-29.47626 -14.77871,-32.27143 -0.58236,-3.55453 0.46074,-3.83907 14.07364,-3.83907 12.09854,0 12.14302,0.005 13.70801,1.61207 0.86355,0.88664 2.78218,4.51382 4.26363,8.06038 4.89419,11.71662 12.76187,25.03879 16.54424,28.014 2.45629,1.93212 4.69976,1.51083 6.26337,-1.17618 1.02404,-1.75977 1.3255,-3.76333 1.56525,-10.40279 0.63097,-17.47371 -0.84371,-21.97119 -7.92915,-24.18229 -1.17801,-0.36761 -1.08113,-0.59398 1.11899,-2.61469 l 2.40864,-2.21224 h 13.90264 c 13.90105,0 13.90281,1.8e-4 15.48539,1.58276 l 1.58277,1.58277 0.004,15.66645 c 0.004,15.75844 0.44095,19.73017 2.41734,21.95355 1.6777,1.88736 3.65863,1.3503 6.53693,-1.77229 5.2317,-5.67573 11.47915,-16.81119 16.69324,-29.75409 1.68356,-4.17907 2.48544,-5.40305 3.93243,-6.00241 1.24324,-0.51497 6.02071,-0.69002 15.11795,-0.55395 12.62507,0.18885 13.37084,0.26955 14.68951,1.58958 1.09722,1.09836 1.30315,1.8493 0.97979,3.57295 -0.75411,4.01974 -4.69195,11.07288 -12.24852,21.93854 -4.12414,5.92975 -7.49822,11.08033 -7.49822,11.44574 0,0.36541 -0.26429,0.66438 -0.5873,0.66438 -0.32302,0 -1.21748,1.30176 -1.98769,2.8928 -2.15175,4.44492 -1.50738,5.93066 5.99207,13.81623 12.69851,13.35229 17.13806,19.87316 16.258,23.88002 -0.79546,3.62169 -1.90934,3.90425 -15.39114,3.90425 -7.48188,0 -13.17287,-0.29307 -14.72578,-0.75833 -3.22216,-0.96538 -6.97228,-4.27844 -13.73844,-12.13728 -3.03874,-3.52947 -6.25906,-6.61475 -7.39571,-7.08556 -4.42876,-1.83445 -7.26663,2.1114 -8.32552,11.57604 -0.83378,7.4524 -1.51007,8.04917 -9.28369,8.192 -3.27129,0.0601 -7.40547,-0.11783 -9.18708,-0.3954 z"
     id="path4856"
     inkscape:connector-curvature="0" />
  <path
     style="fill:#000000;fill-opacity:0;fill-rule:nonzero;stroke:#000000;stroke-width:0;stroke-miterlimit:4;stroke-dasharray:none;stroke-dashoffset:0;stroke-opacity:0;paint-order:stroke fill markers"
     d="m 403.74153,203.27289 c -19.69193,-3.06801 -33.97788,-16.31374 -50.46075,-46.78651 -5.36046,-9.91018 -14.32075,-29.47626 -14.77871,-32.27143 -0.58236,-3.55453 0.46074,-3.83907 14.07364,-3.83907 12.09854,0 12.14302,0.005 13.70801,1.61207 0.86355,0.88664 2.78218,4.51382 4.26363,8.06038 4.89419,11.71662 12.76187,25.03879 16.54424,28.014 2.45629,1.93212 4.69976,1.51083 6.26337,-1.17618 1.02404,-1.75977 1.3255,-3.76333 1.56525,-10.40279 0.63097,-17.47371 -0.84371,-21.97119 -7.92915,-24.18229 -1.17801,-0.36761 -1.08113,-0.59398 1.11899,-2.61469 l 2.40864,-2.21224 h 13.90264 c 13.90105,0 13.90281,1.8e-4 15.48539,1.58276 l 1.58277,1.58277 0.004,15.66645 c 0.004,15.75844 0.44095,19.73017 2.41734,21.95355 1.6777,1.88736 3.65863,1.3503 6.53693,-1.77229 5.2317,-5.67573 11.47915,-16.81119 16.69324,-29.75409 1.68356,-4.17907 2.48544,-5.40305 3.93243,-6.00241 1.24324,-0.51497 6.02071,-0.69002 15.11795,-0.55395 12.62507,0.18885 13.37084,0.26955 14.68951,1.58958 1.09722,1.09836 1.30315,1.8493 0.97979,3.57295 -0.77945,4.15483 -4.80414,11.21502 -13.82383,24.25004 -4.98284,7.20107 -9.23637,13.8972 -9.4523,14.88029 -0.64181,2.92214 0.6768,5.11538 7.09686,11.80416 12.27396,12.78772 16.98327,19.7176 16.10788,23.70322 -0.79546,3.62169 -1.90934,3.90425 -15.39114,3.90425 -7.48188,0 -13.17287,-0.29307 -14.72578,-0.75833 -3.22216,-0.96538 -6.97228,-4.27844 -13.73843,-12.13728 -3.03875,-3.52947 -6.25907,-6.61475 -7.39572,-7.08556 -4.42876,-1.83445 -7.26663,2.1114 -8.32552,11.57604 -0.83378,7.4524 -1.51007,8.04917 -9.28369,8.192 -3.27128,0.0601 -7.40547,-0.11783 -9.18708,-0.3954 z"
     id="path4858"
     inkscape:connector-curvature="0" />
  <path
     style="fill:#000000;fill-opacity:0;fill-rule:nonzero;stroke:#000000;stroke-width:0;stroke-miterlimit:4;stroke-dasharray:none;stroke-dashoffset:0;stroke-opacity:0;paint-order:stroke fill markers"
     d="m 403.74153,203.27289 c -19.69193,-3.06801 -33.97788,-16.31374 -50.46075,-46.78651 -5.36046,-9.91018 -14.32075,-29.47626 -14.77871,-32.27143 -0.58236,-3.55453 0.46074,-3.83907 14.07364,-3.83907 12.09854,0 12.14302,0.005 13.70801,1.61207 0.86355,0.88664 2.78218,4.51382 4.26363,8.06038 4.89419,11.71662 12.76187,25.03879 16.54424,28.014 2.45629,1.93212 4.69976,1.51083 6.26337,-1.17618 1.02404,-1.75977 1.3255,-3.76333 1.56525,-10.40279 0.63097,-17.47371 -0.84371,-21.97119 -7.92915,-24.18229 -1.17801,-0.36761 -1.08113,-0.59398 1.11899,-2.61469 l 2.40864,-2.21224 h 13.90264 c 13.90105,0 13.90281,1.8e-4 15.48539,1.58276 l 1.58277,1.58277 0.004,15.66645 c 0.004,15.75844 0.44095,19.73017 2.41734,21.95355 1.6777,1.88736 3.65863,1.3503 6.53693,-1.77229 5.2317,-5.67573 11.47915,-16.81119 16.69324,-29.75409 1.68356,-4.17907 2.48544,-5.40305 3.93243,-6.00241 1.24324,-0.51497 6.02071,-0.69002 15.11795,-0.55395 12.62507,0.18885 13.37084,0.26955 14.68951,1.58958 1.09722,1.09836 1.30315,1.8493 0.97979,3.57295 -0.77945,4.15483 -4.80414,11.21502 -13.82383,24.25004 -4.98284,7.20107 -9.23637,13.8972 -9.4523,14.88029 -0.64181,2.92214 0.6768,5.11538 7.09686,11.80416 12.27396,12.78772 16.98327,19.7176 16.10788,23.70322 -0.79546,3.62169 -1.90934,3.90425 -15.39114,3.90425 -7.48188,0 -13.17287,-0.29307 -14.72578,-0.75833 -3.22216,-0.96538 -6.97228,-4.27844 -13.73843,-12.13728 -3.03875,-3.52947 -6.25907,-6.61475 -7.39572,-7.08556 -4.42876,-1.83445 -7.26663,2.1114 -8.32552,11.57604 -0.83378,7.4524 -1.51007,8.04917 -9.28369,8.192 -3.27128,0.0601 -7.40547,-0.11783 -9.18708,-0.3954 z"
     id="path4860"
     inkscape:connector-curvature="0" />
  <rect
     style="fill:none;fill-opacity:1;fill-rule:evenodd;stroke:#000000;stroke-width:0;stroke-miterlimit:4;stroke-dasharray:none;stroke-dashoffset:0;stroke-opacity:0;paint-order:stroke fill markers"
     id="rect6342"
     width="144.42656"
     height="87.32769"
     x="337.64349"
     y="117.15347" />
</svg>
