<?xml version="1.0" encoding="UTF-8" standalone="no"?>
<!-- Generator: Adobe Illustrator 19.0.0, SVG Export Plug-In . SVG Version: 6.00 Build 0)  -->

<svg
   xmlns:dc="http://purl.org/dc/elements/1.1/"
   xmlns:cc="http://creativecommons.org/ns#"
   xmlns:rdf="http://www.w3.org/1999/02/22-rdf-syntax-ns#"
   xmlns:svg="http://www.w3.org/2000/svg"
   xmlns="http://www.w3.org/2000/svg"
   xmlns:sodipodi="http://sodipodi.sourceforge.net/DTD/sodipodi-0.dtd"
   xmlns:inkscape="http://www.inkscape.org/namespaces/inkscape"
   version="1.1"
   id="Layer_1"
   x="0px"
   y="0px"
   viewBox="0 0 310 310"
   style="enable-background:new 0 0 310 310;"
   xml:space="preserve"
   sodipodi:docname="youtubehover.svg"
   inkscape:version="0.92.1 r15371"><metadata
     id="metadata6439"><rdf:RDF><cc:Work
         rdf:about=""><dc:format>image/svg+xml</dc:format><dc:type
           rdf:resource="http://purl.org/dc/dcmitype/StillImage" /><dc:title></dc:title></cc:Work></rdf:RDF></metadata><defs
     id="defs6437" /><sodipodi:namedview
     pagecolor="#ffffff"
     bordercolor="#666666"
     borderopacity="1"
     objecttolerance="10"
     gridtolerance="10"
     guidetolerance="10"
     inkscape:pageopacity="0"
     inkscape:pageshadow="2"
     inkscape:window-width="1920"
     inkscape:window-height="1017"
     id="namedview6435"
     showgrid="false"
     inkscape:zoom="1"
     inkscape:cx="63.850141"
     inkscape:cy="305.26447"
     inkscape:window-x="-8"
     inkscape:window-y="-8"
     inkscape:window-maximized="1"
     inkscape:current-layer="Layer_1" /><g
     id="XMLID_822_"
     transform="matrix(0.49152542,0,0,0.49424299,78.813559,78.392336)"><path
       id="XMLID_823_"
       d="M 297.917,64.645 C 286.727,51.343 266.067,45.917 226.611,45.917 H 83.386 c -40.359,0 -61.369,5.776 -72.517,19.938 C 0,79.663 0,100.008 0,128.166 v 53.669 c 0,54.551 12.896,82.248 83.386,82.248 h 143.226 c 34.216,0 53.176,-4.788 65.442,-16.527 C 304.633,235.518 310,215.863 310,181.835 v -53.669 c 0,-29.695 -0.841,-50.16 -12.083,-63.521 z m -98.896,97.765 -65.038,33.991 c -1.454,0.76 -3.044,1.137 -4.632,1.137 -1.798,0 -3.592,-0.484 -5.181,-1.446 -2.992,-1.813 -4.819,-5.056 -4.819,-8.554 v -67.764 c 0,-3.492 1.822,-6.732 4.808,-8.546 2.987,-1.814 6.702,-1.938 9.801,-0.328 l 65.038,33.772 c 3.309,1.718 5.387,5.134 5.392,8.861 0.004,3.73 -2.065,7.151 -5.369,8.877 z"
       inkscape:connector-curvature="0" /></g><g
     id="g6404" /><g
     id="g6406" /><g
     id="g6408" /><g
     id="g6410" /><g
     id="g6412" /><g
     id="g6414" /><g
     id="g6416" /><g
     id="g6418" /><g
     id="g6420" /><g
     id="g6422" /><g
     id="g6424" /><g
     id="g6426" /><g
     id="g6428" /><g
     id="g6430" /><g
     id="g6432" /><g
     id="g3811"
     transform="matrix(1.3071296,0,0,1.2776332,-38.939975,-49.006313)"
     style="fill:#000000;fill-opacity:1;fill-rule:nonzero;stroke:#000000;stroke-width:5.56275558;stroke-miterlimit:4;stroke-dasharray:none;stroke-dashoffset:0;stroke-opacity:1;paint-order:stroke fill markers"><title
       id="title3808">Layer 1</title><ellipse
       ry="118.5"
       rx="116"
       id="svg_1"
       cy="159.67999"
       cx="148.67999"
       style="fill:#000000;fill-opacity:1;fill-rule:nonzero;stroke:#000000;stroke-width:5.56275558;stroke-miterlimit:4;stroke-dasharray:none;stroke-dashoffset:0;stroke-opacity:1;paint-order:stroke fill markers" /></g><path
     style="fill:#000000;fill-opacity:1;fill-rule:evenodd;stroke:#000000;stroke-width:0;stroke-miterlimit:4;stroke-dasharray:none;stroke-dashoffset:0;stroke-opacity:1;paint-order:stroke fill markers"
     d="m 115.22958,208.75183 c -17.081324,-0.76632 -26.6319,-5.08723 -31.782025,-14.37896 -1.442413,-2.60237 -2.753282,-6.66713 -3.477598,-10.78338 -0.914735,-5.1984 -0.945542,-6.05744 -1.023859,-28.54944 -0.0897,-25.76089 0.04752,-29.45204 1.304008,-35.0766 1.310551,-5.86659 3.953687,-9.99526 8.257704,-12.89882 4.327167,-2.91917 9.552197,-4.41467 19.03199,-5.44729 2.47561,-0.26966 6.83429,-0.30479 45.16644,-0.364 29.54974,-0.0456 43.47264,-0.006 45.87356,0.12981 13.28494,0.75279 20.69793,3.04958 25.50111,7.90107 4.00682,4.04711 5.81584,9.05873 6.68951,18.53222 0.29846,3.23624 0.4387,41.61931 0.17052,46.66905 -0.70849,13.34064 -3.20267,20.87019 -8.65411,26.12539 -4.74836,4.57743 -10.69351,6.73166 -21.6741,7.85364 -2.52056,0.25755 -7.25413,0.29193 -43.48707,0.31591 -22.36225,0.0148 -41.21549,0.002 -41.89608,-0.0286 z m 29.16816,-33.1034 c 1.63105,-0.71607 32.57972,-17.06114 33.14563,-17.50536 0.34029,-0.26712 0.88527,-0.99502 1.21107,-1.61757 0.55189,-1.0546 0.58709,-1.22244 0.51542,-2.45772 -0.0893,-1.53876 -0.47692,-2.41962 -1.49054,-3.38703 -0.87472,-0.83484 -33.15556,-17.7149 -34.41812,-17.99767 -0.96477,-0.21607 -2.39701,-0.0274 -3.28729,0.43294 -0.74487,0.38519 -1.70043,1.3807 -2.17152,2.26232 l -0.39894,0.74661 v 18.208 18.208 l 0.39894,0.7466 c 0.47314,0.88545 1.4274,1.87752 2.18063,2.26703 1.2556,0.6493 2.96486,0.68648 4.31472,0.0939 z"
     id="path7069"
     inkscape:connector-curvature="0" /><path
     style="fill:#ffffff;fill-opacity:1;fill-rule:evenodd;stroke:#000000;stroke-width:0;stroke-miterlimit:4;stroke-dasharray:none;stroke-dashoffset:0;stroke-opacity:1;paint-order:stroke fill markers"
     d="m 113.81537,208.75683 c -14.85587,-0.80561 -24.085731,-4.71316 -29.160919,-12.34555 -2.939629,-4.4208 -4.448954,-9.47763 -5.421623,-18.16458 -0.28056,-2.5057 -0.420457,-43.14445 -0.166168,-48.27054 0.37088,-7.47641 1.288893,-12.07742 3.151881,-15.797 3.358514,-6.70551 9.853107,-10.46539 20.768599,-12.02346 6.46524,-0.92284 4.91863,-0.89624 52.10559,-0.89624 41.38677,0 44.30739,0.0199 47.37615,0.32306 10.96122,1.08276 17.28511,3.31741 21.59285,7.63014 3.3435,3.34739 5.16745,7.50029 6.15271,14.00891 0.76473,5.05187 0.80393,6.51975 0.80288,30.07065 -8.8e-4,20.25411 -0.0319,22.7655 -0.31301,25.39694 -1.17194,10.96816 -3.43469,16.99287 -8.14885,21.69679 -0.98461,0.98247 -2.38681,2.18598 -3.11601,2.67449 -5.26275,3.52561 -12.05651,5.20758 -23.06936,5.71139 -4.65222,0.21283 -78.60119,0.19938 -82.55472,-0.015 z m 32.35013,-33.98984 c 3.92518,-1.98766 29.5933,-15.52245 30.68875,-16.18214 2.08532,-1.25582 2.95596,-3.67469 2.16216,-6.00706 -0.46278,-1.35978 -1.53686,-2.26306 -4.66222,-3.92083 -7.22012,-3.82975 -23.82046,-12.48857 -27.13602,-14.15428 -3.59742,-1.80732 -3.75799,-1.86878 -4.86136,-1.86061 -0.63127,0.005 -1.44255,0.13554 -1.8159,0.29293 -0.8838,0.37256 -2.17362,1.57464 -2.65462,2.47406 l -0.38284,0.71589 v 18.22916 c 0,20.54173 -0.13032,18.64367 1.38924,20.23441 0.87829,0.91942 1.48802,1.26113 2.57108,1.44088 1.41037,0.23407 2.12599,0.0419 4.70173,-1.26241 z"
     id="path7071"
     inkscape:connector-curvature="0" /><path
     style="fill:#000000;fill-opacity:1;fill-rule:evenodd;stroke:#000000;stroke-width:0;stroke-miterlimit:4;stroke-dasharray:none;stroke-dashoffset:0;stroke-opacity:1;paint-order:stroke fill markers"
     d="m 140.67326,175.8772 c -1.20563,-0.44526 -2.39031,-1.532 -2.85333,-2.61747 -0.28552,-0.66933 -0.34889,-4.15693 -0.34889,-19.20216 v -18.38429 l 0.69684,-1.0794 c 0.47796,-0.74037 1.11651,-1.28552 2.03298,-1.73564 2.3272,-1.14297 1.13521,-1.64033 20.96263,8.74667 16.33626,8.55809 16.58687,8.69937 17.38076,9.79793 1.36966,1.89532 1.17574,4.31306 -0.48407,6.03537 -0.69669,0.72291 -4.71702,2.95884 -15.88311,8.83345 -18.49992,9.73304 -18.37711,9.6713 -19.5568,9.83372 -0.54847,0.0755 -1.39254,-0.0234 -1.94701,-0.22818 z"
     id="path7077"
     inkscape:connector-curvature="0" /></svg>